SplineFontDB: 3.2
FontName: Heavy
FullName: London Underground Heavy
FamilyName: London Underground
Weight: Heavy
Copyright: Copyright (c) 2020, Sean Petykowski
UComments: "2019-12-18: Created with FontForge (http://fontforge.org)"
Version: 001.000
ItalicAngle: 0
UnderlinePosition: -100
UnderlineWidth: 50
Ascent: 1000
Descent: 200
InvalidEm: 0
LayerCount: 2
Layer: 0 0 "Back" 1
Layer: 1 0 "Fore" 0
XUID: [1021 293 -277398037 6718184]
StyleMap: 0x0000
FSType: 0
OS2Version: 0
OS2_WeightWidthSlopeOnly: 0
OS2_UseTypoMetrics: 1
CreationTime: 1576711909
ModificationTime: 1580644529
PfmFamily: 33
TTFWeight: 800
TTFWidth: 5
LineGap: 90
VLineGap: 0
OS2TypoAscent: 0
OS2TypoAOffset: 1
OS2TypoDescent: 0
OS2TypoDOffset: 1
OS2TypoLinegap: 90
OS2WinAscent: 0
OS2WinAOffset: 1
OS2WinDescent: 0
OS2WinDOffset: 1
HheadAscent: 0
HheadAOffset: 1
HheadDescent: 0
HheadDOffset: 1
OS2Vendor: 'PfEd'
MarkAttachClasses: 1
DEI: 91125

StartChar: E
Encoding: 69 69 0
Width: 700
VWidth: 0
Flags: HW
LayerCount: 2
Fore
SplineSet
0 950 m 0
 0 977.614257812 22.3857421875 1000 50 1000 c 0
 77.6142578125 1000 100 977.614257812 100 950 c 0
 100 922.385742188 77.6142578125 900 50 900 c 0
 22.3857421875 900 0 922.385742188 0 950 c 0
0 850 m 0
 0 877.614257812 22.3857421875 900 50 900 c 0
 77.6142578125 900 100 877.614257812 100 850 c 0
 100 822.385742188 77.6142578125 800 50 800 c 0
 22.3857421875 800 0 822.385742188 0 850 c 0
0 750 m 0
 0 777.614257812 22.3857421875 800 50 800 c 0
 77.6142578125 800 100 777.614257812 100 750 c 0
 100 722.385742188 77.6142578125 700 50 700 c 0
 22.3857421875 700 0 722.385742188 0 750 c 0
0 650 m 0
 0 677.614257812 22.3857421875 700 50 700 c 0
 77.6142578125 700 100 677.614257812 100 650 c 0
 100 622.385742188 77.6142578125 600 50 600 c 0
 22.3857421875 600 0 622.385742188 0 650 c 0
0 550 m 0
 0 577.614257812 22.3857421875 600 50 600 c 0
 77.6142578125 600 100 577.614257812 100 550 c 0
 100 522.385742188 77.6142578125 500 50 500 c 0
 22.3857421875 500 0 522.385742188 0 550 c 0
0 450 m 0
 0 477.614257812 22.3857421875 500 50 500 c 0
 77.6142578125 500 100 477.614257812 100 450 c 0
 100 422.385742188 77.6142578125 400 50 400 c 0
 22.3857421875 400 0 422.385742188 0 450 c 0
0 350 m 0
 0 377.614257812 22.3857421875 400 50 400 c 0
 77.6142578125 400 100 377.614257812 100 350 c 0
 100 322.385742188 77.6142578125 300 50 300 c 0
 22.3857421875 300 0 322.385742188 0 350 c 0
0 250 m 0
 0 277.614257812 22.3857421875 300 50 300 c 0
 77.6142578125 300 100 277.614257812 100 250 c 0
 100 222.385742188 77.6142578125 200 50 200 c 0
 22.3857421875 200 0 222.385742188 0 250 c 0
0 150 m 0
 0 177.614257812 22.3857421875 200 50 200 c 0
 77.6142578125 200 100 177.614257812 100 150 c 0
 100 122.385742188 77.6142578125 100 50 100 c 0
 22.3857421875 100 0 122.385742188 0 150 c 0
0 50 m 0
 0 77.6142578125 22.3857421875 100 50 100 c 0
 77.6142578125 100 100 77.6142578125 100 50 c 0
 100 22.3857421875 77.6142578125 0 50 0 c 0
 22.3857421875 0 0 22.3857421875 0 50 c 0
100 50 m 0
 100 77.6142578125 122.385742188 100 150 100 c 0
 177.614257812 100 200 77.6142578125 200 50 c 0
 200 22.3857421875 177.614257812 0 150 0 c 0
 122.385742188 0 100 22.3857421875 100 50 c 0
100 150 m 0
 100 177.614257812 122.385742188 200 150 200 c 0
 177.614257812 200 200 177.614257812 200 150 c 0
 200 122.385742188 177.614257812 100 150 100 c 0
 122.385742188 100 100 122.385742188 100 150 c 0
200 150 m 0
 200 177.614257812 222.385742188 200 250 200 c 0
 277.614257812 200 300 177.614257812 300 150 c 0
 300 122.385742188 277.614257812 100 250 100 c 0
 222.385742188 100 200 122.385742188 200 150 c 0
300 150 m 0
 300 177.614257812 322.385742188 200 350 200 c 0
 377.614257812 200 400 177.614257812 400 150 c 0
 400 122.385742188 377.614257812 100 350 100 c 0
 322.385742188 100 300 122.385742188 300 150 c 0
400 150 m 0
 400 177.614257812 422.385742188 200 450 200 c 0
 477.614257812 200 500 177.614257812 500 150 c 0
 500 122.385742188 477.614257812 100 450 100 c 0
 422.385742188 100 400 122.385742188 400 150 c 0
500 150 m 0
 500 177.614257812 522.385742188 200 550 200 c 0
 577.614257812 200 600 177.614257812 600 150 c 0
 600 122.385742188 577.614257812 100 550 100 c 0
 522.385742188 100 500 122.385742188 500 150 c 0
500 50 m 0
 500 77.6142578125 522.385742188 100 550 100 c 0
 577.614257812 100 600 77.6142578125 600 50 c 0
 600 22.3857421875 577.614257812 0 550 0 c 0
 522.385742188 0 500 22.3857421875 500 50 c 0
400 50 m 0
 400 77.6142578125 422.385742188 100 450 100 c 0
 477.614257812 100 500 77.6142578125 500 50 c 0
 500 22.3857421875 477.614257812 0 450 0 c 0
 422.385742188 0 400 22.3857421875 400 50 c 0
300 50 m 0
 300 77.6142578125 322.385742188 100 350 100 c 0
 377.614257812 100 400 77.6142578125 400 50 c 0
 400 22.3857421875 377.614257812 0 350 0 c 0
 322.385742188 0 300 22.3857421875 300 50 c 0
200 50 m 0
 200 77.6142578125 222.385742188 100 250 100 c 0
 277.614257812 100 300 77.6142578125 300 50 c 0
 300 22.3857421875 277.614257812 0 250 0 c 0
 222.385742188 0 200 22.3857421875 200 50 c 0
100 250 m 0
 100 277.614257812 122.385742188 300 150 300 c 0
 177.614257812 300 200 277.614257812 200 250 c 0
 200 222.385742188 177.614257812 200 150 200 c 0
 122.385742188 200 100 222.385742188 100 250 c 0
100 350 m 0
 100 377.614257812 122.385742188 400 150 400 c 0
 177.614257812 400 200 377.614257812 200 350 c 0
 200 322.385742188 177.614257812 300 150 300 c 0
 122.385742188 300 100 322.385742188 100 350 c 0
100 450 m 0
 100 477.614257812 122.385742188 500 150 500 c 0
 177.614257812 500 200 477.614257812 200 450 c 0
 200 422.385742188 177.614257812 400 150 400 c 0
 122.385742188 400 100 422.385742188 100 450 c 0
100 550 m 0
 100 577.614257812 122.385742188 600 150 600 c 0
 177.614257812 600 200 577.614257812 200 550 c 0
 200 522.385742188 177.614257812 500 150 500 c 0
 122.385742188 500 100 522.385742188 100 550 c 0
100 650 m 0
 100 677.614257812 122.385742188 700 150 700 c 0
 177.614257812 700 200 677.614257812 200 650 c 0
 200 622.385742188 177.614257812 600 150 600 c 0
 122.385742188 600 100 622.385742188 100 650 c 0
100 750 m 0
 100 777.614257812 122.385742188 800 150 800 c 0
 177.614257812 800 200 777.614257812 200 750 c 0
 200 722.385742188 177.614257812 700 150 700 c 0
 122.385742188 700 100 722.385742188 100 750 c 0
100 850 m 0
 100 877.614257812 122.385742188 900 150 900 c 0
 177.614257812 900 200 877.614257812 200 850 c 0
 200 822.385742188 177.614257812 800 150 800 c 0
 122.385742188 800 100 822.385742188 100 850 c 0
100 950 m 0
 100 977.614257812 122.385742188 1000 150 1000 c 0
 177.614257812 1000 200 977.614257812 200 950 c 0
 200 922.385742188 177.614257812 900 150 900 c 0
 122.385742188 900 100 922.385742188 100 950 c 0
200 950 m 0
 200 977.614257812 222.385742188 1000 250 1000 c 0
 277.614257812 1000 300 977.614257812 300 950 c 0
 300 922.385742188 277.614257812 900 250 900 c 0
 222.385742188 900 200 922.385742188 200 950 c 0
300 950 m 0
 300 977.614257812 322.385742188 1000 350 1000 c 0
 377.614257812 1000 400 977.614257812 400 950 c 0
 400 922.385742188 377.614257812 900 350 900 c 0
 322.385742188 900 300 922.385742188 300 950 c 0
400 950 m 0
 400 977.614257812 422.385742188 1000 450 1000 c 0
 477.614257812 1000 500 977.614257812 500 950 c 0
 500 922.385742188 477.614257812 900 450 900 c 0
 422.385742188 900 400 922.385742188 400 950 c 0
500 950 m 0
 500 977.614257812 522.385742188 1000 550 1000 c 0
 577.614257812 1000 600 977.614257812 600 950 c 0
 600 922.385742188 577.614257812 900 550 900 c 0
 522.385742188 900 500 922.385742188 500 950 c 0
500 850 m 0
 500 877.614257812 522.385742188 900 550 900 c 0
 577.614257812 900 600 877.614257812 600 850 c 0
 600 822.385742188 577.614257812 800 550 800 c 0
 522.385742188 800 500 822.385742188 500 850 c 0
400 850 m 0
 400 877.614257812 422.385742188 900 450 900 c 0
 477.614257812 900 500 877.614257812 500 850 c 0
 500 822.385742188 477.614257812 800 450 800 c 0
 422.385742188 800 400 822.385742188 400 850 c 0
300 850 m 0
 300 877.614257812 322.385742188 900 350 900 c 0
 377.614257812 900 400 877.614257812 400 850 c 0
 400 822.385742188 377.614257812 800 350 800 c 0
 322.385742188 800 300 822.385742188 300 850 c 0
200 850 m 0
 200 877.614257812 222.385742188 900 250 900 c 0
 277.614257812 900 300 877.614257812 300 850 c 0
 300 822.385742188 277.614257812 800 250 800 c 0
 222.385742188 800 200 822.385742188 200 850 c 0
200 550 m 0
 200 577.614257812 222.385742188 600 250 600 c 0
 277.614257812 600 300 577.614257812 300 550 c 0
 300 522.385742188 277.614257812 500 250 500 c 0
 222.385742188 500 200 522.385742188 200 550 c 0
300 550 m 0
 300 577.614257812 322.385742188 600 350 600 c 0
 377.614257812 600 400 577.614257812 400 550 c 0
 400 522.385742188 377.614257812 500 350 500 c 0
 322.385742188 500 300 522.385742188 300 550 c 0
300 450 m 0
 300 477.614257812 322.385742188 500 350 500 c 0
 377.614257812 500 400 477.614257812 400 450 c 0
 400 422.385742188 377.614257812 400 350 400 c 0
 322.385742188 400 300 422.385742188 300 450 c 0
200 450 m 0
 200 477.614257812 222.385742188 500 250 500 c 0
 277.614257812 500 300 477.614257812 300 450 c 0
 300 422.385742188 277.614257812 400 250 400 c 0
 222.385742188 400 200 422.385742188 200 450 c 0
EndSplineSet
Validated: 524293
EndChar

StartChar: B
Encoding: 66 66 1
Width: 700
VWidth: 0
Flags: HW
LayerCount: 2
Fore
SplineSet
0 950 m 4
 0 977.614257812 22.3857421875 1000 50 1000 c 4
 77.6142578125 1000 100 977.614257812 100 950 c 4
 100 922.385742188 77.6142578125 900 50 900 c 4
 22.3857421875 900 0 922.385742188 0 950 c 4
0 850 m 4
 0 877.614257812 22.3857421875 900 50 900 c 4
 77.6142578125 900 100 877.614257812 100 850 c 4
 100 822.385742188 77.6142578125 800 50 800 c 4
 22.3857421875 800 0 822.385742188 0 850 c 4
0 750 m 4
 0 777.614257812 22.3857421875 800 50 800 c 4
 77.6142578125 800 100 777.614257812 100 750 c 4
 100 722.385742188 77.6142578125 700 50 700 c 4
 22.3857421875 700 0 722.385742188 0 750 c 4
0 650 m 4
 0 677.614257812 22.3857421875 700 50 700 c 4
 77.6142578125 700 100 677.614257812 100 650 c 4
 100 622.385742188 77.6142578125 600 50 600 c 4
 22.3857421875 600 0 622.385742188 0 650 c 4
0 550 m 4
 0 577.614257812 22.3857421875 600 50 600 c 4
 77.6142578125 600 100 577.614257812 100 550 c 4
 100 522.385742188 77.6142578125 500 50 500 c 4
 22.3857421875 500 0 522.385742188 0 550 c 4
0 450 m 4
 0 477.614257812 22.3857421875 500 50 500 c 4
 77.6142578125 500 100 477.614257812 100 450 c 4
 100 422.385742188 77.6142578125 400 50 400 c 4
 22.3857421875 400 0 422.385742188 0 450 c 4
0 350 m 4
 0 377.614257812 22.3857421875 400 50 400 c 4
 77.6142578125 400 100 377.614257812 100 350 c 4
 100 322.385742188 77.6142578125 300 50 300 c 4
 22.3857421875 300 0 322.385742188 0 350 c 4
0 250 m 4
 0 277.614257812 22.3857421875 300 50 300 c 4
 77.6142578125 300 100 277.614257812 100 250 c 4
 100 222.385742188 77.6142578125 200 50 200 c 4
 22.3857421875 200 0 222.385742188 0 250 c 4
0 150 m 4
 0 177.614257812 22.3857421875 200 50 200 c 4
 77.6142578125 200 100 177.614257812 100 150 c 4
 100 122.385742188 77.6142578125 100 50 100 c 4
 22.3857421875 100 0 122.385742188 0 150 c 4
0 50 m 4
 0 77.6142578125 22.3857421875 100 50 100 c 4
 77.6142578125 100 100 77.6142578125 100 50 c 4
 100 22.3857421875 77.6142578125 0 50 0 c 4
 22.3857421875 0 0 22.3857421875 0 50 c 4
100 50 m 4
 100 77.6142578125 122.385742188 100 150 100 c 4
 177.614257812 100 200 77.6142578125 200 50 c 4
 200 22.3857421875 177.614257812 0 150 0 c 4
 122.385742188 0 100 22.3857421875 100 50 c 4
100 150 m 4
 100 177.614257812 122.385742188 200 150 200 c 4
 177.614257812 200 200 177.614257812 200 150 c 4
 200 122.385742188 177.614257812 100 150 100 c 4
 122.385742188 100 100 122.385742188 100 150 c 4
100 250 m 4
 100 277.614257812 122.385742188 300 150 300 c 4
 177.614257812 300 200 277.614257812 200 250 c 4
 200 222.385742188 177.614257812 200 150 200 c 4
 122.385742188 200 100 222.385742188 100 250 c 4
100 350 m 4
 100 377.614257812 122.385742188 400 150 400 c 4
 177.614257812 400 200 377.614257812 200 350 c 4
 200 322.385742188 177.614257812 300 150 300 c 4
 122.385742188 300 100 322.385742188 100 350 c 4
100 450 m 4
 100 477.614257812 122.385742188 500 150 500 c 4
 177.614257812 500 200 477.614257812 200 450 c 4
 200 422.385742188 177.614257812 400 150 400 c 4
 122.385742188 400 100 422.385742188 100 450 c 4
100 550 m 4
 100 577.614257812 122.385742188 600 150 600 c 4
 177.614257812 600 200 577.614257812 200 550 c 4
 200 522.385742188 177.614257812 500 150 500 c 4
 122.385742188 500 100 522.385742188 100 550 c 4
100 650 m 4
 100 677.614257812 122.385742188 700 150 700 c 4
 177.614257812 700 200 677.614257812 200 650 c 4
 200 622.385742188 177.614257812 600 150 600 c 4
 122.385742188 600 100 622.385742188 100 650 c 4
100 750 m 4
 100 777.614257812 122.385742188 800 150 800 c 4
 177.614257812 800 200 777.614257812 200 750 c 4
 200 722.385742188 177.614257812 700 150 700 c 4
 122.385742188 700 100 722.385742188 100 750 c 4
100 850 m 4
 100 877.614257812 122.385742188 900 150 900 c 4
 177.614257812 900 200 877.614257812 200 850 c 4
 200 822.385742188 177.614257812 800 150 800 c 4
 122.385742188 800 100 822.385742188 100 850 c 4
200 950 m 4
 200 977.614257812 222.385742188 1000 250 1000 c 4
 277.614257812 1000 300 977.614257812 300 950 c 4
 300 922.385742188 277.614257812 900 250 900 c 4
 222.385742188 900 200 922.385742188 200 950 c 4
200 850 m 4
 200 877.614257812 222.385742188 900 250 900 c 4
 277.614257812 900 300 877.614257812 300 850 c 4
 300 822.385742188 277.614257812 800 250 800 c 4
 222.385742188 800 200 822.385742188 200 850 c 4
300 850 m 4
 300 877.614257812 322.385742188 900 350 900 c 4
 377.614257812 900 400 877.614257812 400 850 c 4
 400 822.385742188 377.614257812 800 350 800 c 4
 322.385742188 800 300 822.385742188 300 850 c 4
400 850 m 4
 400 877.614257812 422.385742188 900 450 900 c 4
 477.614257812 900 500 877.614257812 500 850 c 4
 500 822.385742188 477.614257812 800 450 800 c 4
 422.385742188 800 400 822.385742188 400 850 c 4
500 850 m 4
 500 877.614257812 522.385742188 900 550 900 c 4
 577.614257812 900 600 877.614257812 600 850 c 4
 600 822.385742188 577.614257812 800 550 800 c 4
 522.385742188 800 500 822.385742188 500 850 c 4
400 950 m 4
 400 977.614257812 422.385742188 1000 450 1000 c 4
 477.614257812 1000 500 977.614257812 500 950 c 4
 500 922.385742188 477.614257812 900 450 900 c 4
 422.385742188 900 400 922.385742188 400 950 c 4
300 950 m 4
 300 977.614257812 322.385742188 1000 350 1000 c 4
 377.614257812 1000 400 977.614257812 400 950 c 4
 400 922.385742188 377.614257812 900 350 900 c 4
 322.385742188 900 300 922.385742188 300 950 c 4
400 750 m 4
 400 777.614257812 422.385742188 800 450 800 c 4
 477.614257812 800 500 777.614257812 500 750 c 4
 500 722.385742188 477.614257812 700 450 700 c 4
 422.385742188 700 400 722.385742188 400 750 c 4
400 650 m 4
 400 677.614257812 422.385742188 700 450 700 c 4
 477.614257812 700 500 677.614257812 500 650 c 4
 500 622.385742188 477.614257812 600 450 600 c 4
 422.385742188 600 400 622.385742188 400 650 c 4
400 550 m 4
 400 577.614257812 422.385742188 600 450 600 c 4
 477.614257812 600 500 577.614257812 500 550 c 4
 500 522.385742188 477.614257812 500 450 500 c 4
 422.385742188 500 400 522.385742188 400 550 c 4
300 550 m 4
 300 577.614257812 322.385742188 600 350 600 c 4
 377.614257812 600 400 577.614257812 400 550 c 4
 400 522.385742188 377.614257812 500 350 500 c 4
 322.385742188 500 300 522.385742188 300 550 c 4
200 550 m 4
 200 577.614257812 222.385742188 600 250 600 c 4
 277.614257812 600 300 577.614257812 300 550 c 4
 300 522.385742188 277.614257812 500 250 500 c 4
 222.385742188 500 200 522.385742188 200 550 c 4
200 450 m 4
 200 477.614257812 222.385742188 500 250 500 c 4
 277.614257812 500 300 477.614257812 300 450 c 4
 300 422.385742188 277.614257812 400 250 400 c 4
 222.385742188 400 200 422.385742188 200 450 c 4
300 450 m 4
 300 477.614257812 322.385742188 500 350 500 c 4
 377.614257812 500 400 477.614257812 400 450 c 4
 400 422.385742188 377.614257812 400 350 400 c 4
 322.385742188 400 300 422.385742188 300 450 c 4
400 450 m 4
 400 477.614257812 422.385742188 500 450 500 c 4
 477.614257812 500 500 477.614257812 500 450 c 4
 500 422.385742188 477.614257812 400 450 400 c 4
 422.385742188 400 400 422.385742188 400 450 c 4
400 350 m 4
 400 377.614257812 422.385742188 400 450 400 c 4
 477.614257812 400 500 377.614257812 500 350 c 4
 500 322.385742188 477.614257812 300 450 300 c 4
 422.385742188 300 400 322.385742188 400 350 c 4
400 250 m 4
 400 277.614257812 422.385742188 300 450 300 c 4
 477.614257812 300 500 277.614257812 500 250 c 4
 500 222.385742188 477.614257812 200 450 200 c 4
 422.385742188 200 400 222.385742188 400 250 c 4
400 150 m 4
 400 177.614257812 422.385742188 200 450 200 c 4
 477.614257812 200 500 177.614257812 500 150 c 4
 500 122.385742188 477.614257812 100 450 100 c 4
 422.385742188 100 400 122.385742188 400 150 c 4
300 150 m 4
 300 177.614257812 322.385742188 200 350 200 c 4
 377.614257812 200 400 177.614257812 400 150 c 4
 400 122.385742188 377.614257812 100 350 100 c 4
 322.385742188 100 300 122.385742188 300 150 c 4
200 150 m 4
 200 177.614257812 222.385742188 200 250 200 c 4
 277.614257812 200 300 177.614257812 300 150 c 4
 300 122.385742188 277.614257812 100 250 100 c 4
 222.385742188 100 200 122.385742188 200 150 c 4
200 50 m 4
 200 77.6142578125 222.385742188 100 250 100 c 4
 277.614257812 100 300 77.6142578125 300 50 c 4
 300 22.3857421875 277.614257812 0 250 0 c 4
 222.385742188 0 200 22.3857421875 200 50 c 4
300 50 m 4
 300 77.6142578125 322.385742188 100 350 100 c 4
 377.614257812 100 400 77.6142578125 400 50 c 4
 400 22.3857421875 377.614257812 0 350 0 c 4
 322.385742188 0 300 22.3857421875 300 50 c 4
400 50 m 4
 400 77.6142578125 422.385742188 100 450 100 c 4
 477.614257812 100 500 77.6142578125 500 50 c 4
 500 22.3857421875 477.614257812 0 450 0 c 4
 422.385742188 0 400 22.3857421875 400 50 c 4
500 150 m 4
 500 177.614257812 522.385742188 200 550 200 c 4
 577.614257812 200 600 177.614257812 600 150 c 4
 600 122.385742188 577.614257812 100 550 100 c 4
 522.385742188 100 500 122.385742188 500 150 c 4
500 250 m 4
 500 277.614257812 522.385742188 300 550 300 c 4
 577.614257812 300 600 277.614257812 600 250 c 4
 600 222.385742188 577.614257812 200 550 200 c 4
 522.385742188 200 500 222.385742188 500 250 c 4
500 350 m 4
 500 377.614257812 522.385742188 400 550 400 c 4
 577.614257812 400 600 377.614257812 600 350 c 4
 600 322.385742188 577.614257812 300 550 300 c 4
 522.385742188 300 500 322.385742188 500 350 c 4
500 650 m 4
 500 677.614257812 522.385742188 700 550 700 c 4
 577.614257812 700 600 677.614257812 600 650 c 4
 600 622.385742188 577.614257812 600 550 600 c 4
 522.385742188 600 500 622.385742188 500 650 c 4
500 750 m 4
 500 777.614257812 522.385742188 800 550 800 c 4
 577.614257812 800 600 777.614257812 600 750 c 4
 600 722.385742188 577.614257812 700 550 700 c 4
 522.385742188 700 500 722.385742188 500 750 c 4
100 950 m 4
 100 977.614257812 122.385742188 1000 150 1000 c 4
 177.614257812 1000 200 977.614257812 200 950 c 4
 200 922.385742188 177.614257812 900 150 900 c 4
 122.385742188 900 100 922.385742188 100 950 c 4
100 950 m 4
 100 977.614257812 122.385742188 1000 150 1000 c 4
 177.614257812 1000 200 977.614257812 200 950 c 4
 200 922.385742188 177.614257812 900 150 900 c 4
 122.385742188 900 100 922.385742188 100 950 c 4
EndSplineSet
Validated: 524293
EndChar

StartChar: R
Encoding: 82 82 2
Width: 700
VWidth: 0
Flags: HW
LayerCount: 2
Fore
SplineSet
0 950 m 0
 0 977.614257812 22.3857421875 1000 50 1000 c 0
 77.6142578125 1000 100 977.614257812 100 950 c 0
 100 922.385742188 77.6142578125 900 50 900 c 0
 22.3857421875 900 0 922.385742188 0 950 c 0
0 850 m 0
 0 877.614257812 22.3857421875 900 50 900 c 0
 77.6142578125 900 100 877.614257812 100 850 c 0
 100 822.385742188 77.6142578125 800 50 800 c 0
 22.3857421875 800 0 822.385742188 0 850 c 0
0 750 m 0
 0 777.614257812 22.3857421875 800 50 800 c 0
 77.6142578125 800 100 777.614257812 100 750 c 0
 100 722.385742188 77.6142578125 700 50 700 c 0
 22.3857421875 700 0 722.385742188 0 750 c 0
0 650 m 0
 0 677.614257812 22.3857421875 700 50 700 c 0
 77.6142578125 700 100 677.614257812 100 650 c 0
 100 622.385742188 77.6142578125 600 50 600 c 0
 22.3857421875 600 0 622.385742188 0 650 c 0
0 550 m 0
 0 577.614257812 22.3857421875 600 50 600 c 0
 77.6142578125 600 100 577.614257812 100 550 c 0
 100 522.385742188 77.6142578125 500 50 500 c 0
 22.3857421875 500 0 522.385742188 0 550 c 0
0 450 m 0
 0 477.614257812 22.3857421875 500 50 500 c 0
 77.6142578125 500 100 477.614257812 100 450 c 0
 100 422.385742188 77.6142578125 400 50 400 c 0
 22.3857421875 400 0 422.385742188 0 450 c 0
0 350 m 0
 0 377.614257812 22.3857421875 400 50 400 c 0
 77.6142578125 400 100 377.614257812 100 350 c 0
 100 322.385742188 77.6142578125 300 50 300 c 0
 22.3857421875 300 0 322.385742188 0 350 c 0
0 250 m 0
 0 277.614257812 22.3857421875 300 50 300 c 0
 77.6142578125 300 100 277.614257812 100 250 c 0
 100 222.385742188 77.6142578125 200 50 200 c 0
 22.3857421875 200 0 222.385742188 0 250 c 0
0 150 m 0
 0 177.614257812 22.3857421875 200 50 200 c 0
 77.6142578125 200 100 177.614257812 100 150 c 0
 100 122.385742188 77.6142578125 100 50 100 c 0
 22.3857421875 100 0 122.385742188 0 150 c 0
0 50 m 0
 0 77.6142578125 22.3857421875 100 50 100 c 0
 77.6142578125 100 100 77.6142578125 100 50 c 0
 100 22.3857421875 77.6142578125 0 50 0 c 0
 22.3857421875 0 0 22.3857421875 0 50 c 0
100 50 m 0
 100 77.6142578125 122.385742188 100 150 100 c 0
 177.614257812 100 200 77.6142578125 200 50 c 0
 200 22.3857421875 177.614257812 0 150 0 c 0
 122.385742188 0 100 22.3857421875 100 50 c 0
100 150 m 0
 100 177.614257812 122.385742188 200 150 200 c 0
 177.614257812 200 200 177.614257812 200 150 c 0
 200 122.385742188 177.614257812 100 150 100 c 0
 122.385742188 100 100 122.385742188 100 150 c 0
100 250 m 0
 100 277.614257812 122.385742188 300 150 300 c 0
 177.614257812 300 200 277.614257812 200 250 c 0
 200 222.385742188 177.614257812 200 150 200 c 0
 122.385742188 200 100 222.385742188 100 250 c 0
100 350 m 0
 100 377.614257812 122.385742188 400 150 400 c 0
 177.614257812 400 200 377.614257812 200 350 c 0
 200 322.385742188 177.614257812 300 150 300 c 0
 122.385742188 300 100 322.385742188 100 350 c 0
100 450 m 0
 100 477.614257812 122.385742188 500 150 500 c 0
 177.614257812 500 200 477.614257812 200 450 c 0
 200 422.385742188 177.614257812 400 150 400 c 0
 122.385742188 400 100 422.385742188 100 450 c 0
100 550 m 0
 100 577.614257812 122.385742188 600 150 600 c 0
 177.614257812 600 200 577.614257812 200 550 c 0
 200 522.385742188 177.614257812 500 150 500 c 0
 122.385742188 500 100 522.385742188 100 550 c 0
100 650 m 0
 100 677.614257812 122.385742188 700 150 700 c 0
 177.614257812 700 200 677.614257812 200 650 c 0
 200 622.385742188 177.614257812 600 150 600 c 0
 122.385742188 600 100 622.385742188 100 650 c 0
100 750 m 0
 100 777.614257812 122.385742188 800 150 800 c 0
 177.614257812 800 200 777.614257812 200 750 c 0
 200 722.385742188 177.614257812 700 150 700 c 0
 122.385742188 700 100 722.385742188 100 750 c 0
100 850 m 0
 100 877.614257812 122.385742188 900 150 900 c 0
 177.614257812 900 200 877.614257812 200 850 c 0
 200 822.385742188 177.614257812 800 150 800 c 0
 122.385742188 800 100 822.385742188 100 850 c 0
100 950 m 0
 100 977.614257812 122.385742188 1000 150 1000 c 0
 177.614257812 1000 200 977.614257812 200 950 c 0
 200 922.385742188 177.614257812 900 150 900 c 0
 122.385742188 900 100 922.385742188 100 950 c 0
200 950 m 0
 200 977.614257812 222.385742188 1000 250 1000 c 0
 277.614257812 1000 300 977.614257812 300 950 c 0
 300 922.385742188 277.614257812 900 250 900 c 0
 222.385742188 900 200 922.385742188 200 950 c 0
300 950 m 0
 300 977.614257812 322.385742188 1000 350 1000 c 0
 377.614257812 1000 400 977.614257812 400 950 c 0
 400 922.385742188 377.614257812 900 350 900 c 0
 322.385742188 900 300 922.385742188 300 950 c 0
400 950 m 0
 400 977.614257812 422.385742188 1000 450 1000 c 0
 477.614257812 1000 500 977.614257812 500 950 c 0
 500 922.385742188 477.614257812 900 450 900 c 0
 422.385742188 900 400 922.385742188 400 950 c 0
500 850 m 0
 500 877.614257812 522.385742188 900 550 900 c 0
 577.614257812 900 600 877.614257812 600 850 c 0
 600 822.385742188 577.614257812 800 550 800 c 0
 522.385742188 800 500 822.385742188 500 850 c 0
400 850 m 0
 400 877.614257812 422.385742188 900 450 900 c 0
 477.614257812 900 500 877.614257812 500 850 c 0
 500 822.385742188 477.614257812 800 450 800 c 0
 422.385742188 800 400 822.385742188 400 850 c 0
300 850 m 0
 300 877.614257812 322.385742188 900 350 900 c 0
 377.614257812 900 400 877.614257812 400 850 c 0
 400 822.385742188 377.614257812 800 350 800 c 0
 322.385742188 800 300 822.385742188 300 850 c 0
200 850 m 0
 200 877.614257812 222.385742188 900 250 900 c 0
 277.614257812 900 300 877.614257812 300 850 c 0
 300 822.385742188 277.614257812 800 250 800 c 0
 222.385742188 800 200 822.385742188 200 850 c 0
500 750 m 0
 500 777.614257812 522.385742188 800 550 800 c 0
 577.614257812 800 600 777.614257812 600 750 c 0
 600 722.385742188 577.614257812 700 550 700 c 0
 522.385742188 700 500 722.385742188 500 750 c 0
500 650 m 0
 500 677.614257812 522.385742188 700 550 700 c 0
 577.614257812 700 600 677.614257812 600 650 c 0
 600 622.385742188 577.614257812 600 550 600 c 0
 522.385742188 600 500 622.385742188 500 650 c 0
500 550 m 0
 500 577.614257812 522.385742188 600 550 600 c 0
 577.614257812 600 600 577.614257812 600 550 c 0
 600 522.385742188 577.614257812 500 550 500 c 0
 522.385742188 500 500 522.385742188 500 550 c 0
400 550 m 0
 400 577.614257812 422.385742188 600 450 600 c 0
 477.614257812 600 500 577.614257812 500 550 c 0
 500 522.385742188 477.614257812 500 450 500 c 0
 422.385742188 500 400 522.385742188 400 550 c 0
400 650 m 0
 400 677.614257812 422.385742188 700 450 700 c 0
 477.614257812 700 500 677.614257812 500 650 c 0
 500 622.385742188 477.614257812 600 450 600 c 0
 422.385742188 600 400 622.385742188 400 650 c 0
400 750 m 0
 400 777.614257812 422.385742188 800 450 800 c 0
 477.614257812 800 500 777.614257812 500 750 c 0
 500 722.385742188 477.614257812 700 450 700 c 0
 422.385742188 700 400 722.385742188 400 750 c 0
400 50 m 0
 400 77.6142578125 422.385742188 100 450 100 c 0
 477.614257812 100 500 77.6142578125 500 50 c 0
 500 22.3857421875 477.614257812 0 450 0 c 0
 422.385742188 0 400 22.3857421875 400 50 c 0
500 50 m 0
 500 77.6142578125 522.385742188 100 550 100 c 0
 577.614257812 100 600 77.6142578125 600 50 c 0
 600 22.3857421875 577.614257812 0 550 0 c 0
 522.385742188 0 500 22.3857421875 500 50 c 0
500 150 m 0
 500 177.614257812 522.385742188 200 550 200 c 0
 577.614257812 200 600 177.614257812 600 150 c 0
 600 122.385742188 577.614257812 100 550 100 c 0
 522.385742188 100 500 122.385742188 500 150 c 0
400 150 m 0
 400 177.614257812 422.385742188 200 450 200 c 0
 477.614257812 200 500 177.614257812 500 150 c 0
 500 122.385742188 477.614257812 100 450 100 c 0
 422.385742188 100 400 122.385742188 400 150 c 0
400 250 m 0
 400 277.614257812 422.385742188 300 450 300 c 0
 477.614257812 300 500 277.614257812 500 250 c 0
 500 222.385742188 477.614257812 200 450 200 c 0
 422.385742188 200 400 222.385742188 400 250 c 0
300 250 m 0
 300 277.614257812 322.385742188 300 350 300 c 0
 377.614257812 300 400 277.614257812 400 250 c 0
 400 222.385742188 377.614257812 200 350 200 c 0
 322.385742188 200 300 222.385742188 300 250 c 0
200 350 m 0
 200 377.614257812 222.385742188 400 250 400 c 0
 277.614257812 400 300 377.614257812 300 350 c 0
 300 322.385742188 277.614257812 300 250 300 c 0
 222.385742188 300 200 322.385742188 200 350 c 0
300 350 m 0
 300 377.614257812 322.385742188 400 350 400 c 0
 377.614257812 400 400 377.614257812 400 350 c 0
 400 322.385742188 377.614257812 300 350 300 c 0
 322.385742188 300 300 322.385742188 300 350 c 0
400 350 m 0
 400 377.614257812 422.385742188 400 450 400 c 0
 477.614257812 400 500 377.614257812 500 350 c 0
 500 322.385742188 477.614257812 300 450 300 c 0
 422.385742188 300 400 322.385742188 400 350 c 0
500 450 m 0
 500 477.614257812 522.385742188 500 550 500 c 0
 577.614257812 500 600 477.614257812 600 450 c 0
 600 422.385742188 577.614257812 400 550 400 c 0
 522.385742188 400 500 422.385742188 500 450 c 0
400 450 m 0
 400 477.614257812 422.385742188 500 450 500 c 0
 477.614257812 500 500 477.614257812 500 450 c 0
 500 422.385742188 477.614257812 400 450 400 c 0
 422.385742188 400 400 422.385742188 400 450 c 0
300 450 m 0
 300 477.614257812 322.385742188 500 350 500 c 0
 377.614257812 500 400 477.614257812 400 450 c 0
 400 422.385742188 377.614257812 400 350 400 c 0
 322.385742188 400 300 422.385742188 300 450 c 0
200 450 m 0
 200 477.614257812 222.385742188 500 250 500 c 0
 277.614257812 500 300 477.614257812 300 450 c 0
 300 422.385742188 277.614257812 400 250 400 c 0
 222.385742188 400 200 422.385742188 200 450 c 0
EndSplineSet
Validated: 524293
EndChar

StartChar: r
Encoding: 114 114 3
Width: 600
VWidth: 0
Flags: HW
LayerCount: 2
Fore
SplineSet
0 50 m 4
 0 77.6142578125 22.3857421875 100 50 100 c 4
 77.6142578125 100 100 77.6142578125 100 50 c 4
 100 22.3857421875 77.6142578125 0 50 0 c 4
 22.3857421875 0 0 22.3857421875 0 50 c 4
100 50 m 4
 100 77.6142578125 122.385742188 100 150 100 c 4
 177.614257812 100 200 77.6142578125 200 50 c 4
 200 22.3857421875 177.614257812 0 150 0 c 4
 122.385742188 0 100 22.3857421875 100 50 c 4
0 150 m 4
 0 177.614257812 22.3857421875 200 50 200 c 4
 77.6142578125 200 100 177.614257812 100 150 c 4
 100 122.385742188 77.6142578125 100 50 100 c 4
 22.3857421875 100 0 122.385742188 0 150 c 4
100 150 m 4
 100 177.614257812 122.385742188 200 150 200 c 4
 177.614257812 200 200 177.614257812 200 150 c 4
 200 122.385742188 177.614257812 100 150 100 c 4
 122.385742188 100 100 122.385742188 100 150 c 4
100 250 m 4
 100 277.614257812 122.385742188 300 150 300 c 4
 177.614257812 300 200 277.614257812 200 250 c 4
 200 222.385742188 177.614257812 200 150 200 c 4
 122.385742188 200 100 222.385742188 100 250 c 4
0 250 m 4
 0 277.614257812 22.3857421875 300 50 300 c 4
 77.6142578125 300 100 277.614257812 100 250 c 4
 100 222.385742188 77.6142578125 200 50 200 c 4
 22.3857421875 200 0 222.385742188 0 250 c 4
0 350 m 4
 0 377.614257812 22.3857421875 400 50 400 c 4
 77.6142578125 400 100 377.614257812 100 350 c 4
 100 322.385742188 77.6142578125 300 50 300 c 4
 22.3857421875 300 0 322.385742188 0 350 c 4
100 350 m 4
 100 377.614257812 122.385742188 400 150 400 c 4
 177.614257812 400 200 377.614257812 200 350 c 4
 200 322.385742188 177.614257812 300 150 300 c 4
 122.385742188 300 100 322.385742188 100 350 c 4
100 450 m 4
 100 477.614257812 122.385742188 500 150 500 c 4
 177.614257812 500 200 477.614257812 200 450 c 4
 200 422.385742188 177.614257812 400 150 400 c 4
 122.385742188 400 100 422.385742188 100 450 c 4
0 450 m 4
 0 477.614257812 22.3857421875 500 50 500 c 4
 77.6142578125 500 100 477.614257812 100 450 c 4
 100 422.385742188 77.6142578125 400 50 400 c 4
 22.3857421875 400 0 422.385742188 0 450 c 4
0 550 m 4
 0 577.614257812 22.3857421875 600 50 600 c 4
 77.6142578125 600 100 577.614257812 100 550 c 4
 100 522.385742188 77.6142578125 500 50 500 c 4
 22.3857421875 500 0 522.385742188 0 550 c 4
100 550 m 4
 100 577.614257812 122.385742188 600 150 600 c 4
 177.614257812 600 200 577.614257812 200 550 c 4
 200 522.385742188 177.614257812 500 150 500 c 4
 122.385742188 500 100 522.385742188 100 550 c 4
100 650 m 4
 100 677.614257812 122.385742188 700 150 700 c 4
 177.614257812 700 200 677.614257812 200 650 c 4
 200 622.385742188 177.614257812 600 150 600 c 4
 122.385742188 600 100 622.385742188 100 650 c 4
0 650 m 4
 0 677.614257812 22.3857421875 700 50 700 c 4
 77.6142578125 700 100 677.614257812 100 650 c 4
 100 622.385742188 77.6142578125 600 50 600 c 4
 22.3857421875 600 0 622.385742188 0 650 c 4
0 750 m 4
 0 777.614257812 22.3857421875 800 50 800 c 4
 77.6142578125 800 100 777.614257812 100 750 c 4
 100 722.385742188 77.6142578125 700 50 700 c 4
 22.3857421875 700 0 722.385742188 0 750 c 4
100 750 m 4
 100 777.614257812 122.385742188 800 150 800 c 4
 177.614257812 800 200 777.614257812 200 750 c 4
 200 722.385742188 177.614257812 700 150 700 c 4
 122.385742188 700 100 722.385742188 100 750 c 4
200 650 m 4
 200 677.614257812 222.385742188 700 250 700 c 4
 277.614257812 700 300 677.614257812 300 650 c 4
 300 622.385742188 277.614257812 600 250 600 c 4
 222.385742188 600 200 622.385742188 200 650 c 4
200 550 m 4
 200 577.614257812 222.385742188 600 250 600 c 4
 277.614257812 600 300 577.614257812 300 550 c 4
 300 522.385742188 277.614257812 500 250 500 c 4
 222.385742188 500 200 522.385742188 200 550 c 4
300 650 m 4
 300 677.614257812 322.385742188 700 350 700 c 4
 377.614257812 700 400 677.614257812 400 650 c 4
 400 622.385742188 377.614257812 600 350 600 c 4
 322.385742188 600 300 622.385742188 300 650 c 4
300 750 m 4
 300 777.614257812 322.385742188 800 350 800 c 4
 377.614257812 800 400 777.614257812 400 750 c 4
 400 722.385742188 377.614257812 700 350 700 c 4
 322.385742188 700 300 722.385742188 300 750 c 4
400 750 m 4
 400 777.614257812 422.385742188 800 450 800 c 4
 477.614257812 800 500 777.614257812 500 750 c 4
 500 722.385742188 477.614257812 700 450 700 c 4
 422.385742188 700 400 722.385742188 400 750 c 4
400 650 m 4
 400 677.614257812 422.385742188 700 450 700 c 4
 477.614257812 700 500 677.614257812 500 650 c 4
 500 622.385742188 477.614257812 600 450 600 c 4
 422.385742188 600 400 622.385742188 400 650 c 4
EndSplineSet
Validated: 524293
EndChar

StartChar: o
Encoding: 111 111 4
Width: 700
VWidth: 0
Flags: HW
LayerCount: 2
Fore
SplineSet
100 50 m 4
 100 77.6142578125 122.385742188 100 150 100 c 4
 177.614257812 100 200 77.6142578125 200 50 c 4
 200 22.3857421875 177.614257812 0 150 0 c 4
 122.385742188 0 100 22.3857421875 100 50 c 4
200 50 m 4
 200 77.6142578125 222.385742188 100 250 100 c 4
 277.614257812 100 300 77.6142578125 300 50 c 4
 300 22.3857421875 277.614257812 0 250 0 c 4
 222.385742188 0 200 22.3857421875 200 50 c 4
300 50 m 4
 300 77.6142578125 322.385742188 100 350 100 c 4
 377.614257812 100 400 77.6142578125 400 50 c 4
 400 22.3857421875 377.614257812 0 350 0 c 4
 322.385742188 0 300 22.3857421875 300 50 c 4
400 50 m 4
 400 77.6142578125 422.385742188 100 450 100 c 4
 477.614257812 100 500 77.6142578125 500 50 c 4
 500 22.3857421875 477.614257812 0 450 0 c 4
 422.385742188 0 400 22.3857421875 400 50 c 4
500 150 m 4
 500 177.614257812 522.385742188 200 550 200 c 4
 577.614257812 200 600 177.614257812 600 150 c 4
 600 122.385742188 577.614257812 100 550 100 c 4
 522.385742188 100 500 122.385742188 500 150 c 4
300 150 m 4
 300 177.614257812 322.385742188 200 350 200 c 4
 377.614257812 200 400 177.614257812 400 150 c 4
 400 122.385742188 377.614257812 100 350 100 c 4
 322.385742188 100 300 122.385742188 300 150 c 4
200 150 m 4
 200 177.614257812 222.385742188 200 250 200 c 4
 277.614257812 200 300 177.614257812 300 150 c 4
 300 122.385742188 277.614257812 100 250 100 c 4
 222.385742188 100 200 122.385742188 200 150 c 4
100 150 m 4
 100 177.614257812 122.385742188 200 150 200 c 4
 177.614257812 200 200 177.614257812 200 150 c 4
 200 122.385742188 177.614257812 100 150 100 c 4
 122.385742188 100 100 122.385742188 100 150 c 4
0 150 m 4
 0 177.614257812 22.3857421875 200 50 200 c 4
 77.6142578125 200 100 177.614257812 100 150 c 4
 100 122.385742188 77.6142578125 100 50 100 c 4
 22.3857421875 100 0 122.385742188 0 150 c 4
0 250 m 4
 0 277.614257812 22.3857421875 300 50 300 c 4
 77.6142578125 300 100 277.614257812 100 250 c 4
 100 222.385742188 77.6142578125 200 50 200 c 4
 22.3857421875 200 0 222.385742188 0 250 c 4
100 250 m 4
 100 277.614257812 122.385742188 300 150 300 c 4
 177.614257812 300 200 277.614257812 200 250 c 4
 200 222.385742188 177.614257812 200 150 200 c 4
 122.385742188 200 100 222.385742188 100 250 c 4
400 250 m 4
 400 277.614257812 422.385742188 300 450 300 c 4
 477.614257812 300 500 277.614257812 500 250 c 4
 500 222.385742188 477.614257812 200 450 200 c 4
 422.385742188 200 400 222.385742188 400 250 c 4
400 150 m 4
 400 177.614257812 422.385742188 200 450 200 c 4
 477.614257812 200 500 177.614257812 500 150 c 4
 500 122.385742188 477.614257812 100 450 100 c 4
 422.385742188 100 400 122.385742188 400 150 c 4
500 250 m 4
 500 277.614257812 522.385742188 300 550 300 c 4
 577.614257812 300 600 277.614257812 600 250 c 4
 600 222.385742188 577.614257812 200 550 200 c 4
 522.385742188 200 500 222.385742188 500 250 c 4
500 350 m 4
 500 377.614257812 522.385742188 400 550 400 c 4
 577.614257812 400 600 377.614257812 600 350 c 4
 600 322.385742188 577.614257812 300 550 300 c 4
 522.385742188 300 500 322.385742188 500 350 c 4
400 350 m 4
 400 377.614257812 422.385742188 400 450 400 c 4
 477.614257812 400 500 377.614257812 500 350 c 4
 500 322.385742188 477.614257812 300 450 300 c 4
 422.385742188 300 400 322.385742188 400 350 c 4
400 450 m 4
 400 477.614257812 422.385742188 500 450 500 c 4
 477.614257812 500 500 477.614257812 500 450 c 4
 500 422.385742188 477.614257812 400 450 400 c 4
 422.385742188 400 400 422.385742188 400 450 c 4
500 450 m 4
 500 477.614257812 522.385742188 500 550 500 c 4
 577.614257812 500 600 477.614257812 600 450 c 4
 600 422.385742188 577.614257812 400 550 400 c 4
 522.385742188 400 500 422.385742188 500 450 c 4
500 550 m 4
 500 577.614257812 522.385742188 600 550 600 c 4
 577.614257812 600 600 577.614257812 600 550 c 4
 600 522.385742188 577.614257812 500 550 500 c 4
 522.385742188 500 500 522.385742188 500 550 c 4
400 550 m 4
 400 577.614257812 422.385742188 600 450 600 c 4
 477.614257812 600 500 577.614257812 500 550 c 4
 500 522.385742188 477.614257812 500 450 500 c 4
 422.385742188 500 400 522.385742188 400 550 c 4
400 650 m 4
 400 677.614257812 422.385742188 700 450 700 c 4
 477.614257812 700 500 677.614257812 500 650 c 4
 500 622.385742188 477.614257812 600 450 600 c 4
 422.385742188 600 400 622.385742188 400 650 c 4
0 650 m 4
 0 677.614257812 22.3857421875 700 50 700 c 4
 77.6142578125 700 100 677.614257812 100 650 c 4
 100 622.385742188 77.6142578125 600 50 600 c 4
 22.3857421875 600 0 622.385742188 0 650 c 4
100 650 m 4
 100 677.614257812 122.385742188 700 150 700 c 4
 177.614257812 700 200 677.614257812 200 650 c 4
 200 622.385742188 177.614257812 600 150 600 c 4
 122.385742188 600 100 622.385742188 100 650 c 4
100 550 m 4
 100 577.614257812 122.385742188 600 150 600 c 4
 177.614257812 600 200 577.614257812 200 550 c 4
 200 522.385742188 177.614257812 500 150 500 c 4
 122.385742188 500 100 522.385742188 100 550 c 4
0 550 m 4
 0 577.614257812 22.3857421875 600 50 600 c 4
 77.6142578125 600 100 577.614257812 100 550 c 4
 100 522.385742188 77.6142578125 500 50 500 c 4
 22.3857421875 500 0 522.385742188 0 550 c 4
0 450 m 4
 0 477.614257812 22.3857421875 500 50 500 c 4
 77.6142578125 500 100 477.614257812 100 450 c 4
 100 422.385742188 77.6142578125 400 50 400 c 4
 22.3857421875 400 0 422.385742188 0 450 c 4
100 450 m 4
 100 477.614257812 122.385742188 500 150 500 c 4
 177.614257812 500 200 477.614257812 200 450 c 4
 200 422.385742188 177.614257812 400 150 400 c 4
 122.385742188 400 100 422.385742188 100 450 c 4
100 350 m 4
 100 377.614257812 122.385742188 400 150 400 c 4
 177.614257812 400 200 377.614257812 200 350 c 4
 200 322.385742188 177.614257812 300 150 300 c 4
 122.385742188 300 100 322.385742188 100 350 c 4
0 350 m 4
 0 377.614257812 22.3857421875 400 50 400 c 4
 77.6142578125 400 100 377.614257812 100 350 c 4
 100 322.385742188 77.6142578125 300 50 300 c 4
 22.3857421875 300 0 322.385742188 0 350 c 4
200 650 m 4
 200 677.614257812 222.385742188 700 250 700 c 4
 277.614257812 700 300 677.614257812 300 650 c 4
 300 622.385742188 277.614257812 600 250 600 c 4
 222.385742188 600 200 622.385742188 200 650 c 4
300 650 m 4
 300 677.614257812 322.385742188 700 350 700 c 4
 377.614257812 700 400 677.614257812 400 650 c 4
 400 622.385742188 377.614257812 600 350 600 c 4
 322.385742188 600 300 622.385742188 300 650 c 4
500 650 m 4
 500 677.614257812 522.385742188 700 550 700 c 4
 577.614257812 700 600 677.614257812 600 650 c 4
 600 622.385742188 577.614257812 600 550 600 c 4
 522.385742188 600 500 622.385742188 500 650 c 4
400 750 m 4
 400 777.614257812 422.385742188 800 450 800 c 4
 477.614257812 800 500 777.614257812 500 750 c 4
 500 722.385742188 477.614257812 700 450 700 c 4
 422.385742188 700 400 722.385742188 400 750 c 4
300 750 m 4
 300 777.614257812 322.385742188 800 350 800 c 4
 377.614257812 800 400 777.614257812 400 750 c 4
 400 722.385742188 377.614257812 700 350 700 c 4
 322.385742188 700 300 722.385742188 300 750 c 4
200 750 m 4
 200 777.614257812 222.385742188 800 250 800 c 4
 277.614257812 800 300 777.614257812 300 750 c 4
 300 722.385742188 277.614257812 700 250 700 c 4
 222.385742188 700 200 722.385742188 200 750 c 4
100 750 m 4
 100 777.614257812 122.385742188 800 150 800 c 4
 177.614257812 800 200 777.614257812 200 750 c 4
 200 722.385742188 177.614257812 700 150 700 c 4
 122.385742188 700 100 722.385742188 100 750 c 4
EndSplineSet
Validated: 524293
EndChar

StartChar: a
Encoding: 97 97 5
Width: 700
VWidth: 0
Flags: HW
LayerCount: 2
Fore
SplineSet
500 50 m 0
 500 77.6142578125 522.385742188 100 550 100 c 0
 577.614257812 100 600 77.6142578125 600 50 c 0
 600 22.3857421875 577.614257812 0 550 0 c 0
 522.385742188 0 500 22.3857421875 500 50 c 0
300 50 m 0
 300 77.6142578125 322.385742188 100 350 100 c 0
 377.614257812 100 400 77.6142578125 400 50 c 0
 400 22.3857421875 377.614257812 0 350 0 c 0
 322.385742188 0 300 22.3857421875 300 50 c 0
200 50 m 0
 200 77.6142578125 222.385742188 100 250 100 c 0
 277.614257812 100 300 77.6142578125 300 50 c 0
 300 22.3857421875 277.614257812 0 250 0 c 0
 222.385742188 0 200 22.3857421875 200 50 c 0
400 50 m 0
 400 77.6142578125 422.385742188 100 450 100 c 0
 477.614257812 100 500 77.6142578125 500 50 c 0
 500 22.3857421875 477.614257812 0 450 0 c 0
 422.385742188 0 400 22.3857421875 400 50 c 0
100 50 m 0
 100 77.6142578125 122.385742188 100 150 100 c 0
 177.614257812 100 200 77.6142578125 200 50 c 0
 200 22.3857421875 177.614257812 0 150 0 c 0
 122.385742188 0 100 22.3857421875 100 50 c 0
0 150 m 0
 0 177.614257812 22.3857421875 200 50 200 c 0
 77.6142578125 200 100 177.614257812 100 150 c 0
 100 122.385742188 77.6142578125 100 50 100 c 0
 22.3857421875 100 0 122.385742188 0 150 c 0
100 150 m 0
 100 177.614257812 122.385742188 200 150 200 c 0
 177.614257812 200 200 177.614257812 200 150 c 0
 200 122.385742188 177.614257812 100 150 100 c 0
 122.385742188 100 100 122.385742188 100 150 c 0
200 150 m 0
 200 177.614257812 222.385742188 200 250 200 c 0
 277.614257812 200 300 177.614257812 300 150 c 0
 300 122.385742188 277.614257812 100 250 100 c 0
 222.385742188 100 200 122.385742188 200 150 c 0
300 150 m 0
 300 177.614257812 322.385742188 200 350 200 c 0
 377.614257812 200 400 177.614257812 400 150 c 0
 400 122.385742188 377.614257812 100 350 100 c 0
 322.385742188 100 300 122.385742188 300 150 c 0
400 150 m 0
 400 177.614257812 422.385742188 200 450 200 c 0
 477.614257812 200 500 177.614257812 500 150 c 0
 500 122.385742188 477.614257812 100 450 100 c 0
 422.385742188 100 400 122.385742188 400 150 c 0
500 150 m 0
 500 177.614257812 522.385742188 200 550 200 c 0
 577.614257812 200 600 177.614257812 600 150 c 0
 600 122.385742188 577.614257812 100 550 100 c 0
 522.385742188 100 500 122.385742188 500 150 c 0
500 250 m 0
 500 277.614257812 522.385742188 300 550 300 c 0
 577.614257812 300 600 277.614257812 600 250 c 0
 600 222.385742188 577.614257812 200 550 200 c 0
 522.385742188 200 500 222.385742188 500 250 c 0
500 350 m 0
 500 377.614257812 522.385742188 400 550 400 c 0
 577.614257812 400 600 377.614257812 600 350 c 0
 600 322.385742188 577.614257812 300 550 300 c 0
 522.385742188 300 500 322.385742188 500 350 c 0
400 350 m 0
 400 377.614257812 422.385742188 400 450 400 c 0
 477.614257812 400 500 377.614257812 500 350 c 0
 500 322.385742188 477.614257812 300 450 300 c 0
 422.385742188 300 400 322.385742188 400 350 c 0
400 250 m 0
 400 277.614257812 422.385742188 300 450 300 c 0
 477.614257812 300 500 277.614257812 500 250 c 0
 500 222.385742188 477.614257812 200 450 200 c 0
 422.385742188 200 400 222.385742188 400 250 c 0
100 250 m 0
 100 277.614257812 122.385742188 300 150 300 c 0
 177.614257812 300 200 277.614257812 200 250 c 0
 200 222.385742188 177.614257812 200 150 200 c 0
 122.385742188 200 100 222.385742188 100 250 c 0
0 250 m 0
 0 277.614257812 22.3857421875 300 50 300 c 0
 77.6142578125 300 100 277.614257812 100 250 c 0
 100 222.385742188 77.6142578125 200 50 200 c 0
 22.3857421875 200 0 222.385742188 0 250 c 0
0 350 m 0
 0 377.614257812 22.3857421875 400 50 400 c 0
 77.6142578125 400 100 377.614257812 100 350 c 0
 100 322.385742188 77.6142578125 300 50 300 c 0
 22.3857421875 300 0 322.385742188 0 350 c 0
100 350 m 0
 100 377.614257812 122.385742188 400 150 400 c 0
 177.614257812 400 200 377.614257812 200 350 c 0
 200 322.385742188 177.614257812 300 150 300 c 0
 122.385742188 300 100 322.385742188 100 350 c 0
200 350 m 0
 200 377.614257812 222.385742188 400 250 400 c 0
 277.614257812 400 300 377.614257812 300 350 c 0
 300 322.385742188 277.614257812 300 250 300 c 0
 222.385742188 300 200 322.385742188 200 350 c 0
300 350 m 0
 300 377.614257812 322.385742188 400 350 400 c 0
 377.614257812 400 400 377.614257812 400 350 c 0
 400 322.385742188 377.614257812 300 350 300 c 0
 322.385742188 300 300 322.385742188 300 350 c 0
500 450 m 0
 500 477.614257812 522.385742188 500 550 500 c 0
 577.614257812 500 600 477.614257812 600 450 c 0
 600 422.385742188 577.614257812 400 550 400 c 0
 522.385742188 400 500 422.385742188 500 450 c 0
400 450 m 0
 400 477.614257812 422.385742188 500 450 500 c 0
 477.614257812 500 500 477.614257812 500 450 c 0
 500 422.385742188 477.614257812 400 450 400 c 0
 422.385742188 400 400 422.385742188 400 450 c 0
300 450 m 0
 300 477.614257812 322.385742188 500 350 500 c 0
 377.614257812 500 400 477.614257812 400 450 c 0
 400 422.385742188 377.614257812 400 350 400 c 0
 322.385742188 400 300 422.385742188 300 450 c 0
200 450 m 0
 200 477.614257812 222.385742188 500 250 500 c 0
 277.614257812 500 300 477.614257812 300 450 c 0
 300 422.385742188 277.614257812 400 250 400 c 0
 222.385742188 400 200 422.385742188 200 450 c 0
100 450 m 0
 100 477.614257812 122.385742188 500 150 500 c 0
 177.614257812 500 200 477.614257812 200 450 c 0
 200 422.385742188 177.614257812 400 150 400 c 0
 122.385742188 400 100 422.385742188 100 450 c 0
400 550 m 0
 400 577.614257812 422.385742188 600 450 600 c 0
 477.614257812 600 500 577.614257812 500 550 c 0
 500 522.385742188 477.614257812 500 450 500 c 0
 422.385742188 500 400 522.385742188 400 550 c 0
500 550 m 0
 500 577.614257812 522.385742188 600 550 600 c 0
 577.614257812 600 600 577.614257812 600 550 c 4
 600 522.385742188 577.614257812 500 550 500 c 0
 522.385742188 500 500 522.385742188 500 550 c 0
500 650 m 0
 500 677.614257812 522.385742188 700 550 700 c 0
 577.614257812 700 600 677.614257812 600 650 c 0
 600 622.385742188 577.614257812 600 550 600 c 0
 522.385742188 600 500 622.385742188 500 650 c 0
400 650 m 0
 400 677.614257812 422.385742188 700 450 700 c 0
 477.614257812 700 500 677.614257812 500 650 c 0
 500 622.385742188 477.614257812 600 450 600 c 0
 422.385742188 600 400 622.385742188 400 650 c 0
300 650 m 0
 300 677.614257812 322.385742188 700 350 700 c 0
 377.614257812 700 400 677.614257812 400 650 c 0
 400 622.385742188 377.614257812 600 350 600 c 0
 322.385742188 600 300 622.385742188 300 650 c 0
200 650 m 0
 200 677.614257812 222.385742188 700 250 700 c 0
 277.614257812 700 300 677.614257812 300 650 c 0
 300 622.385742188 277.614257812 600 250 600 c 0
 222.385742188 600 200 622.385742188 200 650 c 0
100 650 m 0
 100 677.614257812 122.385742188 700 150 700 c 0
 177.614257812 700 200 677.614257812 200 650 c 0
 200 622.385742188 177.614257812 600 150 600 c 0
 122.385742188 600 100 622.385742188 100 650 c 0
0 650 m 0
 0 677.614257812 22.3857421875 700 50 700 c 0
 77.6142578125 700 100 677.614257812 100 650 c 0
 100 622.385742188 77.6142578125 600 50 600 c 0
 22.3857421875 600 0 622.385742188 0 650 c 0
100 750 m 0
 100 777.614257812 122.385742188 800 150 800 c 0
 177.614257812 800 200 777.614257812 200 750 c 0
 200 722.385742188 177.614257812 700 150 700 c 0
 122.385742188 700 100 722.385742188 100 750 c 0
200 750 m 0
 200 777.614257812 222.385742188 800 250 800 c 0
 277.614257812 800 300 777.614257812 300 750 c 0
 300 722.385742188 277.614257812 700 250 700 c 0
 222.385742188 700 200 722.385742188 200 750 c 0
300 750 m 0
 300 777.614257812 322.385742188 800 350 800 c 0
 377.614257812 800 400 777.614257812 400 750 c 0
 400 722.385742188 377.614257812 700 350 700 c 0
 322.385742188 700 300 722.385742188 300 750 c 0
400 750 m 0
 400 777.614257812 422.385742188 800 450 800 c 0
 477.614257812 800 500 777.614257812 500 750 c 0
 500 722.385742188 477.614257812 700 450 700 c 0
 422.385742188 700 400 722.385742188 400 750 c 0
EndSplineSet
Validated: 524293
EndChar

StartChar: d
Encoding: 100 100 6
Width: 700
VWidth: 0
Flags: HW
LayerCount: 2
Fore
SplineSet
100 50 m 0
 100 77.6142578125 122.385742188 100 150 100 c 0
 177.614257812 100 200 77.6142578125 200 50 c 0
 200 22.3857421875 177.614257812 0 150 0 c 0
 122.385742188 0 100 22.3857421875 100 50 c 0
200 50 m 0
 200 77.6142578125 222.385742188 100 250 100 c 0
 277.614257812 100 300 77.6142578125 300 50 c 0
 300 22.3857421875 277.614257812 0 250 0 c 0
 222.385742188 0 200 22.3857421875 200 50 c 0
300 50 m 0
 300 77.6142578125 322.385742188 100 350 100 c 0
 377.614257812 100 400 77.6142578125 400 50 c 0
 400 22.3857421875 377.614257812 0 350 0 c 0
 322.385742188 0 300 22.3857421875 300 50 c 0
400 50 m 0
 400 77.6142578125 422.385742188 100 450 100 c 0
 477.614257812 100 500 77.6142578125 500 50 c 0
 500 22.3857421875 477.614257812 0 450 0 c 0
 422.385742188 0 400 22.3857421875 400 50 c 0
500 150 m 0
 500 177.614257812 522.385742188 200 550 200 c 0
 577.614257812 200 600 177.614257812 600 150 c 0
 600 122.385742188 577.614257812 100 550 100 c 0
 522.385742188 100 500 122.385742188 500 150 c 0
500 50 m 0
 500 77.6142578125 522.385742188 100 550 100 c 0
 577.614257812 100 600 77.6142578125 600 50 c 0
 600 22.3857421875 577.614257812 0 550 0 c 0
 522.385742188 0 500 22.3857421875 500 50 c 0
300 150 m 0
 300 177.614257812 322.385742188 200 350 200 c 0
 377.614257812 200 400 177.614257812 400 150 c 0
 400 122.385742188 377.614257812 100 350 100 c 0
 322.385742188 100 300 122.385742188 300 150 c 0
200 150 m 0
 200 177.614257812 222.385742188 200 250 200 c 0
 277.614257812 200 300 177.614257812 300 150 c 0
 300 122.385742188 277.614257812 100 250 100 c 0
 222.385742188 100 200 122.385742188 200 150 c 0
100 150 m 0
 100 177.614257812 122.385742188 200 150 200 c 0
 177.614257812 200 200 177.614257812 200 150 c 0
 200 122.385742188 177.614257812 100 150 100 c 0
 122.385742188 100 100 122.385742188 100 150 c 0
0 150 m 0
 0 177.614257812 22.3857421875 200 50 200 c 0
 77.6142578125 200 100 177.614257812 100 150 c 0
 100 122.385742188 77.6142578125 100 50 100 c 0
 22.3857421875 100 0 122.385742188 0 150 c 0
0 250 m 0
 0 277.614257812 22.3857421875 300 50 300 c 0
 77.6142578125 300 100 277.614257812 100 250 c 0
 100 222.385742188 77.6142578125 200 50 200 c 0
 22.3857421875 200 0 222.385742188 0 250 c 0
100 250 m 0
 100 277.614257812 122.385742188 300 150 300 c 0
 177.614257812 300 200 277.614257812 200 250 c 0
 200 222.385742188 177.614257812 200 150 200 c 0
 122.385742188 200 100 222.385742188 100 250 c 0
400 250 m 0
 400 277.614257812 422.385742188 300 450 300 c 0
 477.614257812 300 500 277.614257812 500 250 c 0
 500 222.385742188 477.614257812 200 450 200 c 0
 422.385742188 200 400 222.385742188 400 250 c 0
400 150 m 0
 400 177.614257812 422.385742188 200 450 200 c 0
 477.614257812 200 500 177.614257812 500 150 c 0
 500 122.385742188 477.614257812 100 450 100 c 0
 422.385742188 100 400 122.385742188 400 150 c 0
500 250 m 0
 500 277.614257812 522.385742188 300 550 300 c 0
 577.614257812 300 600 277.614257812 600 250 c 0
 600 222.385742188 577.614257812 200 550 200 c 0
 522.385742188 200 500 222.385742188 500 250 c 0
500 350 m 0
 500 377.614257812 522.385742188 400 550 400 c 0
 577.614257812 400 600 377.614257812 600 350 c 0
 600 322.385742188 577.614257812 300 550 300 c 0
 522.385742188 300 500 322.385742188 500 350 c 0
400 350 m 0
 400 377.614257812 422.385742188 400 450 400 c 0
 477.614257812 400 500 377.614257812 500 350 c 0
 500 322.385742188 477.614257812 300 450 300 c 0
 422.385742188 300 400 322.385742188 400 350 c 0
400 450 m 0
 400 477.614257812 422.385742188 500 450 500 c 0
 477.614257812 500 500 477.614257812 500 450 c 0
 500 422.385742188 477.614257812 400 450 400 c 0
 422.385742188 400 400 422.385742188 400 450 c 0
500 450 m 0
 500 477.614257812 522.385742188 500 550 500 c 0
 577.614257812 500 600 477.614257812 600 450 c 0
 600 422.385742188 577.614257812 400 550 400 c 0
 522.385742188 400 500 422.385742188 500 450 c 0
500 550 m 0
 500 577.614257812 522.385742188 600 550 600 c 0
 577.614257812 600 600 577.614257812 600 550 c 0
 600 522.385742188 577.614257812 500 550 500 c 0
 522.385742188 500 500 522.385742188 500 550 c 0
400 550 m 0
 400 577.614257812 422.385742188 600 450 600 c 0
 477.614257812 600 500 577.614257812 500 550 c 0
 500 522.385742188 477.614257812 500 450 500 c 0
 422.385742188 500 400 522.385742188 400 550 c 0
400 650 m 0
 400 677.614257812 422.385742188 700 450 700 c 0
 477.614257812 700 500 677.614257812 500 650 c 0
 500 622.385742188 477.614257812 600 450 600 c 0
 422.385742188 600 400 622.385742188 400 650 c 0
0 650 m 0
 0 677.614257812 22.3857421875 700 50 700 c 0
 77.6142578125 700 100 677.614257812 100 650 c 0
 100 622.385742188 77.6142578125 600 50 600 c 0
 22.3857421875 600 0 622.385742188 0 650 c 0
100 650 m 0
 100 677.614257812 122.385742188 700 150 700 c 0
 177.614257812 700 200 677.614257812 200 650 c 0
 200 622.385742188 177.614257812 600 150 600 c 0
 122.385742188 600 100 622.385742188 100 650 c 0
100 550 m 0
 100 577.614257812 122.385742188 600 150 600 c 0
 177.614257812 600 200 577.614257812 200 550 c 0
 200 522.385742188 177.614257812 500 150 500 c 0
 122.385742188 500 100 522.385742188 100 550 c 0
0 550 m 0
 0 577.614257812 22.3857421875 600 50 600 c 0
 77.6142578125 600 100 577.614257812 100 550 c 0
 100 522.385742188 77.6142578125 500 50 500 c 0
 22.3857421875 500 0 522.385742188 0 550 c 0
0 450 m 0
 0 477.614257812 22.3857421875 500 50 500 c 0
 77.6142578125 500 100 477.614257812 100 450 c 0
 100 422.385742188 77.6142578125 400 50 400 c 0
 22.3857421875 400 0 422.385742188 0 450 c 0
100 450 m 0
 100 477.614257812 122.385742188 500 150 500 c 0
 177.614257812 500 200 477.614257812 200 450 c 0
 200 422.385742188 177.614257812 400 150 400 c 0
 122.385742188 400 100 422.385742188 100 450 c 0
100 350 m 0
 100 377.614257812 122.385742188 400 150 400 c 0
 177.614257812 400 200 377.614257812 200 350 c 0
 200 322.385742188 177.614257812 300 150 300 c 0
 122.385742188 300 100 322.385742188 100 350 c 0
0 350 m 0
 0 377.614257812 22.3857421875 400 50 400 c 0
 77.6142578125 400 100 377.614257812 100 350 c 0
 100 322.385742188 77.6142578125 300 50 300 c 0
 22.3857421875 300 0 322.385742188 0 350 c 0
200 650 m 0
 200 677.614257812 222.385742188 700 250 700 c 0
 277.614257812 700 300 677.614257812 300 650 c 0
 300 622.385742188 277.614257812 600 250 600 c 0
 222.385742188 600 200 622.385742188 200 650 c 0
300 650 m 0
 300 677.614257812 322.385742188 700 350 700 c 0
 377.614257812 700 400 677.614257812 400 650 c 0
 400 622.385742188 377.614257812 600 350 600 c 0
 322.385742188 600 300 622.385742188 300 650 c 0
500 650 m 0
 500 677.614257812 522.385742188 700 550 700 c 0
 577.614257812 700 600 677.614257812 600 650 c 0
 600 622.385742188 577.614257812 600 550 600 c 0
 522.385742188 600 500 622.385742188 500 650 c 0
500 850 m 0
 500 877.614257812 522.385742188 900 550 900 c 0
 577.614257812 900 600 877.614257812 600 850 c 0
 600 822.385742188 577.614257812 800 550 800 c 0
 522.385742188 800 500 822.385742188 500 850 c 0
400 850 m 0
 400 877.614257812 422.385742188 900 450 900 c 0
 477.614257812 900 500 877.614257812 500 850 c 0
 500 822.385742188 477.614257812 800 450 800 c 0
 422.385742188 800 400 822.385742188 400 850 c 0
400 950 m 0
 400 977.614257812 422.385742188 1000 450 1000 c 0
 477.614257812 1000 500 977.614257812 500 950 c 0
 500 922.385742188 477.614257812 900 450 900 c 0
 422.385742188 900 400 922.385742188 400 950 c 0
500 950 m 0
 500 977.614257812 522.385742188 1000 550 1000 c 0
 577.614257812 1000 600 977.614257812 600 950 c 0
 600 922.385742188 577.614257812 900 550 900 c 0
 522.385742188 900 500 922.385742188 500 950 c 0
500 750 m 0
 500 777.614257812 522.385742188 800 550 800 c 0
 577.614257812 800 600 777.614257812 600 750 c 0
 600 722.385742188 577.614257812 700 550 700 c 0
 522.385742188 700 500 722.385742188 500 750 c 0
400 750 m 0
 400 777.614257812 422.385742188 800 450 800 c 0
 477.614257812 800 500 777.614257812 500 750 c 0
 500 722.385742188 477.614257812 700 450 700 c 0
 422.385742188 700 400 722.385742188 400 750 c 0
300 750 m 0
 300 777.614257812 322.385742188 800 350 800 c 0
 377.614257812 800 400 777.614257812 400 750 c 0
 400 722.385742188 377.614257812 700 350 700 c 0
 322.385742188 700 300 722.385742188 300 750 c 0
200 750 m 0
 200 777.614257812 222.385742188 800 250 800 c 0
 277.614257812 800 300 777.614257812 300 750 c 0
 300 722.385742188 277.614257812 700 250 700 c 0
 222.385742188 700 200 722.385742188 200 750 c 0
100 750 m 0
 100 777.614257812 122.385742188 800 150 800 c 0
 177.614257812 800 200 777.614257812 200 750 c 0
 200 722.385742188 177.614257812 700 150 700 c 0
 122.385742188 700 100 722.385742188 100 750 c 0
EndSplineSet
Validated: 524293
EndChar

StartChar: w
Encoding: 119 119 7
Width: 900
VWidth: 0
Flags: HW
LayerCount: 2
Fore
SplineSet
200 50 m 4
 200 77.6142578125 222.385742188 100 250 100 c 4
 277.614257812 100 300 77.6142578125 300 50 c 4
 300 22.3857421875 277.614257812 0 250 0 c 4
 222.385742188 0 200 22.3857421875 200 50 c 4
100 50 m 4
 100 77.6142578125 122.385742188 100 150 100 c 4
 177.614257812 100 200 77.6142578125 200 50 c 4
 200 22.3857421875 177.614257812 0 150 0 c 4
 122.385742188 0 100 22.3857421875 100 50 c 4
600 50 m 4
 600 77.6142578125 622.385742188 100 650 100 c 4
 677.614257812 100 700 77.6142578125 700 50 c 4
 700 22.3857421875 677.614257812 0 650 0 c 4
 622.385742188 0 600 22.3857421875 600 50 c 4
500 50 m 4
 500 77.6142578125 522.385742188 100 550 100 c 4
 577.614257812 100 600 77.6142578125 600 50 c 4
 600 22.3857421875 577.614257812 0 550 0 c 4
 522.385742188 0 500 22.3857421875 500 50 c 4
600 150 m 4
 600 177.614257812 622.385742188 200 650 200 c 4
 677.614257812 200 700 177.614257812 700 150 c 4
 700 122.385742188 677.614257812 100 650 100 c 4
 622.385742188 100 600 122.385742188 600 150 c 4
500 150 m 4
 500 177.614257812 522.385742188 200 550 200 c 4
 577.614257812 200 600 177.614257812 600 150 c 4
 600 122.385742188 577.614257812 100 550 100 c 4
 522.385742188 100 500 122.385742188 500 150 c 4
400 150 m 4
 400 177.614257812 422.385742188 200 450 200 c 4
 477.614257812 200 500 177.614257812 500 150 c 4
 500 122.385742188 477.614257812 100 450 100 c 4
 422.385742188 100 400 122.385742188 400 150 c 4
300 150 m 4
 300 177.614257812 322.385742188 200 350 200 c 4
 377.614257812 200 400 177.614257812 400 150 c 4
 400 122.385742188 377.614257812 100 350 100 c 4
 322.385742188 100 300 122.385742188 300 150 c 4
200 150 m 4
 200 177.614257812 222.385742188 200 250 200 c 4
 277.614257812 200 300 177.614257812 300 150 c 4
 300 122.385742188 277.614257812 100 250 100 c 4
 222.385742188 100 200 122.385742188 200 150 c 4
100 150 m 4
 100 177.614257812 122.385742188 200 150 200 c 4
 177.614257812 200 200 177.614257812 200 150 c 4
 200 122.385742188 177.614257812 100 150 100 c 4
 122.385742188 100 100 122.385742188 100 150 c 4
0 250 m 4
 0 277.614257812 22.3857421875 300 50 300 c 4
 77.6142578125 300 100 277.614257812 100 250 c 4
 100 222.385742188 77.6142578125 200 50 200 c 4
 22.3857421875 200 0 222.385742188 0 250 c 4
0 350 m 4
 0 377.614257812 22.3857421875 400 50 400 c 4
 77.6142578125 400 100 377.614257812 100 350 c 4
 100 322.385742188 77.6142578125 300 50 300 c 4
 22.3857421875 300 0 322.385742188 0 350 c 4
0 450 m 4
 0 477.614257812 22.3857421875 500 50 500 c 4
 77.6142578125 500 100 477.614257812 100 450 c 4
 100 422.385742188 77.6142578125 400 50 400 c 4
 22.3857421875 400 0 422.385742188 0 450 c 4
0 550 m 4
 0 577.614257812 22.3857421875 600 50 600 c 4
 77.6142578125 600 100 577.614257812 100 550 c 4
 100 522.385742188 77.6142578125 500 50 500 c 4
 22.3857421875 500 0 522.385742188 0 550 c 4
0 650 m 4
 0 677.614257812 22.3857421875 700 50 700 c 4
 77.6142578125 700 100 677.614257812 100 650 c 4
 100 622.385742188 77.6142578125 600 50 600 c 4
 22.3857421875 600 0 622.385742188 0 650 c 4
0 750 m 4
 0 777.614257812 22.3857421875 800 50 800 c 4
 77.6142578125 800 100 777.614257812 100 750 c 4
 100 722.385742188 77.6142578125 700 50 700 c 4
 22.3857421875 700 0 722.385742188 0 750 c 4
100 750 m 4
 100 777.614257812 122.385742188 800 150 800 c 4
 177.614257812 800 200 777.614257812 200 750 c 4
 200 722.385742188 177.614257812 700 150 700 c 4
 122.385742188 700 100 722.385742188 100 750 c 4
100 650 m 4
 100 677.614257812 122.385742188 700 150 700 c 4
 177.614257812 700 200 677.614257812 200 650 c 4
 200 622.385742188 177.614257812 600 150 600 c 4
 122.385742188 600 100 622.385742188 100 650 c 4
100 550 m 4
 100 577.614257812 122.385742188 600 150 600 c 4
 177.614257812 600 200 577.614257812 200 550 c 4
 200 522.385742188 177.614257812 500 150 500 c 4
 122.385742188 500 100 522.385742188 100 550 c 4
100 450 m 4
 100 477.614257812 122.385742188 500 150 500 c 4
 177.614257812 500 200 477.614257812 200 450 c 4
 200 422.385742188 177.614257812 400 150 400 c 4
 122.385742188 400 100 422.385742188 100 450 c 4
100 350 m 4
 100 377.614257812 122.385742188 400 150 400 c 4
 177.614257812 400 200 377.614257812 200 350 c 4
 200 322.385742188 177.614257812 300 150 300 c 4
 122.385742188 300 100 322.385742188 100 350 c 4
100 250 m 4
 100 277.614257812 122.385742188 300 150 300 c 4
 177.614257812 300 200 277.614257812 200 250 c 4
 200 222.385742188 177.614257812 200 150 200 c 4
 122.385742188 200 100 222.385742188 100 250 c 4
300 250 m 4
 300 277.614257812 322.385742188 300 350 300 c 4
 377.614257812 300 400 277.614257812 400 250 c 4
 400 222.385742188 377.614257812 200 350 200 c 4
 322.385742188 200 300 222.385742188 300 250 c 4
300 350 m 4
 300 377.614257812 322.385742188 400 350 400 c 4
 377.614257812 400 400 377.614257812 400 350 c 4
 400 322.385742188 377.614257812 300 350 300 c 4
 322.385742188 300 300 322.385742188 300 350 c 4
300 450 m 4
 300 477.614257812 322.385742188 500 350 500 c 4
 377.614257812 500 400 477.614257812 400 450 c 4
 400 422.385742188 377.614257812 400 350 400 c 4
 322.385742188 400 300 422.385742188 300 450 c 4
300 550 m 4
 300 577.614257812 322.385742188 600 350 600 c 4
 377.614257812 600 400 577.614257812 400 550 c 4
 400 522.385742188 377.614257812 500 350 500 c 4
 322.385742188 500 300 522.385742188 300 550 c 4
300 650 m 4
 300 677.614257812 322.385742188 700 350 700 c 4
 377.614257812 700 400 677.614257812 400 650 c 4
 400 622.385742188 377.614257812 600 350 600 c 4
 322.385742188 600 300 622.385742188 300 650 c 4
300 750 m 4
 300 777.614257812 322.385742188 800 350 800 c 4
 377.614257812 800 400 777.614257812 400 750 c 4
 400 722.385742188 377.614257812 700 350 700 c 4
 322.385742188 700 300 722.385742188 300 750 c 4
400 750 m 4
 400 777.614257812 422.385742188 800 450 800 c 4
 477.614257812 800 500 777.614257812 500 750 c 4
 500 722.385742188 477.614257812 700 450 700 c 4
 422.385742188 700 400 722.385742188 400 750 c 4
400 650 m 4
 400 677.614257812 422.385742188 700 450 700 c 4
 477.614257812 700 500 677.614257812 500 650 c 4
 500 622.385742188 477.614257812 600 450 600 c 4
 422.385742188 600 400 622.385742188 400 650 c 4
400 550 m 4
 400 577.614257812 422.385742188 600 450 600 c 4
 477.614257812 600 500 577.614257812 500 550 c 4
 500 522.385742188 477.614257812 500 450 500 c 4
 422.385742188 500 400 522.385742188 400 550 c 4
400 450 m 4
 400 477.614257812 422.385742188 500 450 500 c 4
 477.614257812 500 500 477.614257812 500 450 c 4
 500 422.385742188 477.614257812 400 450 400 c 4
 422.385742188 400 400 422.385742188 400 450 c 4
400 350 m 4
 400 377.614257812 422.385742188 400 450 400 c 4
 477.614257812 400 500 377.614257812 500 350 c 4
 500 322.385742188 477.614257812 300 450 300 c 4
 422.385742188 300 400 322.385742188 400 350 c 4
400 250 m 4
 400 277.614257812 422.385742188 300 450 300 c 4
 477.614257812 300 500 277.614257812 500 250 c 4
 500 222.385742188 477.614257812 200 450 200 c 4
 422.385742188 200 400 222.385742188 400 250 c 4
600 250 m 4
 600 277.614257812 622.385742188 300 650 300 c 4
 677.614257812 300 700 277.614257812 700 250 c 4
 700 222.385742188 677.614257812 200 650 200 c 4
 622.385742188 200 600 222.385742188 600 250 c 4
600 350 m 4
 600 377.614257812 622.385742188 400 650 400 c 4
 677.614257812 400 700 377.614257812 700 350 c 4
 700 322.385742188 677.614257812 300 650 300 c 4
 622.385742188 300 600 322.385742188 600 350 c 4
600 450 m 4
 600 477.614257812 622.385742188 500 650 500 c 4
 677.614257812 500 700 477.614257812 700 450 c 4
 700 422.385742188 677.614257812 400 650 400 c 4
 622.385742188 400 600 422.385742188 600 450 c 4
600 550 m 4
 600 577.614257812 622.385742188 600 650 600 c 4
 677.614257812 600 700 577.614257812 700 550 c 4
 700 522.385742188 677.614257812 500 650 500 c 4
 622.385742188 500 600 522.385742188 600 550 c 4
600 650 m 4
 600 677.614257812 622.385742188 700 650 700 c 4
 677.614257812 700 700 677.614257812 700 650 c 4
 700 622.385742188 677.614257812 600 650 600 c 4
 622.385742188 600 600 622.385742188 600 650 c 4
600 750 m 4
 600 777.614257812 622.385742188 800 650 800 c 4
 677.614257812 800 700 777.614257812 700 750 c 4
 700 722.385742188 677.614257812 700 650 700 c 4
 622.385742188 700 600 722.385742188 600 750 c 4
700 750 m 4
 700 777.614257812 722.385742188 800 750 800 c 4
 777.614257812 800 800 777.614257812 800 750 c 4
 800 722.385742188 777.614257812 700 750 700 c 4
 722.385742188 700 700 722.385742188 700 750 c 4
700 650 m 4
 700 677.614257812 722.385742188 700 750 700 c 4
 777.614257812 700 800 677.614257812 800 650 c 4
 800 622.385742188 777.614257812 600 750 600 c 4
 722.385742188 600 700 622.385742188 700 650 c 4
700 550 m 4
 700 577.614257812 722.385742188 600 750 600 c 4
 777.614257812 600 800 577.614257812 800 550 c 4
 800 522.385742188 777.614257812 500 750 500 c 4
 722.385742188 500 700 522.385742188 700 550 c 4
700 450 m 4
 700 477.614257812 722.385742188 500 750 500 c 4
 777.614257812 500 800 477.614257812 800 450 c 4
 800 422.385742188 777.614257812 400 750 400 c 4
 722.385742188 400 700 422.385742188 700 450 c 4
700 350 m 4
 700 377.614257812 722.385742188 400 750 400 c 4
 777.614257812 400 800 377.614257812 800 350 c 4
 800 322.385742188 777.614257812 300 750 300 c 4
 722.385742188 300 700 322.385742188 700 350 c 4
700 250 m 4
 700 277.614257812 722.385742188 300 750 300 c 4
 777.614257812 300 800 277.614257812 800 250 c 4
 800 222.385742188 777.614257812 200 750 200 c 4
 722.385742188 200 700 222.385742188 700 250 c 4
EndSplineSet
Validated: 524293
EndChar

StartChar: y
Encoding: 121 121 8
Width: 700
VWidth: 0
Flags: HW
LayerCount: 2
Fore
SplineSet
0 -49 m 0
 0 -21.3857421875 22.3857421875 1 50 1 c 0
 77.6142578125 1 100 -21.3857421875 100 -49 c 0
 100 -76.6142578125 77.6142578125 -99 50 -99 c 0
 22.3857421875 -99 0 -76.6142578125 0 -49 c 0
0 -150 m 0
 0 -122.385742188 22.3857421875 -100 50 -100 c 0
 77.6142578125 -100 100 -122.385742188 100 -150 c 0
 100 -177.614257812 77.6142578125 -200 50 -200 c 0
 22.3857421875 -200 0 -177.614257812 0 -150 c 0
100 -150 m 0
 100 -122.385742188 122.385742188 -100 150 -100 c 0
 177.614257812 -100 200 -122.385742188 200 -150 c 0
 200 -177.614257812 177.614257812 -200 150 -200 c 0
 122.385742188 -200 100 -177.614257812 100 -150 c 0
200 -150 m 0
 200 -122.385742188 222.385742188 -100 250 -100 c 0
 277.614257812 -100 300 -122.385742188 300 -150 c 0
 300 -177.614257812 277.614257812 -200 250 -200 c 0
 222.385742188 -200 200 -177.614257812 200 -150 c 0
300 -150 m 0
 300 -122.385742188 322.385742188 -100 350 -100 c 0
 377.614257812 -100 400 -122.385742188 400 -150 c 0
 400 -177.614257812 377.614257812 -200 350 -200 c 0
 322.385742188 -200 300 -177.614257812 300 -150 c 0
400 -150 m 0
 400 -122.385742188 422.385742188 -100 450 -100 c 0
 477.614257812 -100 500 -122.385742188 500 -150 c 0
 500 -177.614257812 477.614257812 -200 450 -200 c 0
 422.385742188 -200 400 -177.614257812 400 -150 c 0
400 -50 m 0
 400 -22.3857421875 422.385742188 0 450 0 c 0
 477.614257812 0 500 -22.3857421875 500 -50 c 0
 500 -77.6142578125 477.614257812 -100 450 -100 c 0
 422.385742188 -100 400 -77.6142578125 400 -50 c 0
300 -50 m 0
 300 -22.3857421875 322.385742188 0 350 0 c 0
 377.614257812 0 400 -22.3857421875 400 -50 c 0
 400 -77.6142578125 377.614257812 -100 350 -100 c 0
 322.385742188 -100 300 -77.6142578125 300 -50 c 0
200 -50 m 0
 200 -22.3857421875 222.385742188 0 250 0 c 0
 277.614257812 0 300 -22.3857421875 300 -50 c 0
 300 -77.6142578125 277.614257812 -100 250 -100 c 0
 222.385742188 -100 200 -77.6142578125 200 -50 c 0
100 -50 m 0
 100 -22.3857421875 122.385742188 0 150 0 c 0
 177.614257812 0 200 -22.3857421875 200 -50 c 0
 200 -77.6142578125 177.614257812 -100 150 -100 c 0
 122.385742188 -100 100 -77.6142578125 100 -50 c 0
500 -50 m 0
 500 -22.3857421875 522.385742188 0 550 0 c 0
 577.614257812 0 600 -22.3857421875 600 -50 c 0
 600 -77.6142578125 577.614257812 -100 550 -100 c 0
 522.385742188 -100 500 -77.6142578125 500 -50 c 0
500 50 m 0
 500 77.6142578125 522.385742188 100 550 100 c 0
 577.614257812 100 600 77.6142578125 600 50 c 0
 600 22.3857421875 577.614257812 0 550 0 c 0
 522.385742188 0 500 22.3857421875 500 50 c 0
500 150 m 0
 500 177.614257812 522.385742188 200 550 200 c 0
 577.614257812 200 600 177.614257812 600 150 c 0
 600 122.385742188 577.614257812 100 550 100 c 0
 522.385742188 100 500 122.385742188 500 150 c 0
400 150 m 0
 400 177.614257812 422.385742188 200 450 200 c 0
 477.614257812 200 500 177.614257812 500 150 c 0
 500 122.385742188 477.614257812 100 450 100 c 0
 422.385742188 100 400 122.385742188 400 150 c 0
300 150 m 0
 300 177.614257812 322.385742188 200 350 200 c 0
 377.614257812 200 400 177.614257812 400 150 c 0
 400 122.385742188 377.614257812 100 350 100 c 0
 322.385742188 100 300 122.385742188 300 150 c 0
200 150 m 0
 200 177.614257812 222.385742188 200 250 200 c 0
 277.614257812 200 300 177.614257812 300 150 c 0
 300 122.385742188 277.614257812 100 250 100 c 0
 222.385742188 100 200 122.385742188 200 150 c 0
100 150 m 0
 100 177.614257812 122.385742188 200 150 200 c 0
 177.614257812 200 200 177.614257812 200 150 c 0
 200 122.385742188 177.614257812 100 150 100 c 0
 122.385742188 100 100 122.385742188 100 150 c 0
0 250 m 0
 0 277.614257812 22.3857421875 300 50 300 c 0
 77.6142578125 300 100 277.614257812 100 250 c 0
 100 222.385742188 77.6142578125 200 50 200 c 0
 22.3857421875 200 0 222.385742188 0 250 c 0
100 250 m 0
 100 277.614257812 122.385742188 300 150 300 c 0
 177.614257812 300 200 277.614257812 200 250 c 0
 200 222.385742188 177.614257812 200 150 200 c 0
 122.385742188 200 100 222.385742188 100 250 c 0
200 250 m 0
 200 277.614257812 222.385742188 300 250 300 c 0
 277.614257812 300 300 277.614257812 300 250 c 0
 300 222.385742188 277.614257812 200 250 200 c 0
 222.385742188 200 200 222.385742188 200 250 c 0
300 250 m 0
 300 277.614257812 322.385742188 300 350 300 c 0
 377.614257812 300 400 277.614257812 400 250 c 0
 400 222.385742188 377.614257812 200 350 200 c 0
 322.385742188 200 300 222.385742188 300 250 c 0
400 250 m 0
 400 277.614257812 422.385742188 300 450 300 c 0
 477.614257812 300 500 277.614257812 500 250 c 0
 500 222.385742188 477.614257812 200 450 200 c 0
 422.385742188 200 400 222.385742188 400 250 c 0
500 250 m 0
 500 277.614257812 522.385742188 300 550 300 c 0
 577.614257812 300 600 277.614257812 600 250 c 0
 600 222.385742188 577.614257812 200 550 200 c 0
 522.385742188 200 500 222.385742188 500 250 c 0
500 350 m 0
 500 377.614257812 522.385742188 400 550 400 c 0
 577.614257812 400 600 377.614257812 600 350 c 0
 600 322.385742188 577.614257812 300 550 300 c 0
 522.385742188 300 500 322.385742188 500 350 c 0
500 450 m 0
 500 477.614257812 522.385742188 500 550 500 c 0
 577.614257812 500 600 477.614257812 600 450 c 0
 600 422.385742188 577.614257812 400 550 400 c 0
 522.385742188 400 500 422.385742188 500 450 c 0
500 550 m 0
 500 577.614257812 522.385742188 600 550 600 c 0
 577.614257812 600 600 577.614257812 600 550 c 0
 600 522.385742188 577.614257812 500 550 500 c 0
 522.385742188 500 500 522.385742188 500 550 c 0
500 650 m 0
 500 677.614257812 522.385742188 700 550 700 c 0
 577.614257812 700 600 677.614257812 600 650 c 4
 600 622.385742188 577.614257812 600 550 600 c 0
 522.385742188 600 500 622.385742188 500 650 c 0
500 750 m 0
 500 777.614257812 522.385742188 800 550 800 c 0
 577.614257812 800 600 777.614257812 600 750 c 0
 600 722.385742188 577.614257812 700 550 700 c 0
 522.385742188 700 500 722.385742188 500 750 c 0
400 750 m 0
 400 777.614257812 422.385742188 800 450 800 c 0
 477.614257812 800 500 777.614257812 500 750 c 0
 500 722.385742188 477.614257812 700 450 700 c 0
 422.385742188 700 400 722.385742188 400 750 c 0
400 650 m 0
 400 677.614257812 422.385742188 700 450 700 c 0
 477.614257812 700 500 677.614257812 500 650 c 0
 500 622.385742188 477.614257812 600 450 600 c 0
 422.385742188 600 400 622.385742188 400 650 c 0
400 550 m 0
 400 577.614257812 422.385742188 600 450 600 c 0
 477.614257812 600 500 577.614257812 500 550 c 0
 500 522.385742188 477.614257812 500 450 500 c 0
 422.385742188 500 400 522.385742188 400 550 c 0
400 450 m 0
 400 477.614257812 422.385742188 500 450 500 c 0
 477.614257812 500 500 477.614257812 500 450 c 0
 500 422.385742188 477.614257812 400 450 400 c 0
 422.385742188 400 400 422.385742188 400 450 c 0
400 350 m 0
 400 377.614257812 422.385742188 400 450 400 c 0
 477.614257812 400 500 377.614257812 500 350 c 0
 500 322.385742188 477.614257812 300 450 300 c 0
 422.385742188 300 400 322.385742188 400 350 c 0
100 350 m 0
 100 377.614257812 122.385742188 400 150 400 c 0
 177.614257812 400 200 377.614257812 200 350 c 0
 200 322.385742188 177.614257812 300 150 300 c 0
 122.385742188 300 100 322.385742188 100 350 c 0
0 350 m 0
 0 377.614257812 22.3857421875 400 50 400 c 0
 77.6142578125 400 100 377.614257812 100 350 c 0
 100 322.385742188 77.6142578125 300 50 300 c 0
 22.3857421875 300 0 322.385742188 0 350 c 0
0 450 m 0
 0 477.614257812 22.3857421875 500 50 500 c 0
 77.6142578125 500 100 477.614257812 100 450 c 0
 100 422.385742188 77.6142578125 400 50 400 c 0
 22.3857421875 400 0 422.385742188 0 450 c 0
0 550 m 0
 0 577.614257812 22.3857421875 600 50 600 c 0
 77.6142578125 600 100 577.614257812 100 550 c 0
 100 522.385742188 77.6142578125 500 50 500 c 0
 22.3857421875 500 0 522.385742188 0 550 c 0
0 650 m 0
 0 677.614257812 22.3857421875 700 50 700 c 0
 77.6142578125 700 100 677.614257812 100 650 c 0
 100 622.385742188 77.6142578125 600 50 600 c 0
 22.3857421875 600 0 622.385742188 0 650 c 0
0 750 m 0
 0 777.614257812 22.3857421875 800 50 800 c 0
 77.6142578125 800 100 777.614257812 100 750 c 0
 100 722.385742188 77.6142578125 700 50 700 c 0
 22.3857421875 700 0 722.385742188 0 750 c 0
100 750 m 0
 100 777.614257812 122.385742188 800 150 800 c 0
 177.614257812 800 200 777.614257812 200 750 c 0
 200 722.385742188 177.614257812 700 150 700 c 0
 122.385742188 700 100 722.385742188 100 750 c 0
100 650 m 0
 100 677.614257812 122.385742188 700 150 700 c 0
 177.614257812 700 200 677.614257812 200 650 c 0
 200 622.385742188 177.614257812 600 150 600 c 0
 122.385742188 600 100 622.385742188 100 650 c 0
100 550 m 0
 100 577.614257812 122.385742188 600 150 600 c 0
 177.614257812 600 200 577.614257812 200 550 c 0
 200 522.385742188 177.614257812 500 150 500 c 0
 122.385742188 500 100 522.385742188 100 550 c 0
100 450 m 0
 100 477.614257812 122.385742188 500 150 500 c 0
 177.614257812 500 200 477.614257812 200 450 c 0
 200 422.385742188 177.614257812 400 150 400 c 0
 122.385742188 400 100 422.385742188 100 450 c 0
EndSplineSet
Validated: 524293
EndChar

StartChar: i
Encoding: 105 105 9
Width: 300
VWidth: 0
Flags: HW
LayerCount: 2
Fore
SplineSet
0 50 m 0
 0 77.6142578125 22.3857421875 100 50 100 c 0
 77.6142578125 100 100 77.6142578125 100 50 c 0
 100 22.3857421875 77.6142578125 0 50 0 c 0
 22.3857421875 0 0 22.3857421875 0 50 c 0
100 50 m 0
 100 77.6142578125 122.385742188 100 150 100 c 0
 177.614257812 100 200 77.6142578125 200 50 c 0
 200 22.3857421875 177.614257812 0 150 0 c 0
 122.385742188 0 100 22.3857421875 100 50 c 0
100 150 m 0
 100 177.614257812 122.385742188 200 150 200 c 0
 177.614257812 200 200 177.614257812 200 150 c 0
 200 122.385742188 177.614257812 100 150 100 c 0
 122.385742188 100 100 122.385742188 100 150 c 0
0 150 m 0
 0 177.614257812 22.3857421875 200 50 200 c 0
 77.6142578125 200 100 177.614257812 100 150 c 0
 100 122.385742188 77.6142578125 100 50 100 c 0
 22.3857421875 100 0 122.385742188 0 150 c 0
0 250 m 0
 0 277.614257812 22.3857421875 300 50 300 c 0
 77.6142578125 300 100 277.614257812 100 250 c 0
 100 222.385742188 77.6142578125 200 50 200 c 0
 22.3857421875 200 0 222.385742188 0 250 c 0
100 250 m 0
 100 277.614257812 122.385742188 300 150 300 c 0
 177.614257812 300 200 277.614257812 200 250 c 0
 200 222.385742188 177.614257812 200 150 200 c 0
 122.385742188 200 100 222.385742188 100 250 c 0
100 350 m 0
 100 377.614257812 122.385742188 400 150 400 c 0
 177.614257812 400 200 377.614257812 200 350 c 0
 200 322.385742188 177.614257812 300 150 300 c 0
 122.385742188 300 100 322.385742188 100 350 c 0
0 350 m 0
 0 377.614257812 22.3857421875 400 50 400 c 0
 77.6142578125 400 100 377.614257812 100 350 c 0
 100 322.385742188 77.6142578125 300 50 300 c 0
 22.3857421875 300 0 322.385742188 0 350 c 0
0 450 m 0
 0 477.614257812 22.3857421875 500 50 500 c 0
 77.6142578125 500 100 477.614257812 100 450 c 0
 100 422.385742188 77.6142578125 400 50 400 c 0
 22.3857421875 400 0 422.385742188 0 450 c 0
100 450 m 0
 100 477.614257812 122.385742188 500 150 500 c 0
 177.614257812 500 200 477.614257812 200 450 c 0
 200 422.385742188 177.614257812 400 150 400 c 0
 122.385742188 400 100 422.385742188 100 450 c 0
100 550 m 0
 100 577.614257812 122.385742188 600 150 600 c 0
 177.614257812 600 200 577.614257812 200 550 c 0
 200 522.385742188 177.614257812 500 150 500 c 0
 122.385742188 500 100 522.385742188 100 550 c 0
0 550 m 0
 0 577.614257812 22.3857421875 600 50 600 c 0
 77.6142578125 600 100 577.614257812 100 550 c 0
 100 522.385742188 77.6142578125 500 50 500 c 0
 22.3857421875 500 0 522.385742188 0 550 c 0
100 650 m 0
 100 677.614257812 122.385742188 700 150 700 c 0
 177.614257812 700 200 677.614257812 200 650 c 4
 200 622.385742188 177.614257812 600 150 600 c 0
 122.385742188 600 100 622.385742188 100 650 c 0
0 650 m 0
 0 677.614257812 22.3857421875 700 50 700 c 0
 77.6142578125 700 100 677.614257812 100 650 c 0
 100 622.385742188 77.6142578125 600 50 600 c 0
 22.3857421875 600 0 622.385742188 0 650 c 0
0 850 m 0
 0 877.614257812 22.3857421875 900 50 900 c 0
 77.6142578125 900 100 877.614257812 100 850 c 0
 100 822.385742188 77.6142578125 800 50 800 c 0
 22.3857421875 800 0 822.385742188 0 850 c 0
100 850 m 0
 100 877.614257812 122.385742188 900 150 900 c 0
 177.614257812 900 200 877.614257812 200 850 c 0
 200 822.385742188 177.614257812 800 150 800 c 0
 122.385742188 800 100 822.385742188 100 850 c 0
100 950 m 0
 100 977.614257812 122.385742188 1000 150 1000 c 0
 177.614257812 1000 200 977.614257812 200 950 c 0
 200 922.385742188 177.614257812 900 150 900 c 0
 122.385742188 900 100 922.385742188 100 950 c 0
0 950 m 0
 0 977.614257812 22.3857421875 1000 50 1000 c 0
 77.6142578125 1000 100 977.614257812 100 950 c 0
 100 922.385742188 77.6142578125 900 50 900 c 0
 22.3857421875 900 0 922.385742188 0 950 c 0
EndSplineSet
Validated: 524293
EndChar

StartChar: c
Encoding: 99 99 10
Width: 700
VWidth: 0
Flags: HW
LayerCount: 2
Fore
SplineSet
100 50 m 0
 100 77.6142578125 122.385742188 100 150 100 c 0
 177.614257812 100 200 77.6142578125 200 50 c 0
 200 22.3857421875 177.614257812 0 150 0 c 0
 122.385742188 0 100 22.3857421875 100 50 c 0
200 50 m 0
 200 77.6142578125 222.385742188 100 250 100 c 0
 277.614257812 100 300 77.6142578125 300 50 c 0
 300 22.3857421875 277.614257812 0 250 0 c 0
 222.385742188 0 200 22.3857421875 200 50 c 0
300 50 m 0
 300 77.6142578125 322.385742188 100 350 100 c 0
 377.614257812 100 400 77.6142578125 400 50 c 0
 400 22.3857421875 377.614257812 0 350 0 c 0
 322.385742188 0 300 22.3857421875 300 50 c 0
400 50 m 0
 400 77.6142578125 422.385742188 100 450 100 c 0
 477.614257812 100 500 77.6142578125 500 50 c 0
 500 22.3857421875 477.614257812 0 450 0 c 0
 422.385742188 0 400 22.3857421875 400 50 c 0
500 150 m 0
 500 177.614257812 522.385742188 200 550 200 c 0
 577.614257812 200 600 177.614257812 600 150 c 0
 600 122.385742188 577.614257812 100 550 100 c 0
 522.385742188 100 500 122.385742188 500 150 c 0
300 150 m 0
 300 177.614257812 322.385742188 200 350 200 c 0
 377.614257812 200 400 177.614257812 400 150 c 0
 400 122.385742188 377.614257812 100 350 100 c 0
 322.385742188 100 300 122.385742188 300 150 c 0
200 150 m 0
 200 177.614257812 222.385742188 200 250 200 c 0
 277.614257812 200 300 177.614257812 300 150 c 0
 300 122.385742188 277.614257812 100 250 100 c 0
 222.385742188 100 200 122.385742188 200 150 c 0
100 150 m 0
 100 177.614257812 122.385742188 200 150 200 c 0
 177.614257812 200 200 177.614257812 200 150 c 0
 200 122.385742188 177.614257812 100 150 100 c 0
 122.385742188 100 100 122.385742188 100 150 c 0
0 150 m 0
 0 177.614257812 22.3857421875 200 50 200 c 0
 77.6142578125 200 100 177.614257812 100 150 c 0
 100 122.385742188 77.6142578125 100 50 100 c 0
 22.3857421875 100 0 122.385742188 0 150 c 0
0 250 m 0
 0 277.614257812 22.3857421875 300 50 300 c 0
 77.6142578125 300 100 277.614257812 100 250 c 0
 100 222.385742188 77.6142578125 200 50 200 c 0
 22.3857421875 200 0 222.385742188 0 250 c 0
100 250 m 0
 100 277.614257812 122.385742188 300 150 300 c 0
 177.614257812 300 200 277.614257812 200 250 c 0
 200 222.385742188 177.614257812 200 150 200 c 0
 122.385742188 200 100 222.385742188 100 250 c 0
400 250 m 0
 400 277.614257812 422.385742188 300 450 300 c 0
 477.614257812 300 500 277.614257812 500 250 c 0
 500 222.385742188 477.614257812 200 450 200 c 0
 422.385742188 200 400 222.385742188 400 250 c 0
400 150 m 0
 400 177.614257812 422.385742188 200 450 200 c 0
 477.614257812 200 500 177.614257812 500 150 c 0
 500 122.385742188 477.614257812 100 450 100 c 0
 422.385742188 100 400 122.385742188 400 150 c 0
500 250 m 0
 500 277.614257812 522.385742188 300 550 300 c 0
 577.614257812 300 600 277.614257812 600 250 c 0
 600 222.385742188 577.614257812 200 550 200 c 0
 522.385742188 200 500 222.385742188 500 250 c 0
500 550 m 0
 500 577.614257812 522.385742188 600 550 600 c 0
 577.614257812 600 600 577.614257812 600 550 c 0
 600 522.385742188 577.614257812 500 550 500 c 0
 522.385742188 500 500 522.385742188 500 550 c 0
400 550 m 0
 400 577.614257812 422.385742188 600 450 600 c 0
 477.614257812 600 500 577.614257812 500 550 c 0
 500 522.385742188 477.614257812 500 450 500 c 0
 422.385742188 500 400 522.385742188 400 550 c 0
400 650 m 0
 400 677.614257812 422.385742188 700 450 700 c 0
 477.614257812 700 500 677.614257812 500 650 c 0
 500 622.385742188 477.614257812 600 450 600 c 0
 422.385742188 600 400 622.385742188 400 650 c 0
0 650 m 0
 0 677.614257812 22.3857421875 700 50 700 c 0
 77.6142578125 700 100 677.614257812 100 650 c 0
 100 622.385742188 77.6142578125 600 50 600 c 0
 22.3857421875 600 0 622.385742188 0 650 c 0
100 650 m 0
 100 677.614257812 122.385742188 700 150 700 c 0
 177.614257812 700 200 677.614257812 200 650 c 0
 200 622.385742188 177.614257812 600 150 600 c 0
 122.385742188 600 100 622.385742188 100 650 c 0
100 550 m 4
 100 577.614257812 122.385742188 600 150 600 c 0
 177.614257812 600 200 577.614257812 200 550 c 0
 200 522.385742188 177.614257812 500 150 500 c 0
 122.385742188 500 100 522.385742188 100 550 c 4
0 550 m 0
 0 577.614257812 22.3857421875 600 50 600 c 0
 77.6142578125 600 100 577.614257812 100 550 c 0
 100 522.385742188 77.6142578125 500 50 500 c 0
 22.3857421875 500 0 522.385742188 0 550 c 0
0 450 m 0
 0 477.614257812 22.3857421875 500 50 500 c 0
 77.6142578125 500 100 477.614257812 100 450 c 0
 100 422.385742188 77.6142578125 400 50 400 c 0
 22.3857421875 400 0 422.385742188 0 450 c 0
100 450 m 0
 100 477.614257812 122.385742188 500 150 500 c 0
 177.614257812 500 200 477.614257812 200 450 c 0
 200 422.385742188 177.614257812 400 150 400 c 0
 122.385742188 400 100 422.385742188 100 450 c 0
100 350 m 0
 100 377.614257812 122.385742188 400 150 400 c 0
 177.614257812 400 200 377.614257812 200 350 c 0
 200 322.385742188 177.614257812 300 150 300 c 0
 122.385742188 300 100 322.385742188 100 350 c 0
0 350 m 0
 0 377.614257812 22.3857421875 400 50 400 c 0
 77.6142578125 400 100 377.614257812 100 350 c 0
 100 322.385742188 77.6142578125 300 50 300 c 0
 22.3857421875 300 0 322.385742188 0 350 c 0
200 650 m 0
 200 677.614257812 222.385742188 700 250 700 c 0
 277.614257812 700 300 677.614257812 300 650 c 0
 300 622.385742188 277.614257812 600 250 600 c 0
 222.385742188 600 200 622.385742188 200 650 c 0
300 650 m 0
 300 677.614257812 322.385742188 700 350 700 c 0
 377.614257812 700 400 677.614257812 400 650 c 0
 400 622.385742188 377.614257812 600 350 600 c 0
 322.385742188 600 300 622.385742188 300 650 c 0
500 650 m 0
 500 677.614257812 522.385742188 700 550 700 c 0
 577.614257812 700 600 677.614257812 600 650 c 0
 600 622.385742188 577.614257812 600 550 600 c 0
 522.385742188 600 500 622.385742188 500 650 c 0
400 750 m 0
 400 777.614257812 422.385742188 800 450 800 c 0
 477.614257812 800 500 777.614257812 500 750 c 0
 500 722.385742188 477.614257812 700 450 700 c 0
 422.385742188 700 400 722.385742188 400 750 c 0
300 750 m 0
 300 777.614257812 322.385742188 800 350 800 c 0
 377.614257812 800 400 777.614257812 400 750 c 0
 400 722.385742188 377.614257812 700 350 700 c 0
 322.385742188 700 300 722.385742188 300 750 c 0
200 750 m 0
 200 777.614257812 222.385742188 800 250 800 c 0
 277.614257812 800 300 777.614257812 300 750 c 0
 300 722.385742188 277.614257812 700 250 700 c 0
 222.385742188 700 200 722.385742188 200 750 c 0
100 750 m 0
 100 777.614257812 122.385742188 800 150 800 c 0
 177.614257812 800 200 777.614257812 200 750 c 0
 200 722.385742188 177.614257812 700 150 700 c 0
 122.385742188 700 100 722.385742188 100 750 c 0
EndSplineSet
Validated: 524293
EndChar

StartChar: h
Encoding: 104 104 11
Width: 700
VWidth: 0
Flags: HW
LayerCount: 2
Fore
SplineSet
0 50 m 4
 0 77.6142578125 22.3857421875 100 50 100 c 4
 77.6142578125 100 100 77.6142578125 100 50 c 4
 100 22.3857421875 77.6142578125 0 50 0 c 4
 22.3857421875 0 0 22.3857421875 0 50 c 4
0 150 m 4
 0 177.614257812 22.3857421875 200 50 200 c 4
 77.6142578125 200 100 177.614257812 100 150 c 4
 100 122.385742188 77.6142578125 100 50 100 c 4
 22.3857421875 100 0 122.385742188 0 150 c 4
0 250 m 4
 0 277.614257812 22.3857421875 300 50 300 c 4
 77.6142578125 300 100 277.614257812 100 250 c 4
 100 222.385742188 77.6142578125 200 50 200 c 4
 22.3857421875 200 0 222.385742188 0 250 c 4
0 350 m 4
 0 377.614257812 22.3857421875 400 50 400 c 4
 77.6142578125 400 100 377.614257812 100 350 c 4
 100 322.385742188 77.6142578125 300 50 300 c 4
 22.3857421875 300 0 322.385742188 0 350 c 4
0 450 m 4
 0 477.614257812 22.3857421875 500 50 500 c 4
 77.6142578125 500 100 477.614257812 100 450 c 4
 100 422.385742188 77.6142578125 400 50 400 c 4
 22.3857421875 400 0 422.385742188 0 450 c 4
0 550 m 4
 0 577.614257812 22.3857421875 600 50 600 c 4
 77.6142578125 600 100 577.614257812 100 550 c 4
 100 522.385742188 77.6142578125 500 50 500 c 4
 22.3857421875 500 0 522.385742188 0 550 c 4
0 650 m 4
 0 677.614257812 22.3857421875 700 50 700 c 4
 77.6142578125 700 100 677.614257812 100 650 c 4
 100 622.385742188 77.6142578125 600 50 600 c 4
 22.3857421875 600 0 622.385742188 0 650 c 4
0 750 m 4
 0 777.614257812 22.3857421875 800 50 800 c 4
 77.6142578125 800 100 777.614257812 100 750 c 4
 100 722.385742188 77.6142578125 700 50 700 c 4
 22.3857421875 700 0 722.385742188 0 750 c 4
0 850 m 4
 0 877.614257812 22.3857421875 900 50 900 c 4
 77.6142578125 900 100 877.614257812 100 850 c 4
 100 822.385742188 77.6142578125 800 50 800 c 4
 22.3857421875 800 0 822.385742188 0 850 c 4
0 950 m 4
 0 977.614257812 22.3857421875 1000 50 1000 c 4
 77.6142578125 1000 100 977.614257812 100 950 c 4
 100 922.385742188 77.6142578125 900 50 900 c 4
 22.3857421875 900 0 922.385742188 0 950 c 4
100 950 m 4
 100 977.614257812 122.385742188 1000 150 1000 c 4
 177.614257812 1000 200 977.614257812 200 950 c 4
 200 922.385742188 177.614257812 900 150 900 c 4
 122.385742188 900 100 922.385742188 100 950 c 4
100 750 m 4
 100 777.614257812 122.385742188 800 150 800 c 4
 177.614257812 800 200 777.614257812 200 750 c 4
 200 722.385742188 177.614257812 700 150 700 c 4
 122.385742188 700 100 722.385742188 100 750 c 4
100 650 m 4
 100 677.614257812 122.385742188 700 150 700 c 4
 177.614257812 700 200 677.614257812 200 650 c 4
 200 622.385742188 177.614257812 600 150 600 c 4
 122.385742188 600 100 622.385742188 100 650 c 4
100 850 m 4
 100 877.614257812 122.385742188 900 150 900 c 4
 177.614257812 900 200 877.614257812 200 850 c 4
 200 822.385742188 177.614257812 800 150 800 c 4
 122.385742188 800 100 822.385742188 100 850 c 4
100 550 m 4
 100 577.614257812 122.385742188 600 150 600 c 4
 177.614257812 600 200 577.614257812 200 550 c 4
 200 522.385742188 177.614257812 500 150 500 c 4
 122.385742188 500 100 522.385742188 100 550 c 4
100 450 m 4
 100 477.614257812 122.385742188 500 150 500 c 4
 177.614257812 500 200 477.614257812 200 450 c 4
 200 422.385742188 177.614257812 400 150 400 c 4
 122.385742188 400 100 422.385742188 100 450 c 4
100 350 m 4
 100 377.614257812 122.385742188 400 150 400 c 4
 177.614257812 400 200 377.614257812 200 350 c 4
 200 322.385742188 177.614257812 300 150 300 c 4
 122.385742188 300 100 322.385742188 100 350 c 4
100 250 m 4
 100 277.614257812 122.385742188 300 150 300 c 4
 177.614257812 300 200 277.614257812 200 250 c 4
 200 222.385742188 177.614257812 200 150 200 c 4
 122.385742188 200 100 222.385742188 100 250 c 4
100 150 m 4
 100 177.614257812 122.385742188 200 150 200 c 4
 177.614257812 200 200 177.614257812 200 150 c 4
 200 122.385742188 177.614257812 100 150 100 c 4
 122.385742188 100 100 122.385742188 100 150 c 4
100 50 m 4
 100 77.6142578125 122.385742188 100 150 100 c 4
 177.614257812 100 200 77.6142578125 200 50 c 4
 200 22.3857421875 177.614257812 0 150 0 c 4
 122.385742188 0 100 22.3857421875 100 50 c 4
200 750 m 4
 200 777.614257812 222.385742188 800 250 800 c 4
 277.614257812 800 300 777.614257812 300 750 c 4
 300 722.385742188 277.614257812 700 250 700 c 4
 222.385742188 700 200 722.385742188 200 750 c 4
200 650 m 4
 200 677.614257812 222.385742188 700 250 700 c 4
 277.614257812 700 300 677.614257812 300 650 c 4
 300 622.385742188 277.614257812 600 250 600 c 4
 222.385742188 600 200 622.385742188 200 650 c 4
300 650 m 4
 300 677.614257812 322.385742188 700 350 700 c 4
 377.614257812 700 400 677.614257812 400 650 c 4
 400 622.385742188 377.614257812 600 350 600 c 4
 322.385742188 600 300 622.385742188 300 650 c 4
300 750 m 4
 300 777.614257812 322.385742188 800 350 800 c 4
 377.614257812 800 400 777.614257812 400 750 c 4
 400 722.385742188 377.614257812 700 350 700 c 4
 322.385742188 700 300 722.385742188 300 750 c 4
400 750 m 4
 400 777.614257812 422.385742188 800 450 800 c 4
 477.614257812 800 500 777.614257812 500 750 c 4
 500 722.385742188 477.614257812 700 450 700 c 4
 422.385742188 700 400 722.385742188 400 750 c 4
400 650 m 4
 400 677.614257812 422.385742188 700 450 700 c 4
 477.614257812 700 500 677.614257812 500 650 c 4
 500 622.385742188 477.614257812 600 450 600 c 4
 422.385742188 600 400 622.385742188 400 650 c 4
500 650 m 4
 500 677.614257812 522.385742188 700 550 700 c 4
 577.614257812 700 600 677.614257812 600 650 c 4
 600 622.385742188 577.614257812 600 550 600 c 4
 522.385742188 600 500 622.385742188 500 650 c 4
500 550 m 4
 500 577.614257812 522.385742188 600 550 600 c 4
 577.614257812 600 600 577.614257812 600 550 c 4
 600 522.385742188 577.614257812 500 550 500 c 4
 522.385742188 500 500 522.385742188 500 550 c 4
400 550 m 4
 400 577.614257812 422.385742188 600 450 600 c 4
 477.614257812 600 500 577.614257812 500 550 c 4
 500 522.385742188 477.614257812 500 450 500 c 4
 422.385742188 500 400 522.385742188 400 550 c 4
400 450 m 4
 400 477.614257812 422.385742188 500 450 500 c 4
 477.614257812 500 500 477.614257812 500 450 c 4
 500 422.385742188 477.614257812 400 450 400 c 4
 422.385742188 400 400 422.385742188 400 450 c 4
500 450 m 4
 500 477.614257812 522.385742188 500 550 500 c 4
 577.614257812 500 600 477.614257812 600 450 c 4
 600 422.385742188 577.614257812 400 550 400 c 4
 522.385742188 400 500 422.385742188 500 450 c 4
500 350 m 4
 500 377.614257812 522.385742188 400 550 400 c 4
 577.614257812 400 600 377.614257812 600 350 c 4
 600 322.385742188 577.614257812 300 550 300 c 4
 522.385742188 300 500 322.385742188 500 350 c 4
400 350 m 4
 400 377.614257812 422.385742188 400 450 400 c 4
 477.614257812 400 500 377.614257812 500 350 c 4
 500 322.385742188 477.614257812 300 450 300 c 4
 422.385742188 300 400 322.385742188 400 350 c 4
400 250 m 4
 400 277.614257812 422.385742188 300 450 300 c 4
 477.614257812 300 500 277.614257812 500 250 c 4
 500 222.385742188 477.614257812 200 450 200 c 4
 422.385742188 200 400 222.385742188 400 250 c 4
500 250 m 4
 500 277.614257812 522.385742188 300 550 300 c 4
 577.614257812 300 600 277.614257812 600 250 c 4
 600 222.385742188 577.614257812 200 550 200 c 4
 522.385742188 200 500 222.385742188 500 250 c 4
500 150 m 4
 500 177.614257812 522.385742188 200 550 200 c 4
 577.614257812 200 600 177.614257812 600 150 c 4
 600 122.385742188 577.614257812 100 550 100 c 4
 522.385742188 100 500 122.385742188 500 150 c 4
400 150 m 4
 400 177.614257812 422.385742188 200 450 200 c 4
 477.614257812 200 500 177.614257812 500 150 c 4
 500 122.385742188 477.614257812 100 450 100 c 4
 422.385742188 100 400 122.385742188 400 150 c 4
400 50 m 4
 400 77.6142578125 422.385742188 100 450 100 c 4
 477.614257812 100 500 77.6142578125 500 50 c 4
 500 22.3857421875 477.614257812 0 450 0 c 4
 422.385742188 0 400 22.3857421875 400 50 c 4
500 50 m 4
 500 77.6142578125 522.385742188 100 550 100 c 4
 577.614257812 100 600 77.6142578125 600 50 c 4
 600 22.3857421875 577.614257812 0 550 0 c 4
 522.385742188 0 500 22.3857421875 500 50 c 4
EndSplineSet
Validated: 524293
EndChar

StartChar: m
Encoding: 109 109 12
Width: 900
VWidth: 0
Flags: HW
LayerCount: 2
Fore
SplineSet
0 50 m 4
 0 77.6142578125 22.3857421875 100 50 100 c 4
 77.6142578125 100 100 77.6142578125 100 50 c 4
 100 22.3857421875 77.6142578125 0 50 0 c 4
 22.3857421875 0 0 22.3857421875 0 50 c 4
0 250 m 4
 0 277.614257812 22.3857421875 300 50 300 c 4
 77.6142578125 300 100 277.614257812 100 250 c 4
 100 222.385742188 77.6142578125 200 50 200 c 4
 22.3857421875 200 0 222.385742188 0 250 c 4
0 350 m 4
 0 377.614257812 22.3857421875 400 50 400 c 4
 77.6142578125 400 100 377.614257812 100 350 c 4
 100 322.385742188 77.6142578125 300 50 300 c 4
 22.3857421875 300 0 322.385742188 0 350 c 4
0 450 m 4
 0 477.614257812 22.3857421875 500 50 500 c 4
 77.6142578125 500 100 477.614257812 100 450 c 4
 100 422.385742188 77.6142578125 400 50 400 c 4
 22.3857421875 400 0 422.385742188 0 450 c 4
0 550 m 4
 0 577.614257812 22.3857421875 600 50 600 c 4
 77.6142578125 600 100 577.614257812 100 550 c 4
 100 522.385742188 77.6142578125 500 50 500 c 4
 22.3857421875 500 0 522.385742188 0 550 c 4
0 650 m 4
 0 677.614257812 22.3857421875 700 50 700 c 4
 77.6142578125 700 100 677.614257812 100 650 c 4
 100 622.385742188 77.6142578125 600 50 600 c 4
 22.3857421875 600 0 622.385742188 0 650 c 4
0 750 m 4
 0 777.614257812 22.3857421875 800 50 800 c 4
 77.6142578125 800 100 777.614257812 100 750 c 4
 100 722.385742188 77.6142578125 700 50 700 c 4
 22.3857421875 700 0 722.385742188 0 750 c 4
100 750 m 4
 100 777.614257812 122.385742188 800 150 800 c 4
 177.614257812 800 200 777.614257812 200 750 c 4
 200 722.385742188 177.614257812 700 150 700 c 4
 122.385742188 700 100 722.385742188 100 750 c 4
100 650 m 4
 100 677.614257812 122.385742188 700 150 700 c 4
 177.614257812 700 200 677.614257812 200 650 c 4
 200 622.385742188 177.614257812 600 150 600 c 4
 122.385742188 600 100 622.385742188 100 650 c 4
100 550 m 4
 100 577.614257812 122.385742188 600 150 600 c 4
 177.614257812 600 200 577.614257812 200 550 c 4
 200 522.385742188 177.614257812 500 150 500 c 4
 122.385742188 500 100 522.385742188 100 550 c 4
100 450 m 4
 100 477.614257812 122.385742188 500 150 500 c 4
 177.614257812 500 200 477.614257812 200 450 c 4
 200 422.385742188 177.614257812 400 150 400 c 4
 122.385742188 400 100 422.385742188 100 450 c 4
100 350 m 4
 100 377.614257812 122.385742188 400 150 400 c 4
 177.614257812 400 200 377.614257812 200 350 c 4
 200 322.385742188 177.614257812 300 150 300 c 4
 122.385742188 300 100 322.385742188 100 350 c 4
100 250 m 4
 100 277.614257812 122.385742188 300 150 300 c 4
 177.614257812 300 200 277.614257812 200 250 c 4
 200 222.385742188 177.614257812 200 150 200 c 4
 122.385742188 200 100 222.385742188 100 250 c 4
100 150 m 4
 100 177.614257812 122.385742188 200 150 200 c 4
 177.614257812 200 200 177.614257812 200 150 c 4
 200 122.385742188 177.614257812 100 150 100 c 4
 122.385742188 100 100 122.385742188 100 150 c 4
100 50 m 4
 100 77.6142578125 122.385742188 100 150 100 c 4
 177.614257812 100 200 77.6142578125 200 50 c 4
 200 22.3857421875 177.614257812 0 150 0 c 4
 122.385742188 0 100 22.3857421875 100 50 c 4
0 150 m 4
 0 177.614257812 22.3857421875 200 50 200 c 4
 77.6142578125 200 100 177.614257812 100 150 c 4
 100 122.385742188 77.6142578125 100 50 100 c 4
 22.3857421875 100 0 122.385742188 0 150 c 4
200 750 m 4
 200 777.614257812 222.385742188 800 250 800 c 4
 277.614257812 800 300 777.614257812 300 750 c 4
 300 722.385742188 277.614257812 700 250 700 c 4
 222.385742188 700 200 722.385742188 200 750 c 4
200 650 m 4
 200 677.614257812 222.385742188 700 250 700 c 4
 277.614257812 700 300 677.614257812 300 650 c 4
 300 622.385742188 277.614257812 600 250 600 c 4
 222.385742188 600 200 622.385742188 200 650 c 4
300 650 m 4
 300 677.614257812 322.385742188 700 350 700 c 4
 377.614257812 700 400 677.614257812 400 650 c 4
 400 622.385742188 377.614257812 600 350 600 c 4
 322.385742188 600 300 622.385742188 300 650 c 4
300 550 m 4
 300 577.614257812 322.385742188 600 350 600 c 4
 377.614257812 600 400 577.614257812 400 550 c 4
 400 522.385742188 377.614257812 500 350 500 c 4
 322.385742188 500 300 522.385742188 300 550 c 4
300 450 m 4
 300 477.614257812 322.385742188 500 350 500 c 4
 377.614257812 500 400 477.614257812 400 450 c 4
 400 422.385742188 377.614257812 400 350 400 c 4
 322.385742188 400 300 422.385742188 300 450 c 4
300 350 m 4
 300 377.614257812 322.385742188 400 350 400 c 4
 377.614257812 400 400 377.614257812 400 350 c 4
 400 322.385742188 377.614257812 300 350 300 c 4
 322.385742188 300 300 322.385742188 300 350 c 4
300 250 m 4
 300 277.614257812 322.385742188 300 350 300 c 4
 377.614257812 300 400 277.614257812 400 250 c 4
 400 222.385742188 377.614257812 200 350 200 c 4
 322.385742188 200 300 222.385742188 300 250 c 4
300 150 m 4
 300 177.614257812 322.385742188 200 350 200 c 4
 377.614257812 200 400 177.614257812 400 150 c 4
 400 122.385742188 377.614257812 100 350 100 c 4
 322.385742188 100 300 122.385742188 300 150 c 4
300 50 m 4
 300 77.6142578125 322.385742188 100 350 100 c 4
 377.614257812 100 400 77.6142578125 400 50 c 4
 400 22.3857421875 377.614257812 0 350 0 c 4
 322.385742188 0 300 22.3857421875 300 50 c 4
400 50 m 4
 400 77.6142578125 422.385742188 100 450 100 c 4
 477.614257812 100 500 77.6142578125 500 50 c 4
 500 22.3857421875 477.614257812 0 450 0 c 4
 422.385742188 0 400 22.3857421875 400 50 c 4
400 150 m 4
 400 177.614257812 422.385742188 200 450 200 c 4
 477.614257812 200 500 177.614257812 500 150 c 4
 500 122.385742188 477.614257812 100 450 100 c 4
 422.385742188 100 400 122.385742188 400 150 c 4
400 250 m 4
 400 277.614257812 422.385742188 300 450 300 c 4
 477.614257812 300 500 277.614257812 500 250 c 4
 500 222.385742188 477.614257812 200 450 200 c 4
 422.385742188 200 400 222.385742188 400 250 c 4
400 350 m 4
 400 377.614257812 422.385742188 400 450 400 c 4
 477.614257812 400 500 377.614257812 500 350 c 4
 500 322.385742188 477.614257812 300 450 300 c 4
 422.385742188 300 400 322.385742188 400 350 c 4
400 450 m 4
 400 477.614257812 422.385742188 500 450 500 c 4
 477.614257812 500 500 477.614257812 500 450 c 4
 500 422.385742188 477.614257812 400 450 400 c 4
 422.385742188 400 400 422.385742188 400 450 c 4
400 550 m 4
 400 577.614257812 422.385742188 600 450 600 c 4
 477.614257812 600 500 577.614257812 500 550 c 4
 500 522.385742188 477.614257812 500 450 500 c 4
 422.385742188 500 400 522.385742188 400 550 c 4
400 650 m 4
 400 677.614257812 422.385742188 700 450 700 c 4
 477.614257812 700 500 677.614257812 500 650 c 4
 500 622.385742188 477.614257812 600 450 600 c 4
 422.385742188 600 400 622.385742188 400 650 c 4
400 750 m 4
 400 777.614257812 422.385742188 800 450 800 c 4
 477.614257812 800 500 777.614257812 500 750 c 4
 500 722.385742188 477.614257812 700 450 700 c 4
 422.385742188 700 400 722.385742188 400 750 c 4
500 750 m 4
 500 777.614257812 522.385742188 800 550 800 c 4
 577.614257812 800 600 777.614257812 600 750 c 4
 600 722.385742188 577.614257812 700 550 700 c 4
 522.385742188 700 500 722.385742188 500 750 c 4
500 650 m 4
 500 677.614257812 522.385742188 700 550 700 c 4
 577.614257812 700 600 677.614257812 600 650 c 4
 600 622.385742188 577.614257812 600 550 600 c 4
 522.385742188 600 500 622.385742188 500 650 c 4
600 750 m 4
 600 777.614257812 622.385742188 800 650 800 c 4
 677.614257812 800 700 777.614257812 700 750 c 4
 700 722.385742188 677.614257812 700 650 700 c 4
 622.385742188 700 600 722.385742188 600 750 c 4
600 650 m 4
 600 677.614257812 622.385742188 700 650 700 c 4
 677.614257812 700 700 677.614257812 700 650 c 4
 700 622.385742188 677.614257812 600 650 600 c 4
 622.385742188 600 600 622.385742188 600 650 c 4
600 550 m 4
 600 577.614257812 622.385742188 600 650 600 c 4
 677.614257812 600 700 577.614257812 700 550 c 4
 700 522.385742188 677.614257812 500 650 500 c 4
 622.385742188 500 600 522.385742188 600 550 c 4
600 450 m 4
 600 477.614257812 622.385742188 500 650 500 c 4
 677.614257812 500 700 477.614257812 700 450 c 4
 700 422.385742188 677.614257812 400 650 400 c 4
 622.385742188 400 600 422.385742188 600 450 c 4
600 350 m 4
 600 377.614257812 622.385742188 400 650 400 c 4
 677.614257812 400 700 377.614257812 700 350 c 4
 700 322.385742188 677.614257812 300 650 300 c 4
 622.385742188 300 600 322.385742188 600 350 c 4
600 250 m 4
 600 277.614257812 622.385742188 300 650 300 c 4
 677.614257812 300 700 277.614257812 700 250 c 4
 700 222.385742188 677.614257812 200 650 200 c 4
 622.385742188 200 600 222.385742188 600 250 c 4
600 150 m 4
 600 177.614257812 622.385742188 200 650 200 c 4
 677.614257812 200 700 177.614257812 700 150 c 4
 700 122.385742188 677.614257812 100 650 100 c 4
 622.385742188 100 600 122.385742188 600 150 c 4
600 50 m 4
 600 77.6142578125 622.385742188 100 650 100 c 4
 677.614257812 100 700 77.6142578125 700 50 c 4
 700 22.3857421875 677.614257812 0 650 0 c 4
 622.385742188 0 600 22.3857421875 600 50 c 4
700 50 m 4
 700 77.6142578125 722.385742188 100 750 100 c 4
 777.614257812 100 800 77.6142578125 800 50 c 4
 800 22.3857421875 777.614257812 0 750 0 c 4
 722.385742188 0 700 22.3857421875 700 50 c 4
700 150 m 4
 700 177.614257812 722.385742188 200 750 200 c 4
 777.614257812 200 800 177.614257812 800 150 c 4
 800 122.385742188 777.614257812 100 750 100 c 4
 722.385742188 100 700 122.385742188 700 150 c 4
700 250 m 4
 700 277.614257812 722.385742188 300 750 300 c 4
 777.614257812 300 800 277.614257812 800 250 c 4
 800 222.385742188 777.614257812 200 750 200 c 4
 722.385742188 200 700 222.385742188 700 250 c 4
700 350 m 4
 700 377.614257812 722.385742188 400 750 400 c 4
 777.614257812 400 800 377.614257812 800 350 c 4
 800 322.385742188 777.614257812 300 750 300 c 4
 722.385742188 300 700 322.385742188 700 350 c 4
700 450 m 4
 700 477.614257812 722.385742188 500 750 500 c 4
 777.614257812 500 800 477.614257812 800 450 c 4
 800 422.385742188 777.614257812 400 750 400 c 4
 722.385742188 400 700 422.385742188 700 450 c 4
700 550 m 4
 700 577.614257812 722.385742188 600 750 600 c 4
 777.614257812 600 800 577.614257812 800 550 c 4
 800 522.385742188 777.614257812 500 750 500 c 4
 722.385742188 500 700 522.385742188 700 550 c 4
700 650 m 4
 700 677.614257812 722.385742188 700 750 700 c 4
 777.614257812 700 800 677.614257812 800 650 c 4
 800 622.385742188 777.614257812 600 750 600 c 4
 722.385742188 600 700 622.385742188 700 650 c 4
EndSplineSet
Validated: 524293
EndChar

StartChar: n
Encoding: 110 110 13
Width: 700
VWidth: 0
Flags: HW
LayerCount: 2
Fore
SplineSet
100 50 m 4
 100 77.6142578125 122.385742188 100 150 100 c 4
 177.614257812 100 200 77.6142578125 200 50 c 4
 200 22.3857421875 177.614257812 0 150 0 c 4
 122.385742188 0 100 22.3857421875 100 50 c 4
0 50 m 4
 0 77.6142578125 22.3857421875 100 50 100 c 4
 77.6142578125 100 100 77.6142578125 100 50 c 4
 100 22.3857421875 77.6142578125 0 50 0 c 4
 22.3857421875 0 0 22.3857421875 0 50 c 4
400 50 m 4
 400 77.6142578125 422.385742188 100 450 100 c 4
 477.614257812 100 500 77.6142578125 500 50 c 4
 500 22.3857421875 477.614257812 0 450 0 c 4
 422.385742188 0 400 22.3857421875 400 50 c 4
500 50 m 4
 500 77.6142578125 522.385742188 100 550 100 c 4
 577.614257812 100 600 77.6142578125 600 50 c 4
 600 22.3857421875 577.614257812 0 550 0 c 4
 522.385742188 0 500 22.3857421875 500 50 c 4
500 150 m 4
 500 177.614257812 522.385742188 200 550 200 c 4
 577.614257812 200 600 177.614257812 600 150 c 4
 600 122.385742188 577.614257812 100 550 100 c 4
 522.385742188 100 500 122.385742188 500 150 c 4
100 150 m 4
 100 177.614257812 122.385742188 200 150 200 c 4
 177.614257812 200 200 177.614257812 200 150 c 4
 200 122.385742188 177.614257812 100 150 100 c 4
 122.385742188 100 100 122.385742188 100 150 c 4
0 150 m 4
 0 177.614257812 22.3857421875 200 50 200 c 4
 77.6142578125 200 100 177.614257812 100 150 c 4
 100 122.385742188 77.6142578125 100 50 100 c 4
 22.3857421875 100 0 122.385742188 0 150 c 4
0 250 m 4
 0 277.614257812 22.3857421875 300 50 300 c 4
 77.6142578125 300 100 277.614257812 100 250 c 4
 100 222.385742188 77.6142578125 200 50 200 c 4
 22.3857421875 200 0 222.385742188 0 250 c 4
100 250 m 4
 100 277.614257812 122.385742188 300 150 300 c 4
 177.614257812 300 200 277.614257812 200 250 c 4
 200 222.385742188 177.614257812 200 150 200 c 4
 122.385742188 200 100 222.385742188 100 250 c 4
400 250 m 4
 400 277.614257812 422.385742188 300 450 300 c 4
 477.614257812 300 500 277.614257812 500 250 c 4
 500 222.385742188 477.614257812 200 450 200 c 4
 422.385742188 200 400 222.385742188 400 250 c 4
400 150 m 4
 400 177.614257812 422.385742188 200 450 200 c 4
 477.614257812 200 500 177.614257812 500 150 c 4
 500 122.385742188 477.614257812 100 450 100 c 4
 422.385742188 100 400 122.385742188 400 150 c 4
500 250 m 4
 500 277.614257812 522.385742188 300 550 300 c 4
 577.614257812 300 600 277.614257812 600 250 c 4
 600 222.385742188 577.614257812 200 550 200 c 4
 522.385742188 200 500 222.385742188 500 250 c 4
500 350 m 4
 500 377.614257812 522.385742188 400 550 400 c 4
 577.614257812 400 600 377.614257812 600 350 c 4
 600 322.385742188 577.614257812 300 550 300 c 4
 522.385742188 300 500 322.385742188 500 350 c 4
400 350 m 4
 400 377.614257812 422.385742188 400 450 400 c 4
 477.614257812 400 500 377.614257812 500 350 c 4
 500 322.385742188 477.614257812 300 450 300 c 4
 422.385742188 300 400 322.385742188 400 350 c 4
400 450 m 4
 400 477.614257812 422.385742188 500 450 500 c 4
 477.614257812 500 500 477.614257812 500 450 c 4
 500 422.385742188 477.614257812 400 450 400 c 4
 422.385742188 400 400 422.385742188 400 450 c 4
500 450 m 4
 500 477.614257812 522.385742188 500 550 500 c 4
 577.614257812 500 600 477.614257812 600 450 c 4
 600 422.385742188 577.614257812 400 550 400 c 4
 522.385742188 400 500 422.385742188 500 450 c 4
500 550 m 4
 500 577.614257812 522.385742188 600 550 600 c 4
 577.614257812 600 600 577.614257812 600 550 c 4
 600 522.385742188 577.614257812 500 550 500 c 4
 522.385742188 500 500 522.385742188 500 550 c 4
400 550 m 4
 400 577.614257812 422.385742188 600 450 600 c 4
 477.614257812 600 500 577.614257812 500 550 c 4
 500 522.385742188 477.614257812 500 450 500 c 4
 422.385742188 500 400 522.385742188 400 550 c 4
400 650 m 4
 400 677.614257812 422.385742188 700 450 700 c 4
 477.614257812 700 500 677.614257812 500 650 c 4
 500 622.385742188 477.614257812 600 450 600 c 4
 422.385742188 600 400 622.385742188 400 650 c 4
0 650 m 4
 0 677.614257812 22.3857421875 700 50 700 c 4
 77.6142578125 700 100 677.614257812 100 650 c 4
 100 622.385742188 77.6142578125 600 50 600 c 4
 22.3857421875 600 0 622.385742188 0 650 c 4
100 650 m 4
 100 677.614257812 122.385742188 700 150 700 c 4
 177.614257812 700 200 677.614257812 200 650 c 4
 200 622.385742188 177.614257812 600 150 600 c 4
 122.385742188 600 100 622.385742188 100 650 c 4
100 550 m 4
 100 577.614257812 122.385742188 600 150 600 c 4
 177.614257812 600 200 577.614257812 200 550 c 4
 200 522.385742188 177.614257812 500 150 500 c 4
 122.385742188 500 100 522.385742188 100 550 c 4
0 550 m 4
 0 577.614257812 22.3857421875 600 50 600 c 4
 77.6142578125 600 100 577.614257812 100 550 c 4
 100 522.385742188 77.6142578125 500 50 500 c 4
 22.3857421875 500 0 522.385742188 0 550 c 4
0 450 m 4
 0 477.614257812 22.3857421875 500 50 500 c 4
 77.6142578125 500 100 477.614257812 100 450 c 4
 100 422.385742188 77.6142578125 400 50 400 c 4
 22.3857421875 400 0 422.385742188 0 450 c 4
100 450 m 4
 100 477.614257812 122.385742188 500 150 500 c 4
 177.614257812 500 200 477.614257812 200 450 c 4
 200 422.385742188 177.614257812 400 150 400 c 4
 122.385742188 400 100 422.385742188 100 450 c 4
100 350 m 4
 100 377.614257812 122.385742188 400 150 400 c 4
 177.614257812 400 200 377.614257812 200 350 c 4
 200 322.385742188 177.614257812 300 150 300 c 4
 122.385742188 300 100 322.385742188 100 350 c 4
0 350 m 4
 0 377.614257812 22.3857421875 400 50 400 c 4
 77.6142578125 400 100 377.614257812 100 350 c 4
 100 322.385742188 77.6142578125 300 50 300 c 4
 22.3857421875 300 0 322.385742188 0 350 c 4
200 650 m 4
 200 677.614257812 222.385742188 700 250 700 c 4
 277.614257812 700 300 677.614257812 300 650 c 4
 300 622.385742188 277.614257812 600 250 600 c 4
 222.385742188 600 200 622.385742188 200 650 c 4
300 650 m 4
 300 677.614257812 322.385742188 700 350 700 c 4
 377.614257812 700 400 677.614257812 400 650 c 4
 400 622.385742188 377.614257812 600 350 600 c 4
 322.385742188 600 300 622.385742188 300 650 c 4
500 650 m 4
 500 677.614257812 522.385742188 700 550 700 c 4
 577.614257812 700 600 677.614257812 600 650 c 4
 600 622.385742188 577.614257812 600 550 600 c 4
 522.385742188 600 500 622.385742188 500 650 c 4
400 750 m 4
 400 777.614257812 422.385742188 800 450 800 c 4
 477.614257812 800 500 777.614257812 500 750 c 4
 500 722.385742188 477.614257812 700 450 700 c 4
 422.385742188 700 400 722.385742188 400 750 c 4
300 750 m 4
 300 777.614257812 322.385742188 800 350 800 c 4
 377.614257812 800 400 777.614257812 400 750 c 4
 400 722.385742188 377.614257812 700 350 700 c 4
 322.385742188 700 300 722.385742188 300 750 c 4
0 750 m 4
 0 777.614257812 22.3857421875 800 50 800 c 4
 77.6142578125 800 100 777.614257812 100 750 c 4
 100 722.385742188 77.6142578125 700 50 700 c 4
 22.3857421875 700 0 722.385742188 0 750 c 4
100 750 m 4
 100 777.614257812 122.385742188 800 150 800 c 4
 177.614257812 800 200 777.614257812 200 750 c 4
 200 722.385742188 177.614257812 700 150 700 c 4
 122.385742188 700 100 722.385742188 100 750 c 4
EndSplineSet
Validated: 524293
EndChar

StartChar: one
Encoding: 49 49 14
Width: 500
VWidth: 0
Flags: HW
LayerCount: 2
Fore
SplineSet
0 850 m 0
 0 877.614257812 22.3857421875 900 50 900 c 0
 77.6142578125 900 100 877.614257812 100 850 c 0
 100 822.385742188 77.6142578125 800 50 800 c 0
 22.3857421875 800 0 822.385742188 0 850 c 0
0 750 m 0
 0 777.614257812 22.3857421875 800 50 800 c 0
 77.6142578125 800 100 777.614257812 100 750 c 0
 100 722.385742188 77.6142578125 700 50 700 c 0
 22.3857421875 700 0 722.385742188 0 750 c 0
100 750 m 0
 100 777.614257812 122.385742188 800 150 800 c 0
 177.614257812 800 200 777.614257812 200 750 c 0
 200 722.385742188 177.614257812 700 150 700 c 0
 122.385742188 700 100 722.385742188 100 750 c 0
100 850 m 0
 100 877.614257812 122.385742188 900 150 900 c 0
 177.614257812 900 200 877.614257812 200 850 c 0
 200 822.385742188 177.614257812 800 150 800 c 0
 122.385742188 800 100 822.385742188 100 850 c 0
200 950 m 0
 200 977.614257812 222.385742188 1000 250 1000 c 0
 277.614257812 1000 300 977.614257812 300 950 c 0
 300 922.385742188 277.614257812 900 250 900 c 0
 222.385742188 900 200 922.385742188 200 950 c 0
200 850 m 0
 200 877.614257812 222.385742188 900 250 900 c 0
 277.614257812 900 300 877.614257812 300 850 c 0
 300 822.385742188 277.614257812 800 250 800 c 0
 222.385742188 800 200 822.385742188 200 850 c 0
200 750 m 0
 200 777.614257812 222.385742188 800 250 800 c 0
 277.614257812 800 300 777.614257812 300 750 c 0
 300 722.385742188 277.614257812 700 250 700 c 0
 222.385742188 700 200 722.385742188 200 750 c 0
200 650 m 0
 200 677.614257812 222.385742188 700 250 700 c 0
 277.614257812 700 300 677.614257812 300 650 c 0
 300 622.385742188 277.614257812 600 250 600 c 0
 222.385742188 600 200 622.385742188 200 650 c 0
200 550 m 0
 200 577.614257812 222.385742188 600 250 600 c 0
 277.614257812 600 300 577.614257812 300 550 c 0
 300 522.385742188 277.614257812 500 250 500 c 0
 222.385742188 500 200 522.385742188 200 550 c 0
200 450 m 0
 200 477.614257812 222.385742188 500 250 500 c 0
 277.614257812 500 300 477.614257812 300 450 c 0
 300 422.385742188 277.614257812 400 250 400 c 0
 222.385742188 400 200 422.385742188 200 450 c 0
200 350 m 0
 200 377.614257812 222.385742188 400 250 400 c 0
 277.614257812 400 300 377.614257812 300 350 c 0
 300 322.385742188 277.614257812 300 250 300 c 0
 222.385742188 300 200 322.385742188 200 350 c 0
200 250 m 0
 200 277.614257812 222.385742188 300 250 300 c 0
 277.614257812 300 300 277.614257812 300 250 c 0
 300 222.385742188 277.614257812 200 250 200 c 0
 222.385742188 200 200 222.385742188 200 250 c 0
200 150 m 0
 200 177.614257812 222.385742188 200 250 200 c 0
 277.614257812 200 300 177.614257812 300 150 c 0
 300 122.385742188 277.614257812 100 250 100 c 0
 222.385742188 100 200 122.385742188 200 150 c 0
200 50 m 0
 200 77.6142578125 222.385742188 100 250 100 c 0
 277.614257812 100 300 77.6142578125 300 50 c 0
 300 22.3857421875 277.614257812 0 250 0 c 0
 222.385742188 0 200 22.3857421875 200 50 c 0
300 50 m 0
 300 77.6142578125 322.385742188 100 350 100 c 0
 377.614257812 100 400 77.6142578125 400 50 c 0
 400 22.3857421875 377.614257812 0 350 0 c 0
 322.385742188 0 300 22.3857421875 300 50 c 0
300 150 m 0
 300 177.614257812 322.385742188 200 350 200 c 0
 377.614257812 200 400 177.614257812 400 150 c 0
 400 122.385742188 377.614257812 100 350 100 c 0
 322.385742188 100 300 122.385742188 300 150 c 0
300 250 m 0
 300 277.614257812 322.385742188 300 350 300 c 0
 377.614257812 300 400 277.614257812 400 250 c 0
 400 222.385742188 377.614257812 200 350 200 c 0
 322.385742188 200 300 222.385742188 300 250 c 0
300 350 m 0
 300 377.614257812 322.385742188 400 350 400 c 0
 377.614257812 400 400 377.614257812 400 350 c 0
 400 322.385742188 377.614257812 300 350 300 c 0
 322.385742188 300 300 322.385742188 300 350 c 0
300 450 m 0
 300 477.614257812 322.385742188 500 350 500 c 0
 377.614257812 500 400 477.614257812 400 450 c 0
 400 422.385742188 377.614257812 400 350 400 c 0
 322.385742188 400 300 422.385742188 300 450 c 0
300 550 m 0
 300 577.614257812 322.385742188 600 350 600 c 0
 377.614257812 600 400 577.614257812 400 550 c 0
 400 522.385742188 377.614257812 500 350 500 c 0
 322.385742188 500 300 522.385742188 300 550 c 0
300 650 m 0
 300 677.614257812 322.385742188 700 350 700 c 0
 377.614257812 700 400 677.614257812 400 650 c 0
 400 622.385742188 377.614257812 600 350 600 c 0
 322.385742188 600 300 622.385742188 300 650 c 0
300 750 m 0
 300 777.614257812 322.385742188 800 350 800 c 0
 377.614257812 800 400 777.614257812 400 750 c 4
 400 722.385742188 377.614257812 700 350 700 c 0
 322.385742188 700 300 722.385742188 300 750 c 0
300 850 m 0
 300 877.614257812 322.385742188 900 350 900 c 0
 377.614257812 900 400 877.614257812 400 850 c 0
 400 822.385742188 377.614257812 800 350 800 c 0
 322.385742188 800 300 822.385742188 300 850 c 0
300 950 m 0
 300 977.614257812 322.385742188 1000 350 1000 c 0
 377.614257812 1000 400 977.614257812 400 950 c 0
 400 922.385742188 377.614257812 900 350 900 c 0
 322.385742188 900 300 922.385742188 300 950 c 0
EndSplineSet
Validated: 524293
EndChar

StartChar: two
Encoding: 50 50 15
Width: 700
VWidth: 0
Flags: HW
LayerCount: 2
Fore
SplineSet
0 750 m 0
 0 777.614257812 22.3857421875 800 50 800 c 0
 77.6142578125 800 100 777.614257812 100 750 c 0
 100 722.385742188 77.6142578125 700 50 700 c 0
 22.3857421875 700 0 722.385742188 0 750 c 0
0 850 m 0
 0 877.614257812 22.3857421875 900 50 900 c 0
 77.6142578125 900 100 877.614257812 100 850 c 0
 100 822.385742188 77.6142578125 800 50 800 c 0
 22.3857421875 800 0 822.385742188 0 850 c 0
100 850 m 0
 100 877.614257812 122.385742188 900 150 900 c 0
 177.614257812 900 200 877.614257812 200 850 c 0
 200 822.385742188 177.614257812 800 150 800 c 0
 122.385742188 800 100 822.385742188 100 850 c 0
100 950 m 0
 100 977.614257812 122.385742188 1000 150 1000 c 0
 177.614257812 1000 200 977.614257812 200 950 c 0
 200 922.385742188 177.614257812 900 150 900 c 0
 122.385742188 900 100 922.385742188 100 950 c 0
200 950 m 0
 200 977.614257812 222.385742188 1000 250 1000 c 0
 277.614257812 1000 300 977.614257812 300 950 c 0
 300 922.385742188 277.614257812 900 250 900 c 0
 222.385742188 900 200 922.385742188 200 950 c 0
300 950 m 0
 300 977.614257812 322.385742188 1000 350 1000 c 0
 377.614257812 1000 400 977.614257812 400 950 c 0
 400 922.385742188 377.614257812 900 350 900 c 0
 322.385742188 900 300 922.385742188 300 950 c 0
400 950 m 0
 400 977.614257812 422.385742188 1000 450 1000 c 0
 477.614257812 1000 500 977.614257812 500 950 c 0
 500 922.385742188 477.614257812 900 450 900 c 0
 422.385742188 900 400 922.385742188 400 950 c 0
400 850 m 0
 400 877.614257812 422.385742188 900 450 900 c 0
 477.614257812 900 500 877.614257812 500 850 c 0
 500 822.385742188 477.614257812 800 450 800 c 0
 422.385742188 800 400 822.385742188 400 850 c 0
300 850 m 0
 300 877.614257812 322.385742188 900 350 900 c 0
 377.614257812 900 400 877.614257812 400 850 c 0
 400 822.385742188 377.614257812 800 350 800 c 0
 322.385742188 800 300 822.385742188 300 850 c 0
200 850 m 0
 200 877.614257812 222.385742188 900 250 900 c 0
 277.614257812 900 300 877.614257812 300 850 c 0
 300 822.385742188 277.614257812 800 250 800 c 0
 222.385742188 800 200 822.385742188 200 850 c 0
500 850 m 0
 500 877.614257812 522.385742188 900 550 900 c 0
 577.614257812 900 600 877.614257812 600 850 c 4
 600 822.385742188 577.614257812 800 550 800 c 0
 522.385742188 800 500 822.385742188 500 850 c 0
500 750 m 0
 500 777.614257812 522.385742188 800 550 800 c 0
 577.614257812 800 600 777.614257812 600 750 c 0
 600 722.385742188 577.614257812 700 550 700 c 0
 522.385742188 700 500 722.385742188 500 750 c 0
400 750 m 0
 400 777.614257812 422.385742188 800 450 800 c 0
 477.614257812 800 500 777.614257812 500 750 c 0
 500 722.385742188 477.614257812 700 450 700 c 0
 422.385742188 700 400 722.385742188 400 750 c 0
400 650 m 0
 400 677.614257812 422.385742188 700 450 700 c 0
 477.614257812 700 500 677.614257812 500 650 c 0
 500 622.385742188 477.614257812 600 450 600 c 0
 422.385742188 600 400 622.385742188 400 650 c 0
500 650 m 0
 500 677.614257812 522.385742188 700 550 700 c 0
 577.614257812 700 600 677.614257812 600 650 c 0
 600 622.385742188 577.614257812 600 550 600 c 0
 522.385742188 600 500 622.385742188 500 650 c 0
400 550 m 0
 400 577.614257812 422.385742188 600 450 600 c 0
 477.614257812 600 500 577.614257812 500 550 c 0
 500 522.385742188 477.614257812 500 450 500 c 0
 422.385742188 500 400 522.385742188 400 550 c 0
300 550 m 0
 300 577.614257812 322.385742188 600 350 600 c 0
 377.614257812 600 400 577.614257812 400 550 c 0
 400 522.385742188 377.614257812 500 350 500 c 0
 322.385742188 500 300 522.385742188 300 550 c 0
300 450 m 0
 300 477.614257812 322.385742188 500 350 500 c 0
 377.614257812 500 400 477.614257812 400 450 c 0
 400 422.385742188 377.614257812 400 350 400 c 0
 322.385742188 400 300 422.385742188 300 450 c 0
200 450 m 0
 200 477.614257812 222.385742188 500 250 500 c 0
 277.614257812 500 300 477.614257812 300 450 c 0
 300 422.385742188 277.614257812 400 250 400 c 0
 222.385742188 400 200 422.385742188 200 450 c 0
200 350 m 0
 200 377.614257812 222.385742188 400 250 400 c 0
 277.614257812 400 300 377.614257812 300 350 c 0
 300 322.385742188 277.614257812 300 250 300 c 0
 222.385742188 300 200 322.385742188 200 350 c 0
100 350 m 0
 100 377.614257812 122.385742188 400 150 400 c 0
 177.614257812 400 200 377.614257812 200 350 c 0
 200 322.385742188 177.614257812 300 150 300 c 0
 122.385742188 300 100 322.385742188 100 350 c 0
100 250 m 0
 100 277.614257812 122.385742188 300 150 300 c 0
 177.614257812 300 200 277.614257812 200 250 c 0
 200 222.385742188 177.614257812 200 150 200 c 0
 122.385742188 200 100 222.385742188 100 250 c 0
0 250 m 0
 0 277.614257812 22.3857421875 300 50 300 c 0
 77.6142578125 300 100 277.614257812 100 250 c 0
 100 222.385742188 77.6142578125 200 50 200 c 0
 22.3857421875 200 0 222.385742188 0 250 c 0
0 150 m 0
 0 177.614257812 22.3857421875 200 50 200 c 0
 77.6142578125 200 100 177.614257812 100 150 c 0
 100 122.385742188 77.6142578125 100 50 100 c 0
 22.3857421875 100 0 122.385742188 0 150 c 0
0 50 m 0
 0 77.6142578125 22.3857421875 100 50 100 c 0
 77.6142578125 100 100 77.6142578125 100 50 c 0
 100 22.3857421875 77.6142578125 0 50 0 c 0
 22.3857421875 0 0 22.3857421875 0 50 c 0
100 50 m 0
 100 77.6142578125 122.385742188 100 150 100 c 0
 177.614257812 100 200 77.6142578125 200 50 c 0
 200 22.3857421875 177.614257812 0 150 0 c 0
 122.385742188 0 100 22.3857421875 100 50 c 0
100 150 m 0
 100 177.614257812 122.385742188 200 150 200 c 0
 177.614257812 200 200 177.614257812 200 150 c 0
 200 122.385742188 177.614257812 100 150 100 c 0
 122.385742188 100 100 122.385742188 100 150 c 0
200 150 m 0
 200 177.614257812 222.385742188 200 250 200 c 0
 277.614257812 200 300 177.614257812 300 150 c 0
 300 122.385742188 277.614257812 100 250 100 c 0
 222.385742188 100 200 122.385742188 200 150 c 0
300 150 m 0
 300 177.614257812 322.385742188 200 350 200 c 0
 377.614257812 200 400 177.614257812 400 150 c 0
 400 122.385742188 377.614257812 100 350 100 c 0
 322.385742188 100 300 122.385742188 300 150 c 0
400 150 m 0
 400 177.614257812 422.385742188 200 450 200 c 0
 477.614257812 200 500 177.614257812 500 150 c 0
 500 122.385742188 477.614257812 100 450 100 c 0
 422.385742188 100 400 122.385742188 400 150 c 0
500 150 m 0
 500 177.614257812 522.385742188 200 550 200 c 0
 577.614257812 200 600 177.614257812 600 150 c 0
 600 122.385742188 577.614257812 100 550 100 c 0
 522.385742188 100 500 122.385742188 500 150 c 0
500 50 m 0
 500 77.6142578125 522.385742188 100 550 100 c 0
 577.614257812 100 600 77.6142578125 600 50 c 0
 600 22.3857421875 577.614257812 0 550 0 c 0
 522.385742188 0 500 22.3857421875 500 50 c 0
400 50 m 0
 400 77.6142578125 422.385742188 100 450 100 c 0
 477.614257812 100 500 77.6142578125 500 50 c 0
 500 22.3857421875 477.614257812 0 450 0 c 0
 422.385742188 0 400 22.3857421875 400 50 c 0
300 50 m 0
 300 77.6142578125 322.385742188 100 350 100 c 0
 377.614257812 100 400 77.6142578125 400 50 c 0
 400 22.3857421875 377.614257812 0 350 0 c 0
 322.385742188 0 300 22.3857421875 300 50 c 0
200 50 m 0
 200 77.6142578125 222.385742188 100 250 100 c 0
 277.614257812 100 300 77.6142578125 300 50 c 0
 300 22.3857421875 277.614257812 0 250 0 c 0
 222.385742188 0 200 22.3857421875 200 50 c 0
100 750 m 0
 100 777.614257812 122.385742188 800 150 800 c 0
 177.614257812 800 200 777.614257812 200 750 c 0
 200 722.385742188 177.614257812 700 150 700 c 0
 122.385742188 700 100 722.385742188 100 750 c 0
EndSplineSet
Validated: 524293
EndChar

StartChar: three
Encoding: 51 51 16
Width: 700
VWidth: 0
Flags: HW
LayerCount: 2
Fore
SplineSet
500 150 m 4
 500 177.614257812 522.385742188 200 550 200 c 4
 577.614257812 200 600 177.614257812 600 150 c 4
 600 122.385742188 577.614257812 100 550 100 c 4
 522.385742188 100 500 122.385742188 500 150 c 4
500 250 m 4
 500 277.614257812 522.385742188 300 550 300 c 4
 577.614257812 300 600 277.614257812 600 250 c 4
 600 222.385742188 577.614257812 200 550 200 c 4
 522.385742188 200 500 222.385742188 500 250 c 4
500 350 m 4
 500 377.614257812 522.385742188 400 550 400 c 4
 577.614257812 400 600 377.614257812 600 350 c 4
 600 322.385742188 577.614257812 300 550 300 c 4
 522.385742188 300 500 322.385742188 500 350 c 4
500 650 m 4
 500 677.614257812 522.385742188 700 550 700 c 4
 577.614257812 700 600 677.614257812 600 650 c 4
 600 622.385742188 577.614257812 600 550 600 c 4
 522.385742188 600 500 622.385742188 500 650 c 4
500 750 m 4
 500 777.614257812 522.385742188 800 550 800 c 4
 577.614257812 800 600 777.614257812 600 750 c 4
 600 722.385742188 577.614257812 700 550 700 c 4
 522.385742188 700 500 722.385742188 500 750 c 4
500 850 m 4
 500 877.614257812 522.385742188 900 550 900 c 4
 577.614257812 900 600 877.614257812 600 850 c 4
 600 822.385742188 577.614257812 800 550 800 c 4
 522.385742188 800 500 822.385742188 500 850 c 4
400 950 m 4
 400 977.614257812 422.385742188 1000 450 1000 c 4
 477.614257812 1000 500 977.614257812 500 950 c 4
 500 922.385742188 477.614257812 900 450 900 c 4
 422.385742188 900 400 922.385742188 400 950 c 4
400 850 m 4
 400 877.614257812 422.385742188 900 450 900 c 4
 477.614257812 900 500 877.614257812 500 850 c 4
 500 822.385742188 477.614257812 800 450 800 c 4
 422.385742188 800 400 822.385742188 400 850 c 4
400 750 m 4
 400 777.614257812 422.385742188 800 450 800 c 4
 477.614257812 800 500 777.614257812 500 750 c 4
 500 722.385742188 477.614257812 700 450 700 c 4
 422.385742188 700 400 722.385742188 400 750 c 4
400 650 m 4
 400 677.614257812 422.385742188 700 450 700 c 4
 477.614257812 700 500 677.614257812 500 650 c 4
 500 622.385742188 477.614257812 600 450 600 c 4
 422.385742188 600 400 622.385742188 400 650 c 4
400 550 m 4
 400 577.614257812 422.385742188 600 450 600 c 4
 477.614257812 600 500 577.614257812 500 550 c 4
 500 522.385742188 477.614257812 500 450 500 c 4
 422.385742188 500 400 522.385742188 400 550 c 4
400 450 m 4
 400 477.614257812 422.385742188 500 450 500 c 4
 477.614257812 500 500 477.614257812 500 450 c 4
 500 422.385742188 477.614257812 400 450 400 c 4
 422.385742188 400 400 422.385742188 400 450 c 4
400 350 m 4
 400 377.614257812 422.385742188 400 450 400 c 4
 477.614257812 400 500 377.614257812 500 350 c 4
 500 322.385742188 477.614257812 300 450 300 c 4
 422.385742188 300 400 322.385742188 400 350 c 4
400 250 m 4
 400 277.614257812 422.385742188 300 450 300 c 4
 477.614257812 300 500 277.614257812 500 250 c 4
 500 222.385742188 477.614257812 200 450 200 c 4
 422.385742188 200 400 222.385742188 400 250 c 4
400 150 m 4
 400 177.614257812 422.385742188 200 450 200 c 4
 477.614257812 200 500 177.614257812 500 150 c 4
 500 122.385742188 477.614257812 100 450 100 c 4
 422.385742188 100 400 122.385742188 400 150 c 4
400 50 m 4
 400 77.6142578125 422.385742188 100 450 100 c 4
 477.614257812 100 500 77.6142578125 500 50 c 4
 500 22.3857421875 477.614257812 0 450 0 c 4
 422.385742188 0 400 22.3857421875 400 50 c 4
300 50 m 4
 300 77.6142578125 322.385742188 100 350 100 c 4
 377.614257812 100 400 77.6142578125 400 50 c 4
 400 22.3857421875 377.614257812 0 350 0 c 4
 322.385742188 0 300 22.3857421875 300 50 c 4
200 50 m 4
 200 77.6142578125 222.385742188 100 250 100 c 4
 277.614257812 100 300 77.6142578125 300 50 c 4
 300 22.3857421875 277.614257812 0 250 0 c 4
 222.385742188 0 200 22.3857421875 200 50 c 4
100 50 m 4
 100 77.6142578125 122.385742188 100 150 100 c 4
 177.614257812 100 200 77.6142578125 200 50 c 4
 200 22.3857421875 177.614257812 0 150 0 c 4
 122.385742188 0 100 22.3857421875 100 50 c 4
0 150 m 4
 0 177.614257812 22.3857421875 200 50 200 c 4
 77.6142578125 200 100 177.614257812 100 150 c 4
 100 122.385742188 77.6142578125 100 50 100 c 4
 22.3857421875 100 0 122.385742188 0 150 c 4
100 150 m 4
 100 177.614257812 122.385742188 200 150 200 c 4
 177.614257812 200 200 177.614257812 200 150 c 4
 200 122.385742188 177.614257812 100 150 100 c 4
 122.385742188 100 100 122.385742188 100 150 c 4
200 150 m 4
 200 177.614257812 222.385742188 200 250 200 c 4
 277.614257812 200 300 177.614257812 300 150 c 4
 300 122.385742188 277.614257812 100 250 100 c 4
 222.385742188 100 200 122.385742188 200 150 c 4
300 150 m 4
 300 177.614257812 322.385742188 200 350 200 c 4
 377.614257812 200 400 177.614257812 400 150 c 4
 400 122.385742188 377.614257812 100 350 100 c 4
 322.385742188 100 300 122.385742188 300 150 c 4
100 250 m 4
 100 277.614257812 122.385742188 300 150 300 c 4
 177.614257812 300 200 277.614257812 200 250 c 4
 200 222.385742188 177.614257812 200 150 200 c 4
 122.385742188 200 100 222.385742188 100 250 c 4
0 250 m 4
 0 277.614257812 22.3857421875 300 50 300 c 4
 77.6142578125 300 100 277.614257812 100 250 c 4
 100 222.385742188 77.6142578125 200 50 200 c 4
 22.3857421875 200 0 222.385742188 0 250 c 4
300 450 m 4
 300 477.614257812 322.385742188 500 350 500 c 4
 377.614257812 500 400 477.614257812 400 450 c 4
 400 422.385742188 377.614257812 400 350 400 c 4
 322.385742188 400 300 422.385742188 300 450 c 4
300 550 m 4
 300 577.614257812 322.385742188 600 350 600 c 4
 377.614257812 600 400 577.614257812 400 550 c 4
 400 522.385742188 377.614257812 500 350 500 c 4
 322.385742188 500 300 522.385742188 300 550 c 4
0 750 m 4
 0 777.614257812 22.3857421875 800 50 800 c 4
 77.6142578125 800 100 777.614257812 100 750 c 4
 100 722.385742188 77.6142578125 700 50 700 c 4
 22.3857421875 700 0 722.385742188 0 750 c 4
100 750 m 4
 100 777.614257812 122.385742188 800 150 800 c 4
 177.614257812 800 200 777.614257812 200 750 c 4
 200 722.385742188 177.614257812 700 150 700 c 4
 122.385742188 700 100 722.385742188 100 750 c 4
0 850 m 4
 0 877.614257812 22.3857421875 900 50 900 c 4
 77.6142578125 900 100 877.614257812 100 850 c 4
 100 822.385742188 77.6142578125 800 50 800 c 4
 22.3857421875 800 0 822.385742188 0 850 c 4
100 850 m 4
 100 877.614257812 122.385742188 900 150 900 c 4
 177.614257812 900 200 877.614257812 200 850 c 4
 200 822.385742188 177.614257812 800 150 800 c 4
 122.385742188 800 100 822.385742188 100 850 c 4
200 850 m 4
 200 877.614257812 222.385742188 900 250 900 c 4
 277.614257812 900 300 877.614257812 300 850 c 4
 300 822.385742188 277.614257812 800 250 800 c 4
 222.385742188 800 200 822.385742188 200 850 c 4
300 850 m 4
 300 877.614257812 322.385742188 900 350 900 c 4
 377.614257812 900 400 877.614257812 400 850 c 4
 400 822.385742188 377.614257812 800 350 800 c 4
 322.385742188 800 300 822.385742188 300 850 c 4
300 950 m 4
 300 977.614257812 322.385742188 1000 350 1000 c 4
 377.614257812 1000 400 977.614257812 400 950 c 4
 400 922.385742188 377.614257812 900 350 900 c 4
 322.385742188 900 300 922.385742188 300 950 c 4
200 950 m 4
 200 977.614257812 222.385742188 1000 250 1000 c 4
 277.614257812 1000 300 977.614257812 300 950 c 4
 300 922.385742188 277.614257812 900 250 900 c 4
 222.385742188 900 200 922.385742188 200 950 c 4
100 950 m 4
 100 977.614257812 122.385742188 1000 150 1000 c 4
 177.614257812 1000 200 977.614257812 200 950 c 4
 200 922.385742188 177.614257812 900 150 900 c 4
 122.385742188 900 100 922.385742188 100 950 c 4
EndSplineSet
Validated: 524293
EndChar

StartChar: seven
Encoding: 55 55 17
Width: 700
VWidth: 0
Flags: HW
LayerCount: 2
Fore
SplineSet
0 950 m 0
 0 977.614257812 22.3857421875 1000 50 1000 c 0
 77.6142578125 1000 100 977.614257812 100 950 c 0
 100 922.385742188 77.6142578125 900 50 900 c 0
 22.3857421875 900 0 922.385742188 0 950 c 0
100 950 m 0
 100 977.614257812 122.385742188 1000 150 1000 c 0
 177.614257812 1000 200 977.614257812 200 950 c 0
 200 922.385742188 177.614257812 900 150 900 c 0
 122.385742188 900 100 922.385742188 100 950 c 0
200 950 m 0
 200 977.614257812 222.385742188 1000 250 1000 c 0
 277.614257812 1000 300 977.614257812 300 950 c 0
 300 922.385742188 277.614257812 900 250 900 c 0
 222.385742188 900 200 922.385742188 200 950 c 0
300 950 m 0
 300 977.614257812 322.385742188 1000 350 1000 c 0
 377.614257812 1000 400 977.614257812 400 950 c 0
 400 922.385742188 377.614257812 900 350 900 c 0
 322.385742188 900 300 922.385742188 300 950 c 0
400 950 m 0
 400 977.614257812 422.385742188 1000 450 1000 c 0
 477.614257812 1000 500 977.614257812 500 950 c 0
 500 922.385742188 477.614257812 900 450 900 c 0
 422.385742188 900 400 922.385742188 400 950 c 0
500 950 m 0
 500 977.614257812 522.385742188 1000 550 1000 c 0
 577.614257812 1000 600 977.614257812 600 950 c 4
 600 922.385742188 577.614257812 900 550 900 c 0
 522.385742188 900 500 922.385742188 500 950 c 0
500 850 m 0
 500 877.614257812 522.385742188 900 550 900 c 0
 577.614257812 900 600 877.614257812 600 850 c 0
 600 822.385742188 577.614257812 800 550 800 c 0
 522.385742188 800 500 822.385742188 500 850 c 0
400 850 m 0
 400 877.614257812 422.385742188 900 450 900 c 0
 477.614257812 900 500 877.614257812 500 850 c 0
 500 822.385742188 477.614257812 800 450 800 c 0
 422.385742188 800 400 822.385742188 400 850 c 0
300 850 m 0
 300 877.614257812 322.385742188 900 350 900 c 0
 377.614257812 900 400 877.614257812 400 850 c 0
 400 822.385742188 377.614257812 800 350 800 c 0
 322.385742188 800 300 822.385742188 300 850 c 0
200 850 m 0
 200 877.614257812 222.385742188 900 250 900 c 0
 277.614257812 900 300 877.614257812 300 850 c 0
 300 822.385742188 277.614257812 800 250 800 c 0
 222.385742188 800 200 822.385742188 200 850 c 0
100 850 m 0
 100 877.614257812 122.385742188 900 150 900 c 0
 177.614257812 900 200 877.614257812 200 850 c 0
 200 822.385742188 177.614257812 800 150 800 c 0
 122.385742188 800 100 822.385742188 100 850 c 0
0 850 m 0
 0 877.614257812 22.3857421875 900 50 900 c 0
 77.6142578125 900 100 877.614257812 100 850 c 0
 100 822.385742188 77.6142578125 800 50 800 c 0
 22.3857421875 800 0 822.385742188 0 850 c 0
500 750 m 0
 500 777.614257812 522.385742188 800 550 800 c 0
 577.614257812 800 600 777.614257812 600 750 c 0
 600 722.385742188 577.614257812 700 550 700 c 0
 522.385742188 700 500 722.385742188 500 750 c 0
400 750 m 0
 400 777.614257812 422.385742188 800 450 800 c 0
 477.614257812 800 500 777.614257812 500 750 c 0
 500 722.385742188 477.614257812 700 450 700 c 0
 422.385742188 700 400 722.385742188 400 750 c 0
400 650 m 0
 400 677.614257812 422.385742188 700 450 700 c 0
 477.614257812 700 500 677.614257812 500 650 c 0
 500 622.385742188 477.614257812 600 450 600 c 0
 422.385742188 600 400 622.385742188 400 650 c 0
300 650 m 0
 300 677.614257812 322.385742188 700 350 700 c 0
 377.614257812 700 400 677.614257812 400 650 c 0
 400 622.385742188 377.614257812 600 350 600 c 0
 322.385742188 600 300 622.385742188 300 650 c 0
300 550 m 0
 300 577.614257812 322.385742188 600 350 600 c 0
 377.614257812 600 400 577.614257812 400 550 c 0
 400 522.385742188 377.614257812 500 350 500 c 0
 322.385742188 500 300 522.385742188 300 550 c 0
200 550 m 0
 200 577.614257812 222.385742188 600 250 600 c 0
 277.614257812 600 300 577.614257812 300 550 c 0
 300 522.385742188 277.614257812 500 250 500 c 0
 222.385742188 500 200 522.385742188 200 550 c 0
200 450 m 0
 200 477.614257812 222.385742188 500 250 500 c 0
 277.614257812 500 300 477.614257812 300 450 c 0
 300 422.385742188 277.614257812 400 250 400 c 0
 222.385742188 400 200 422.385742188 200 450 c 0
100 450 m 0
 100 477.614257812 122.385742188 500 150 500 c 0
 177.614257812 500 200 477.614257812 200 450 c 0
 200 422.385742188 177.614257812 400 150 400 c 0
 122.385742188 400 100 422.385742188 100 450 c 0
200 350 m 0
 200 377.614257812 222.385742188 400 250 400 c 0
 277.614257812 400 300 377.614257812 300 350 c 0
 300 322.385742188 277.614257812 300 250 300 c 0
 222.385742188 300 200 322.385742188 200 350 c 0
100 350 m 0
 100 377.614257812 122.385742188 400 150 400 c 0
 177.614257812 400 200 377.614257812 200 350 c 0
 200 322.385742188 177.614257812 300 150 300 c 0
 122.385742188 300 100 322.385742188 100 350 c 0
100 250 m 0
 100 277.614257812 122.385742188 300 150 300 c 0
 177.614257812 300 200 277.614257812 200 250 c 0
 200 222.385742188 177.614257812 200 150 200 c 0
 122.385742188 200 100 222.385742188 100 250 c 0
200 250 m 0
 200 277.614257812 222.385742188 300 250 300 c 0
 277.614257812 300 300 277.614257812 300 250 c 0
 300 222.385742188 277.614257812 200 250 200 c 0
 222.385742188 200 200 222.385742188 200 250 c 0
200 150 m 0
 200 177.614257812 222.385742188 200 250 200 c 0
 277.614257812 200 300 177.614257812 300 150 c 0
 300 122.385742188 277.614257812 100 250 100 c 0
 222.385742188 100 200 122.385742188 200 150 c 0
100 150 m 0
 100 177.614257812 122.385742188 200 150 200 c 0
 177.614257812 200 200 177.614257812 200 150 c 0
 200 122.385742188 177.614257812 100 150 100 c 0
 122.385742188 100 100 122.385742188 100 150 c 0
100 50 m 0
 100 77.6142578125 122.385742188 100 150 100 c 0
 177.614257812 100 200 77.6142578125 200 50 c 0
 200 22.3857421875 177.614257812 0 150 0 c 0
 122.385742188 0 100 22.3857421875 100 50 c 0
200 50 m 0
 200 77.6142578125 222.385742188 100 250 100 c 0
 277.614257812 100 300 77.6142578125 300 50 c 0
 300 22.3857421875 277.614257812 0 250 0 c 0
 222.385742188 0 200 22.3857421875 200 50 c 0
EndSplineSet
Validated: 524293
EndChar

StartChar: g
Encoding: 103 103 18
Width: 700
VWidth: 0
Flags: HW
LayerCount: 2
Fore
SplineSet
0 -50 m 0
 0 -22.3857421875 22.3857421875 0 50 0 c 0
 77.6142578125 0 100 -22.3857421875 100 -50 c 0
 100 -77.6142578125 77.6142578125 -100 50 -100 c 0
 22.3857421875 -100 0 -77.6142578125 0 -50 c 0
100 -50 m 0
 100 -22.3857421875 122.385742188 0 150 0 c 0
 177.614257812 0 200 -22.3857421875 200 -50 c 0
 200 -77.6142578125 177.614257812 -100 150 -100 c 0
 122.385742188 -100 100 -77.6142578125 100 -50 c 0
200 -50 m 0
 200 -22.3857421875 222.385742188 0 250 0 c 0
 277.614257812 0 300 -22.3857421875 300 -50 c 0
 300 -77.6142578125 277.614257812 -100 250 -100 c 0
 222.385742188 -100 200 -77.6142578125 200 -50 c 0
300 -50 m 0
 300 -22.3857421875 322.385742188 0 350 0 c 0
 377.614257812 0 400 -22.3857421875 400 -50 c 0
 400 -77.6142578125 377.614257812 -100 350 -100 c 0
 322.385742188 -100 300 -77.6142578125 300 -50 c 0
400 -50 m 0
 400 -22.3857421875 422.385742188 0 450 0 c 0
 477.614257812 0 500 -22.3857421875 500 -50 c 0
 500 -77.6142578125 477.614257812 -100 450 -100 c 0
 422.385742188 -100 400 -77.6142578125 400 -50 c 0
500 -50 m 0
 500 -22.3857421875 522.385742188 0 550 0 c 0
 577.614257812 0 600 -22.3857421875 600 -50 c 0
 600 -77.6142578125 577.614257812 -100 550 -100 c 0
 522.385742188 -100 500 -77.6142578125 500 -50 c 0
400 -150 m 0
 400 -122.385742188 422.385742188 -100 450 -100 c 0
 477.614257812 -100 500 -122.385742188 500 -150 c 0
 500 -177.614257812 477.614257812 -200 450 -200 c 0
 422.385742188 -200 400 -177.614257812 400 -150 c 0
300 -150 m 0
 300 -122.385742188 322.385742188 -100 350 -100 c 0
 377.614257812 -100 400 -122.385742188 400 -150 c 0
 400 -177.614257812 377.614257812 -200 350 -200 c 0
 322.385742188 -200 300 -177.614257812 300 -150 c 0
200 -150 m 0
 200 -122.385742188 222.385742188 -100 250 -100 c 0
 277.614257812 -100 300 -122.385742188 300 -150 c 0
 300 -177.614257812 277.614257812 -200 250 -200 c 0
 222.385742188 -200 200 -177.614257812 200 -150 c 0
100 -150 m 0
 100 -122.385742188 122.385742188 -100 150 -100 c 0
 177.614257812 -100 200 -122.385742188 200 -150 c 0
 200 -177.614257812 177.614257812 -200 150 -200 c 0
 122.385742188 -200 100 -177.614257812 100 -150 c 0
400 50 m 0
 400 77.6142578125 422.385742188 100 450 100 c 0
 477.614257812 100 500 77.6142578125 500 50 c 0
 500 22.3857421875 477.614257812 0 450 0 c 0
 422.385742188 0 400 22.3857421875 400 50 c 0
500 50 m 0
 500 77.6142578125 522.385742188 100 550 100 c 0
 577.614257812 100 600 77.6142578125 600 50 c 0
 600 22.3857421875 577.614257812 0 550 0 c 0
 522.385742188 0 500 22.3857421875 500 50 c 0
500 150 m 0
 500 177.614257812 522.385742188 200 550 200 c 0
 577.614257812 200 600 177.614257812 600 150 c 0
 600 122.385742188 577.614257812 100 550 100 c 0
 522.385742188 100 500 122.385742188 500 150 c 0
400 150 m 0
 400 177.614257812 422.385742188 200 450 200 c 0
 477.614257812 200 500 177.614257812 500 150 c 0
 500 122.385742188 477.614257812 100 450 100 c 0
 422.385742188 100 400 122.385742188 400 150 c 0
300 150 m 0
 300 177.614257812 322.385742188 200 350 200 c 0
 377.614257812 200 400 177.614257812 400 150 c 0
 400 122.385742188 377.614257812 100 350 100 c 0
 322.385742188 100 300 122.385742188 300 150 c 0
200 150 m 0
 200 177.614257812 222.385742188 200 250 200 c 0
 277.614257812 200 300 177.614257812 300 150 c 0
 300 122.385742188 277.614257812 100 250 100 c 0
 222.385742188 100 200 122.385742188 200 150 c 0
100 150 m 0
 100 177.614257812 122.385742188 200 150 200 c 0
 177.614257812 200 200 177.614257812 200 150 c 0
 200 122.385742188 177.614257812 100 150 100 c 0
 122.385742188 100 100 122.385742188 100 150 c 0
0 250 m 0
 0 277.614257812 22.3857421875 300 50 300 c 0
 77.6142578125 300 100 277.614257812 100 250 c 0
 100 222.385742188 77.6142578125 200 50 200 c 0
 22.3857421875 200 0 222.385742188 0 250 c 0
100 250 m 0
 100 277.614257812 122.385742188 300 150 300 c 0
 177.614257812 300 200 277.614257812 200 250 c 0
 200 222.385742188 177.614257812 200 150 200 c 0
 122.385742188 200 100 222.385742188 100 250 c 0
200 250 m 0
 200 277.614257812 222.385742188 300 250 300 c 0
 277.614257812 300 300 277.614257812 300 250 c 0
 300 222.385742188 277.614257812 200 250 200 c 0
 222.385742188 200 200 222.385742188 200 250 c 0
300 250 m 0
 300 277.614257812 322.385742188 300 350 300 c 0
 377.614257812 300 400 277.614257812 400 250 c 0
 400 222.385742188 377.614257812 200 350 200 c 0
 322.385742188 200 300 222.385742188 300 250 c 0
400 250 m 0
 400 277.614257812 422.385742188 300 450 300 c 0
 477.614257812 300 500 277.614257812 500 250 c 0
 500 222.385742188 477.614257812 200 450 200 c 0
 422.385742188 200 400 222.385742188 400 250 c 0
500 250 m 0
 500 277.614257812 522.385742188 300 550 300 c 0
 577.614257812 300 600 277.614257812 600 250 c 0
 600 222.385742188 577.614257812 200 550 200 c 0
 522.385742188 200 500 222.385742188 500 250 c 0
500 350 m 0
 500 377.614257812 522.385742188 400 550 400 c 0
 577.614257812 400 600 377.614257812 600 350 c 0
 600 322.385742188 577.614257812 300 550 300 c 0
 522.385742188 300 500 322.385742188 500 350 c 0
500 450 m 0
 500 477.614257812 522.385742188 500 550 500 c 0
 577.614257812 500 600 477.614257812 600 450 c 0
 600 422.385742188 577.614257812 400 550 400 c 0
 522.385742188 400 500 422.385742188 500 450 c 0
500 550 m 0
 500 577.614257812 522.385742188 600 550 600 c 0
 577.614257812 600 600 577.614257812 600 550 c 0
 600 522.385742188 577.614257812 500 550 500 c 0
 522.385742188 500 500 522.385742188 500 550 c 0
500 650 m 0
 500 677.614257812 522.385742188 700 550 700 c 0
 577.614257812 700 600 677.614257812 600 650 c 0
 600 622.385742188 577.614257812 600 550 600 c 0
 522.385742188 600 500 622.385742188 500 650 c 0
400 750 m 0
 400 777.614257812 422.385742188 800 450 800 c 0
 477.614257812 800 500 777.614257812 500 750 c 0
 500 722.385742188 477.614257812 700 450 700 c 0
 422.385742188 700 400 722.385742188 400 750 c 0
300 750 m 0
 300 777.614257812 322.385742188 800 350 800 c 0
 377.614257812 800 400 777.614257812 400 750 c 0
 400 722.385742188 377.614257812 700 350 700 c 0
 322.385742188 700 300 722.385742188 300 750 c 0
200 750 m 0
 200 777.614257812 222.385742188 800 250 800 c 0
 277.614257812 800 300 777.614257812 300 750 c 0
 300 722.385742188 277.614257812 700 250 700 c 0
 222.385742188 700 200 722.385742188 200 750 c 0
100 750 m 0
 100 777.614257812 122.385742188 800 150 800 c 0
 177.614257812 800 200 777.614257812 200 750 c 0
 200 722.385742188 177.614257812 700 150 700 c 0
 122.385742188 700 100 722.385742188 100 750 c 0
0 650 m 0
 0 677.614257812 22.3857421875 700 50 700 c 0
 77.6142578125 700 100 677.614257812 100 650 c 0
 100 622.385742188 77.6142578125 600 50 600 c 0
 22.3857421875 600 0 622.385742188 0 650 c 0
0 550 m 0
 0 577.614257812 22.3857421875 600 50 600 c 0
 77.6142578125 600 100 577.614257812 100 550 c 0
 100 522.385742188 77.6142578125 500 50 500 c 0
 22.3857421875 500 0 522.385742188 0 550 c 0
0 450 m 0
 0 477.614257812 22.3857421875 500 50 500 c 0
 77.6142578125 500 100 477.614257812 100 450 c 0
 100 422.385742188 77.6142578125 400 50 400 c 0
 22.3857421875 400 0 422.385742188 0 450 c 0
0 350 m 0
 0 377.614257812 22.3857421875 400 50 400 c 0
 77.6142578125 400 100 377.614257812 100 350 c 0
 100 322.385742188 77.6142578125 300 50 300 c 0
 22.3857421875 300 0 322.385742188 0 350 c 0
100 350 m 0
 100 377.614257812 122.385742188 400 150 400 c 0
 177.614257812 400 200 377.614257812 200 350 c 0
 200 322.385742188 177.614257812 300 150 300 c 0
 122.385742188 300 100 322.385742188 100 350 c 0
100 450 m 0
 100 477.614257812 122.385742188 500 150 500 c 0
 177.614257812 500 200 477.614257812 200 450 c 0
 200 422.385742188 177.614257812 400 150 400 c 0
 122.385742188 400 100 422.385742188 100 450 c 0
100 550 m 0
 100 577.614257812 122.385742188 600 150 600 c 0
 177.614257812 600 200 577.614257812 200 550 c 0
 200 522.385742188 177.614257812 500 150 500 c 0
 122.385742188 500 100 522.385742188 100 550 c 0
100 650 m 0
 100 677.614257812 122.385742188 700 150 700 c 0
 177.614257812 700 200 677.614257812 200 650 c 0
 200 622.385742188 177.614257812 600 150 600 c 0
 122.385742188 600 100 622.385742188 100 650 c 0
200 650 m 0
 200 677.614257812 222.385742188 700 250 700 c 0
 277.614257812 700 300 677.614257812 300 650 c 0
 300 622.385742188 277.614257812 600 250 600 c 0
 222.385742188 600 200 622.385742188 200 650 c 0
300 650 m 0
 300 677.614257812 322.385742188 700 350 700 c 0
 377.614257812 700 400 677.614257812 400 650 c 0
 400 622.385742188 377.614257812 600 350 600 c 0
 322.385742188 600 300 622.385742188 300 650 c 0
400 650 m 0
 400 677.614257812 422.385742188 700 450 700 c 0
 477.614257812 700 500 677.614257812 500 650 c 0
 500 622.385742188 477.614257812 600 450 600 c 0
 422.385742188 600 400 622.385742188 400 650 c 0
400 550 m 0
 400 577.614257812 422.385742188 600 450 600 c 0
 477.614257812 600 500 577.614257812 500 550 c 0
 500 522.385742188 477.614257812 500 450 500 c 0
 422.385742188 500 400 522.385742188 400 550 c 0
400 450 m 0
 400 477.614257812 422.385742188 500 450 500 c 0
 477.614257812 500 500 477.614257812 500 450 c 0
 500 422.385742188 477.614257812 400 450 400 c 0
 422.385742188 400 400 422.385742188 400 450 c 0
400 350 m 0
 400 377.614257812 422.385742188 400 450 400 c 0
 477.614257812 400 500 377.614257812 500 350 c 0
 500 322.385742188 477.614257812 300 450 300 c 0
 422.385742188 300 400 322.385742188 400 350 c 0
EndSplineSet
Validated: 524293
EndChar

StartChar: l
Encoding: 108 108 19
Width: 300
VWidth: 0
Flags: HW
LayerCount: 2
Fore
SplineSet
0 950 m 0
 0 977.614257812 22.3857421875 1000 50 1000 c 0
 77.6142578125 1000 100 977.614257812 100 950 c 0
 100 922.385742188 77.6142578125 900 50 900 c 0
 22.3857421875 900 0 922.385742188 0 950 c 0
0 850 m 0
 0 877.614257812 22.3857421875 900 50 900 c 0
 77.6142578125 900 100 877.614257812 100 850 c 0
 100 822.385742188 77.6142578125 800 50 800 c 0
 22.3857421875 800 0 822.385742188 0 850 c 0
0 750 m 0
 0 777.614257812 22.3857421875 800 50 800 c 0
 77.6142578125 800 100 777.614257812 100 750 c 0
 100 722.385742188 77.6142578125 700 50 700 c 0
 22.3857421875 700 0 722.385742188 0 750 c 0
0 650 m 0
 0 677.614257812 22.3857421875 700 50 700 c 0
 77.6142578125 700 100 677.614257812 100 650 c 0
 100 622.385742188 77.6142578125 600 50 600 c 0
 22.3857421875 600 0 622.385742188 0 650 c 0
0 550 m 0
 0 577.614257812 22.3857421875 600 50 600 c 0
 77.6142578125 600 100 577.614257812 100 550 c 0
 100 522.385742188 77.6142578125 500 50 500 c 0
 22.3857421875 500 0 522.385742188 0 550 c 0
0 450 m 0
 0 477.614257812 22.3857421875 500 50 500 c 0
 77.6142578125 500 100 477.614257812 100 450 c 0
 100 422.385742188 77.6142578125 400 50 400 c 0
 22.3857421875 400 0 422.385742188 0 450 c 0
0 350 m 0
 0 377.614257812 22.3857421875 400 50 400 c 0
 77.6142578125 400 100 377.614257812 100 350 c 0
 100 322.385742188 77.6142578125 300 50 300 c 0
 22.3857421875 300 0 322.385742188 0 350 c 0
0 250 m 0
 0 277.614257812 22.3857421875 300 50 300 c 0
 77.6142578125 300 100 277.614257812 100 250 c 0
 100 222.385742188 77.6142578125 200 50 200 c 0
 22.3857421875 200 0 222.385742188 0 250 c 0
0 150 m 0
 0 177.614257812 22.3857421875 200 50 200 c 0
 77.6142578125 200 100 177.614257812 100 150 c 0
 100 122.385742188 77.6142578125 100 50 100 c 0
 22.3857421875 100 0 122.385742188 0 150 c 0
0 50 m 0
 0 77.6142578125 22.3857421875 100 50 100 c 0
 77.6142578125 100 100 77.6142578125 100 50 c 0
 100 22.3857421875 77.6142578125 0 50 0 c 0
 22.3857421875 0 0 22.3857421875 0 50 c 0
100 50 m 0
 100 77.6142578125 122.385742188 100 150 100 c 0
 177.614257812 100 200 77.6142578125 200 50 c 0
 200 22.3857421875 177.614257812 0 150 0 c 0
 122.385742188 0 100 22.3857421875 100 50 c 0
100 150 m 0
 100 177.614257812 122.385742188 200 150 200 c 0
 177.614257812 200 200 177.614257812 200 150 c 0
 200 122.385742188 177.614257812 100 150 100 c 0
 122.385742188 100 100 122.385742188 100 150 c 0
100 250 m 0
 100 277.614257812 122.385742188 300 150 300 c 0
 177.614257812 300 200 277.614257812 200 250 c 0
 200 222.385742188 177.614257812 200 150 200 c 0
 122.385742188 200 100 222.385742188 100 250 c 0
100 350 m 0
 100 377.614257812 122.385742188 400 150 400 c 0
 177.614257812 400 200 377.614257812 200 350 c 0
 200 322.385742188 177.614257812 300 150 300 c 0
 122.385742188 300 100 322.385742188 100 350 c 0
100 450 m 0
 100 477.614257812 122.385742188 500 150 500 c 0
 177.614257812 500 200 477.614257812 200 450 c 0
 200 422.385742188 177.614257812 400 150 400 c 0
 122.385742188 400 100 422.385742188 100 450 c 0
100 550 m 0
 100 577.614257812 122.385742188 600 150 600 c 0
 177.614257812 600 200 577.614257812 200 550 c 0
 200 522.385742188 177.614257812 500 150 500 c 0
 122.385742188 500 100 522.385742188 100 550 c 0
100 650 m 0
 100 677.614257812 122.385742188 700 150 700 c 0
 177.614257812 700 200 677.614257812 200 650 c 0
 200 622.385742188 177.614257812 600 150 600 c 0
 122.385742188 600 100 622.385742188 100 650 c 0
100 750 m 0
 100 777.614257812 122.385742188 800 150 800 c 0
 177.614257812 800 200 777.614257812 200 750 c 0
 200 722.385742188 177.614257812 700 150 700 c 0
 122.385742188 700 100 722.385742188 100 750 c 0
100 850 m 0
 100 877.614257812 122.385742188 900 150 900 c 0
 177.614257812 900 200 877.614257812 200 850 c 0
 200 822.385742188 177.614257812 800 150 800 c 0
 122.385742188 800 100 822.385742188 100 850 c 0
100 950 m 0
 100 977.614257812 122.385742188 1000 150 1000 c 0
 177.614257812 1000 200 977.614257812 200 950 c 0
 200 922.385742188 177.614257812 900 150 900 c 0
 122.385742188 900 100 922.385742188 100 950 c 0
EndSplineSet
Validated: 524293
EndChar

StartChar: C
Encoding: 67 67 21
Width: 700
VWidth: 0
Flags: HW
LayerCount: 2
Fore
SplineSet
0 850 m 0
 0 877.614257812 22.3857421875 900 50 900 c 0
 77.6142578125 900 100 877.614257812 100 850 c 0
 100 822.385742188 77.6142578125 800 50 800 c 0
 22.3857421875 800 0 822.385742188 0 850 c 0
0 650 m 0
 0 677.614257812 22.3857421875 700 50 700 c 0
 77.6142578125 700 100 677.614257812 100 650 c 0
 100 622.385742188 77.6142578125 600 50 600 c 0
 22.3857421875 600 0 622.385742188 0 650 c 0
0 550 m 0
 0 577.614257812 22.3857421875 600 50 600 c 0
 77.6142578125 600 100 577.614257812 100 550 c 0
 100 522.385742188 77.6142578125 500 50 500 c 0
 22.3857421875 500 0 522.385742188 0 550 c 0
0 450 m 0
 0 477.614257812 22.3857421875 500 50 500 c 0
 77.6142578125 500 100 477.614257812 100 450 c 0
 100 422.385742188 77.6142578125 400 50 400 c 0
 22.3857421875 400 0 422.385742188 0 450 c 0
0 350 m 0
 0 377.614257812 22.3857421875 400 50 400 c 0
 77.6142578125 400 100 377.614257812 100 350 c 0
 100 322.385742188 77.6142578125 300 50 300 c 0
 22.3857421875 300 0 322.385742188 0 350 c 0
0 250 m 0
 0 277.614257812 22.3857421875 300 50 300 c 0
 77.6142578125 300 100 277.614257812 100 250 c 0
 100 222.385742188 77.6142578125 200 50 200 c 0
 22.3857421875 200 0 222.385742188 0 250 c 0
0 150 m 0
 0 177.614257812 22.3857421875 200 50 200 c 0
 77.6142578125 200 100 177.614257812 100 150 c 0
 100 122.385742188 77.6142578125 100 50 100 c 0
 22.3857421875 100 0 122.385742188 0 150 c 0
100 150 m 0
 100 177.614257812 122.385742188 200 150 200 c 0
 177.614257812 200 200 177.614257812 200 150 c 0
 200 122.385742188 177.614257812 100 150 100 c 0
 122.385742188 100 100 122.385742188 100 150 c 0
100 250 m 0
 100 277.614257812 122.385742188 300 150 300 c 0
 177.614257812 300 200 277.614257812 200 250 c 0
 200 222.385742188 177.614257812 200 150 200 c 0
 122.385742188 200 100 222.385742188 100 250 c 0
100 350 m 0
 100 377.614257812 122.385742188 400 150 400 c 0
 177.614257812 400 200 377.614257812 200 350 c 0
 200 322.385742188 177.614257812 300 150 300 c 0
 122.385742188 300 100 322.385742188 100 350 c 0
100 450 m 0
 100 477.614257812 122.385742188 500 150 500 c 0
 177.614257812 500 200 477.614257812 200 450 c 0
 200 422.385742188 177.614257812 400 150 400 c 0
 122.385742188 400 100 422.385742188 100 450 c 0
100 550 m 0
 100 577.614257812 122.385742188 600 150 600 c 0
 177.614257812 600 200 577.614257812 200 550 c 0
 200 522.385742188 177.614257812 500 150 500 c 0
 122.385742188 500 100 522.385742188 100 550 c 0
100 650 m 0
 100 677.614257812 122.385742188 700 150 700 c 0
 177.614257812 700 200 677.614257812 200 650 c 0
 200 622.385742188 177.614257812 600 150 600 c 0
 122.385742188 600 100 622.385742188 100 650 c 0
100 750 m 0
 100 777.614257812 122.385742188 800 150 800 c 0
 177.614257812 800 200 777.614257812 200 750 c 0
 200 722.385742188 177.614257812 700 150 700 c 0
 122.385742188 700 100 722.385742188 100 750 c 0
0 750 m 0
 0 777.614257812 22.3857421875 800 50 800 c 0
 77.6142578125 800 100 777.614257812 100 750 c 0
 100 722.385742188 77.6142578125 700 50 700 c 0
 22.3857421875 700 0 722.385742188 0 750 c 0
100 50 m 0
 100 77.6142578125 122.385742188 100 150 100 c 0
 177.614257812 100 200 77.6142578125 200 50 c 0
 200 22.3857421875 177.614257812 0 150 0 c 0
 122.385742188 0 100 22.3857421875 100 50 c 0
200 50 m 0
 200 77.6142578125 222.385742188 100 250 100 c 0
 277.614257812 100 300 77.6142578125 300 50 c 0
 300 22.3857421875 277.614257812 0 250 0 c 0
 222.385742188 0 200 22.3857421875 200 50 c 0
300 50 m 0
 300 77.6142578125 322.385742188 100 350 100 c 0
 377.614257812 100 400 77.6142578125 400 50 c 0
 400 22.3857421875 377.614257812 0 350 0 c 0
 322.385742188 0 300 22.3857421875 300 50 c 0
400 50 m 0
 400 77.6142578125 422.385742188 100 450 100 c 0
 477.614257812 100 500 77.6142578125 500 50 c 0
 500 22.3857421875 477.614257812 0 450 0 c 0
 422.385742188 0 400 22.3857421875 400 50 c 0
400 150 m 0
 400 177.614257812 422.385742188 200 450 200 c 0
 477.614257812 200 500 177.614257812 500 150 c 0
 500 122.385742188 477.614257812 100 450 100 c 0
 422.385742188 100 400 122.385742188 400 150 c 0
300 150 m 0
 300 177.614257812 322.385742188 200 350 200 c 0
 377.614257812 200 400 177.614257812 400 150 c 0
 400 122.385742188 377.614257812 100 350 100 c 0
 322.385742188 100 300 122.385742188 300 150 c 0
200 150 m 0
 200 177.614257812 222.385742188 200 250 200 c 0
 277.614257812 200 300 177.614257812 300 150 c 0
 300 122.385742188 277.614257812 100 250 100 c 0
 222.385742188 100 200 122.385742188 200 150 c 0
500 150 m 0
 500 177.614257812 522.385742188 200 550 200 c 0
 577.614257812 200 600 177.614257812 600 150 c 0
 600 122.385742188 577.614257812 100 550 100 c 0
 522.385742188 100 500 122.385742188 500 150 c 0
500 250 m 0
 500 277.614257812 522.385742188 300 550 300 c 0
 577.614257812 300 600 277.614257812 600 250 c 0
 600 222.385742188 577.614257812 200 550 200 c 0
 522.385742188 200 500 222.385742188 500 250 c 0
400 250 m 0
 400 277.614257812 422.385742188 300 450 300 c 0
 477.614257812 300 500 277.614257812 500 250 c 0
 500 222.385742188 477.614257812 200 450 200 c 0
 422.385742188 200 400 222.385742188 400 250 c 0
100 950 m 0
 100 977.614257812 122.385742188 1000 150 1000 c 0
 177.614257812 1000 200 977.614257812 200 950 c 0
 200 922.385742188 177.614257812 900 150 900 c 0
 122.385742188 900 100 922.385742188 100 950 c 0
200 950 m 0
 200 977.614257812 222.385742188 1000 250 1000 c 0
 277.614257812 1000 300 977.614257812 300 950 c 0
 300 922.385742188 277.614257812 900 250 900 c 0
 222.385742188 900 200 922.385742188 200 950 c 0
300 950 m 0
 300 977.614257812 322.385742188 1000 350 1000 c 0
 377.614257812 1000 400 977.614257812 400 950 c 0
 400 922.385742188 377.614257812 900 350 900 c 0
 322.385742188 900 300 922.385742188 300 950 c 0
400 950 m 0
 400 977.614257812 422.385742188 1000 450 1000 c 0
 477.614257812 1000 500 977.614257812 500 950 c 0
 500 922.385742188 477.614257812 900 450 900 c 0
 422.385742188 900 400 922.385742188 400 950 c 0
500 850 m 0
 500 877.614257812 522.385742188 900 550 900 c 0
 577.614257812 900 600 877.614257812 600 850 c 0
 600 822.385742188 577.614257812 800 550 800 c 0
 522.385742188 800 500 822.385742188 500 850 c 0
400 850 m 0
 400 877.614257812 422.385742188 900 450 900 c 0
 477.614257812 900 500 877.614257812 500 850 c 0
 500 822.385742188 477.614257812 800 450 800 c 0
 422.385742188 800 400 822.385742188 400 850 c 0
300 850 m 0
 300 877.614257812 322.385742188 900 350 900 c 0
 377.614257812 900 400 877.614257812 400 850 c 0
 400 822.385742188 377.614257812 800 350 800 c 0
 322.385742188 800 300 822.385742188 300 850 c 0
200 850 m 0
 200 877.614257812 222.385742188 900 250 900 c 0
 277.614257812 900 300 877.614257812 300 850 c 0
 300 822.385742188 277.614257812 800 250 800 c 0
 222.385742188 800 200 822.385742188 200 850 c 0
100 850 m 0
 100 877.614257812 122.385742188 900 150 900 c 0
 177.614257812 900 200 877.614257812 200 850 c 0
 200 822.385742188 177.614257812 800 150 800 c 0
 122.385742188 800 100 822.385742188 100 850 c 0
400 750 m 0
 400 777.614257812 422.385742188 800 450 800 c 0
 477.614257812 800 500 777.614257812 500 750 c 0
 500 722.385742188 477.614257812 700 450 700 c 0
 422.385742188 700 400 722.385742188 400 750 c 0
500 750 m 0
 500 777.614257812 522.385742188 800 550 800 c 0
 577.614257812 800 600 777.614257812 600 750 c 0
 600 722.385742188 577.614257812 700 550 700 c 0
 522.385742188 700 500 722.385742188 500 750 c 0
EndSplineSet
Validated: 524293
EndChar

StartChar: e
Encoding: 101 101 22
Width: 700
VWidth: 0
Flags: HW
LayerCount: 2
Fore
SplineSet
500 150 m 0
 500 177.614257812 522.385742188 200 550 200 c 0
 577.614257812 200 600 177.614257812 600 150 c 0
 600 122.385742188 577.614257812 100 550 100 c 0
 522.385742188 100 500 122.385742188 500 150 c 0
400 150 m 0
 400 177.614257812 422.385742188 200 450 200 c 0
 477.614257812 200 500 177.614257812 500 150 c 0
 500 122.385742188 477.614257812 100 450 100 c 0
 422.385742188 100 400 122.385742188 400 150 c 0
300 150 m 0
 300 177.614257812 322.385742188 200 350 200 c 0
 377.614257812 200 400 177.614257812 400 150 c 0
 400 122.385742188 377.614257812 100 350 100 c 0
 322.385742188 100 300 122.385742188 300 150 c 0
200 150 m 0
 200 177.614257812 222.385742188 200 250 200 c 0
 277.614257812 200 300 177.614257812 300 150 c 0
 300 122.385742188 277.614257812 100 250 100 c 0
 222.385742188 100 200 122.385742188 200 150 c 0
100 150 m 0
 100 177.614257812 122.385742188 200 150 200 c 0
 177.614257812 200 200 177.614257812 200 150 c 0
 200 122.385742188 177.614257812 100 150 100 c 0
 122.385742188 100 100 122.385742188 100 150 c 0
0 150 m 0
 0 177.614257812 22.3857421875 200 50 200 c 0
 77.6142578125 200 100 177.614257812 100 150 c 0
 100 122.385742188 77.6142578125 100 50 100 c 0
 22.3857421875 100 0 122.385742188 0 150 c 0
100 50 m 0
 100 77.6142578125 122.385742188 100 150 100 c 0
 177.614257812 100 200 77.6142578125 200 50 c 0
 200 22.3857421875 177.614257812 0 150 0 c 0
 122.385742188 0 100 22.3857421875 100 50 c 0
200 50 m 0
 200 77.6142578125 222.385742188 100 250 100 c 0
 277.614257812 100 300 77.6142578125 300 50 c 0
 300 22.3857421875 277.614257812 0 250 0 c 0
 222.385742188 0 200 22.3857421875 200 50 c 0
300 50 m 0
 300 77.6142578125 322.385742188 100 350 100 c 0
 377.614257812 100 400 77.6142578125 400 50 c 0
 400 22.3857421875 377.614257812 0 350 0 c 0
 322.385742188 0 300 22.3857421875 300 50 c 0
400 50 m 0
 400 77.6142578125 422.385742188 100 450 100 c 0
 477.614257812 100 500 77.6142578125 500 50 c 0
 500 22.3857421875 477.614257812 0 450 0 c 0
 422.385742188 0 400 22.3857421875 400 50 c 0
0 250 m 0
 0 277.614257812 22.3857421875 300 50 300 c 0
 77.6142578125 300 100 277.614257812 100 250 c 0
 100 222.385742188 77.6142578125 200 50 200 c 0
 22.3857421875 200 0 222.385742188 0 250 c 0
100 250 m 0
 100 277.614257812 122.385742188 300 150 300 c 0
 177.614257812 300 200 277.614257812 200 250 c 0
 200 222.385742188 177.614257812 200 150 200 c 0
 122.385742188 200 100 222.385742188 100 250 c 0
100 350 m 0
 100 377.614257812 122.385742188 400 150 400 c 0
 177.614257812 400 200 377.614257812 200 350 c 0
 200 322.385742188 177.614257812 300 150 300 c 0
 122.385742188 300 100 322.385742188 100 350 c 0
0 350 m 0
 0 377.614257812 22.3857421875 400 50 400 c 0
 77.6142578125 400 100 377.614257812 100 350 c 0
 100 322.385742188 77.6142578125 300 50 300 c 0
 22.3857421875 300 0 322.385742188 0 350 c 0
0 450 m 0
 0 477.614257812 22.3857421875 500 50 500 c 0
 77.6142578125 500 100 477.614257812 100 450 c 0
 100 422.385742188 77.6142578125 400 50 400 c 0
 22.3857421875 400 0 422.385742188 0 450 c 0
100 450 m 0
 100 477.614257812 122.385742188 500 150 500 c 0
 177.614257812 500 200 477.614257812 200 450 c 0
 200 422.385742188 177.614257812 400 150 400 c 0
 122.385742188 400 100 422.385742188 100 450 c 0
100 550 m 0
 100 577.614257812 122.385742188 600 150 600 c 0
 177.614257812 600 200 577.614257812 200 550 c 0
 200 522.385742188 177.614257812 500 150 500 c 0
 122.385742188 500 100 522.385742188 100 550 c 0
0 550 m 0
 0 577.614257812 22.3857421875 600 50 600 c 0
 77.6142578125 600 100 577.614257812 100 550 c 0
 100 522.385742188 77.6142578125 500 50 500 c 0
 22.3857421875 500 0 522.385742188 0 550 c 0
0 650 m 0
 0 677.614257812 22.3857421875 700 50 700 c 0
 77.6142578125 700 100 677.614257812 100 650 c 0
 100 622.385742188 77.6142578125 600 50 600 c 0
 22.3857421875 600 0 622.385742188 0 650 c 0
100 650 m 0
 100 677.614257812 122.385742188 700 150 700 c 0
 177.614257812 700 200 677.614257812 200 650 c 0
 200 622.385742188 177.614257812 600 150 600 c 0
 122.385742188 600 100 622.385742188 100 650 c 0
100 750 m 0
 100 777.614257812 122.385742188 800 150 800 c 0
 177.614257812 800 200 777.614257812 200 750 c 0
 200 722.385742188 177.614257812 700 150 700 c 0
 122.385742188 700 100 722.385742188 100 750 c 0
200 750 m 0
 200 777.614257812 222.385742188 800 250 800 c 0
 277.614257812 800 300 777.614257812 300 750 c 0
 300 722.385742188 277.614257812 700 250 700 c 0
 222.385742188 700 200 722.385742188 200 750 c 0
300 750 m 0
 300 777.614257812 322.385742188 800 350 800 c 0
 377.614257812 800 400 777.614257812 400 750 c 0
 400 722.385742188 377.614257812 700 350 700 c 0
 322.385742188 700 300 722.385742188 300 750 c 0
400 750 m 0
 400 777.614257812 422.385742188 800 450 800 c 0
 477.614257812 800 500 777.614257812 500 750 c 0
 500 722.385742188 477.614257812 700 450 700 c 0
 422.385742188 700 400 722.385742188 400 750 c 0
500 650 m 0
 500 677.614257812 522.385742188 700 550 700 c 0
 577.614257812 700 600 677.614257812 600 650 c 0
 600 622.385742188 577.614257812 600 550 600 c 0
 522.385742188 600 500 622.385742188 500 650 c 0
200 350 m 0
 200 377.614257812 222.385742188 400 250 400 c 0
 277.614257812 400 300 377.614257812 300 350 c 0
 300 322.385742188 277.614257812 300 250 300 c 0
 222.385742188 300 200 322.385742188 200 350 c 0
200 450 m 0
 200 477.614257812 222.385742188 500 250 500 c 0
 277.614257812 500 300 477.614257812 300 450 c 0
 300 422.385742188 277.614257812 400 250 400 c 0
 222.385742188 400 200 422.385742188 200 450 c 0
300 450 m 0
 300 477.614257812 322.385742188 500 350 500 c 0
 377.614257812 500 400 477.614257812 400 450 c 0
 400 422.385742188 377.614257812 400 350 400 c 0
 322.385742188 400 300 422.385742188 300 450 c 0
400 450 m 0
 400 477.614257812 422.385742188 500 450 500 c 0
 477.614257812 500 500 477.614257812 500 450 c 0
 500 422.385742188 477.614257812 400 450 400 c 0
 422.385742188 400 400 422.385742188 400 450 c 0
500 450 m 0
 500 477.614257812 522.385742188 500 550 500 c 0
 577.614257812 500 600 477.614257812 600 450 c 0
 600 422.385742188 577.614257812 400 550 400 c 0
 522.385742188 400 500 422.385742188 500 450 c 0
500 350 m 0
 500 377.614257812 522.385742188 400 550 400 c 0
 577.614257812 400 600 377.614257812 600 350 c 0
 600 322.385742188 577.614257812 300 550 300 c 0
 522.385742188 300 500 322.385742188 500 350 c 0
400 350 m 0
 400 377.614257812 422.385742188 400 450 400 c 0
 477.614257812 400 500 377.614257812 500 350 c 0
 500 322.385742188 477.614257812 300 450 300 c 0
 422.385742188 300 400 322.385742188 400 350 c 0
300 350 m 0
 300 377.614257812 322.385742188 400 350 400 c 0
 377.614257812 400 400 377.614257812 400 350 c 0
 400 322.385742188 377.614257812 300 350 300 c 0
 322.385742188 300 300 322.385742188 300 350 c 0
500 550 m 0
 500 577.614257812 522.385742188 600 550 600 c 0
 577.614257812 600 600 577.614257812 600 550 c 0
 600 522.385742188 577.614257812 500 550 500 c 0
 522.385742188 500 500 522.385742188 500 550 c 0
400 550 m 0
 400 577.614257812 422.385742188 600 450 600 c 0
 477.614257812 600 500 577.614257812 500 550 c 0
 500 522.385742188 477.614257812 500 450 500 c 0
 422.385742188 500 400 522.385742188 400 550 c 0
400 650 m 0
 400 677.614257812 422.385742188 700 450 700 c 0
 477.614257812 700 500 677.614257812 500 650 c 0
 500 622.385742188 477.614257812 600 450 600 c 0
 422.385742188 600 400 622.385742188 400 650 c 0
300 650 m 0
 300 677.614257812 322.385742188 700 350 700 c 0
 377.614257812 700 400 677.614257812 400 650 c 0
 400 622.385742188 377.614257812 600 350 600 c 0
 322.385742188 600 300 622.385742188 300 650 c 0
200 650 m 0
 200 677.614257812 222.385742188 700 250 700 c 0
 277.614257812 700 300 677.614257812 300 650 c 0
 300 622.385742188 277.614257812 600 250 600 c 0
 222.385742188 600 200 622.385742188 200 650 c 0
EndSplineSet
Validated: 524293
EndChar

StartChar: p
Encoding: 112 112 23
Width: 700
VWidth: 0
Flags: HW
LayerCount: 2
Fore
SplineSet
0 -150 m 0
 0 -122.385742188 22.3857421875 -100 50 -100 c 0
 77.6142578125 -100 100 -122.385742188 100 -150 c 0
 100 -177.614257812 77.6142578125 -200 50 -200 c 0
 22.3857421875 -200 0 -177.614257812 0 -150 c 0
100 -150 m 0
 100 -122.385742188 122.385742188 -100 150 -100 c 0
 177.614257812 -100 200 -122.385742188 200 -150 c 0
 200 -177.614257812 177.614257812 -200 150 -200 c 0
 122.385742188 -200 100 -177.614257812 100 -150 c 0
100 -50 m 0
 100 -22.3857421875 122.385742188 0 150 0 c 0
 177.614257812 0 200 -22.3857421875 200 -50 c 0
 200 -77.6142578125 177.614257812 -100 150 -100 c 0
 122.385742188 -100 100 -77.6142578125 100 -50 c 0
0 -50 m 0
 0 -22.3857421875 22.3857421875 0 50 0 c 0
 77.6142578125 0 100 -22.3857421875 100 -50 c 0
 100 -77.6142578125 77.6142578125 -100 50 -100 c 0
 22.3857421875 -100 0 -77.6142578125 0 -50 c 0
0 50 m 0
 0 77.6142578125 22.3857421875 100 50 100 c 0
 77.6142578125 100 100 77.6142578125 100 50 c 0
 100 22.3857421875 77.6142578125 0 50 0 c 0
 22.3857421875 0 0 22.3857421875 0 50 c 0
100 50 m 0
 100 77.6142578125 122.385742188 100 150 100 c 0
 177.614257812 100 200 77.6142578125 200 50 c 0
 200 22.3857421875 177.614257812 0 150 0 c 0
 122.385742188 0 100 22.3857421875 100 50 c 0
100 150 m 0
 100 177.614257812 122.385742188 200 150 200 c 0
 177.614257812 200 200 177.614257812 200 150 c 0
 200 122.385742188 177.614257812 100 150 100 c 0
 122.385742188 100 100 122.385742188 100 150 c 0
0 150 m 0
 0 177.614257812 22.3857421875 200 50 200 c 0
 77.6142578125 200 100 177.614257812 100 150 c 0
 100 122.385742188 77.6142578125 100 50 100 c 0
 22.3857421875 100 0 122.385742188 0 150 c 0
0 250 m 0
 0 277.614257812 22.3857421875 300 50 300 c 0
 77.6142578125 300 100 277.614257812 100 250 c 0
 100 222.385742188 77.6142578125 200 50 200 c 0
 22.3857421875 200 0 222.385742188 0 250 c 0
100 250 m 0
 100 277.614257812 122.385742188 300 150 300 c 0
 177.614257812 300 200 277.614257812 200 250 c 0
 200 222.385742188 177.614257812 200 150 200 c 0
 122.385742188 200 100 222.385742188 100 250 c 0
100 350 m 0
 100 377.614257812 122.385742188 400 150 400 c 0
 177.614257812 400 200 377.614257812 200 350 c 0
 200 322.385742188 177.614257812 300 150 300 c 0
 122.385742188 300 100 322.385742188 100 350 c 0
0 350 m 0
 0 377.614257812 22.3857421875 400 50 400 c 0
 77.6142578125 400 100 377.614257812 100 350 c 0
 100 322.385742188 77.6142578125 300 50 300 c 0
 22.3857421875 300 0 322.385742188 0 350 c 0
0 450 m 0
 0 477.614257812 22.3857421875 500 50 500 c 0
 77.6142578125 500 100 477.614257812 100 450 c 4
 100 422.385742188 77.6142578125 400 50 400 c 0
 22.3857421875 400 0 422.385742188 0 450 c 0
100 450 m 0
 100 477.614257812 122.385742188 500 150 500 c 0
 177.614257812 500 200 477.614257812 200 450 c 0
 200 422.385742188 177.614257812 400 150 400 c 0
 122.385742188 400 100 422.385742188 100 450 c 0
100 550 m 0
 100 577.614257812 122.385742188 600 150 600 c 0
 177.614257812 600 200 577.614257812 200 550 c 0
 200 522.385742188 177.614257812 500 150 500 c 0
 122.385742188 500 100 522.385742188 100 550 c 0
0 550 m 0
 0 577.614257812 22.3857421875 600 50 600 c 0
 77.6142578125 600 100 577.614257812 100 550 c 0
 100 522.385742188 77.6142578125 500 50 500 c 0
 22.3857421875 500 0 522.385742188 0 550 c 0
0 650 m 0
 0 677.614257812 22.3857421875 700 50 700 c 0
 77.6142578125 700 100 677.614257812 100 650 c 0
 100 622.385742188 77.6142578125 600 50 600 c 0
 22.3857421875 600 0 622.385742188 0 650 c 0
100 650 m 0
 100 677.614257812 122.385742188 700 150 700 c 0
 177.614257812 700 200 677.614257812 200 650 c 0
 200 622.385742188 177.614257812 600 150 600 c 0
 122.385742188 600 100 622.385742188 100 650 c 0
100 750 m 0
 100 777.614257812 122.385742188 800 150 800 c 0
 177.614257812 800 200 777.614257812 200 750 c 0
 200 722.385742188 177.614257812 700 150 700 c 0
 122.385742188 700 100 722.385742188 100 750 c 0
0 750 m 0
 0 777.614257812 22.3857421875 800 50 800 c 0
 77.6142578125 800 100 777.614257812 100 750 c 0
 100 722.385742188 77.6142578125 700 50 700 c 0
 22.3857421875 700 0 722.385742188 0 750 c 0
200 750 m 0
 200 777.614257812 222.385742188 800 250 800 c 0
 277.614257812 800 300 777.614257812 300 750 c 0
 300 722.385742188 277.614257812 700 250 700 c 0
 222.385742188 700 200 722.385742188 200 750 c 0
300 750 m 0
 300 777.614257812 322.385742188 800 350 800 c 0
 377.614257812 800 400 777.614257812 400 750 c 0
 400 722.385742188 377.614257812 700 350 700 c 0
 322.385742188 700 300 722.385742188 300 750 c 0
400 750 m 0
 400 777.614257812 422.385742188 800 450 800 c 0
 477.614257812 800 500 777.614257812 500 750 c 0
 500 722.385742188 477.614257812 700 450 700 c 0
 422.385742188 700 400 722.385742188 400 750 c 0
500 650 m 0
 500 677.614257812 522.385742188 700 550 700 c 0
 577.614257812 700 600 677.614257812 600 650 c 0
 600 622.385742188 577.614257812 600 550 600 c 0
 522.385742188 600 500 622.385742188 500 650 c 0
400 650 m 0
 400 677.614257812 422.385742188 700 450 700 c 0
 477.614257812 700 500 677.614257812 500 650 c 0
 500 622.385742188 477.614257812 600 450 600 c 0
 422.385742188 600 400 622.385742188 400 650 c 0
300 650 m 0
 300 677.614257812 322.385742188 700 350 700 c 0
 377.614257812 700 400 677.614257812 400 650 c 0
 400 622.385742188 377.614257812 600 350 600 c 0
 322.385742188 600 300 622.385742188 300 650 c 0
200 650 m 0
 200 677.614257812 222.385742188 700 250 700 c 0
 277.614257812 700 300 677.614257812 300 650 c 0
 300 622.385742188 277.614257812 600 250 600 c 0
 222.385742188 600 200 622.385742188 200 650 c 0
400 550 m 0
 400 577.614257812 422.385742188 600 450 600 c 0
 477.614257812 600 500 577.614257812 500 550 c 0
 500 522.385742188 477.614257812 500 450 500 c 0
 422.385742188 500 400 522.385742188 400 550 c 0
500 550 m 0
 500 577.614257812 522.385742188 600 550 600 c 0
 577.614257812 600 600 577.614257812 600 550 c 0
 600 522.385742188 577.614257812 500 550 500 c 0
 522.385742188 500 500 522.385742188 500 550 c 0
500 450 m 0
 500 477.614257812 522.385742188 500 550 500 c 0
 577.614257812 500 600 477.614257812 600 450 c 0
 600 422.385742188 577.614257812 400 550 400 c 0
 522.385742188 400 500 422.385742188 500 450 c 0
400 450 m 0
 400 477.614257812 422.385742188 500 450 500 c 0
 477.614257812 500 500 477.614257812 500 450 c 0
 500 422.385742188 477.614257812 400 450 400 c 0
 422.385742188 400 400 422.385742188 400 450 c 0
400 350 m 0
 400 377.614257812 422.385742188 400 450 400 c 0
 477.614257812 400 500 377.614257812 500 350 c 0
 500 322.385742188 477.614257812 300 450 300 c 0
 422.385742188 300 400 322.385742188 400 350 c 0
400 250 m 0
 400 277.614257812 422.385742188 300 450 300 c 0
 477.614257812 300 500 277.614257812 500 250 c 0
 500 222.385742188 477.614257812 200 450 200 c 0
 422.385742188 200 400 222.385742188 400 250 c 0
500 250 m 0
 500 277.614257812 522.385742188 300 550 300 c 0
 577.614257812 300 600 277.614257812 600 250 c 0
 600 222.385742188 577.614257812 200 550 200 c 0
 522.385742188 200 500 222.385742188 500 250 c 0
500 350 m 0
 500 377.614257812 522.385742188 400 550 400 c 0
 577.614257812 400 600 377.614257812 600 350 c 0
 600 322.385742188 577.614257812 300 550 300 c 0
 522.385742188 300 500 322.385742188 500 350 c 0
400 150 m 0
 400 177.614257812 422.385742188 200 450 200 c 0
 477.614257812 200 500 177.614257812 500 150 c 0
 500 122.385742188 477.614257812 100 450 100 c 0
 422.385742188 100 400 122.385742188 400 150 c 0
500 150 m 0
 500 177.614257812 522.385742188 200 550 200 c 0
 577.614257812 200 600 177.614257812 600 150 c 0
 600 122.385742188 577.614257812 100 550 100 c 0
 522.385742188 100 500 122.385742188 500 150 c 0
400 50 m 0
 400 77.6142578125 422.385742188 100 450 100 c 0
 477.614257812 100 500 77.6142578125 500 50 c 0
 500 22.3857421875 477.614257812 0 450 0 c 0
 422.385742188 0 400 22.3857421875 400 50 c 0
300 50 m 0
 300 77.6142578125 322.385742188 100 350 100 c 0
 377.614257812 100 400 77.6142578125 400 50 c 0
 400 22.3857421875 377.614257812 0 350 0 c 0
 322.385742188 0 300 22.3857421875 300 50 c 0
200 50 m 0
 200 77.6142578125 222.385742188 100 250 100 c 0
 277.614257812 100 300 77.6142578125 300 50 c 0
 300 22.3857421875 277.614257812 0 250 0 c 0
 222.385742188 0 200 22.3857421875 200 50 c 0
200 150 m 0
 200 177.614257812 222.385742188 200 250 200 c 0
 277.614257812 200 300 177.614257812 300 150 c 0
 300 122.385742188 277.614257812 100 250 100 c 0
 222.385742188 100 200 122.385742188 200 150 c 0
300 150 m 0
 300 177.614257812 322.385742188 200 350 200 c 0
 377.614257812 200 400 177.614257812 400 150 c 0
 400 122.385742188 377.614257812 100 350 100 c 0
 322.385742188 100 300 122.385742188 300 150 c 0
EndSplineSet
Validated: 524293
EndChar

StartChar: s
Encoding: 115 115 24
Width: 700
VWidth: 0
Flags: HW
LayerCount: 2
Fore
SplineSet
0 150 m 4
 0 177.614257812 22.3857421875 200 50 200 c 4
 77.6142578125 200 100 177.614257812 100 150 c 4
 100 122.385742188 77.6142578125 100 50 100 c 4
 22.3857421875 100 0 122.385742188 0 150 c 4
100 150 m 4
 100 177.614257812 122.385742188 200 150 200 c 4
 177.614257812 200 200 177.614257812 200 150 c 4
 200 122.385742188 177.614257812 100 150 100 c 4
 122.385742188 100 100 122.385742188 100 150 c 4
200 150 m 4
 200 177.614257812 222.385742188 200 250 200 c 4
 277.614257812 200 300 177.614257812 300 150 c 4
 300 122.385742188 277.614257812 100 250 100 c 4
 222.385742188 100 200 122.385742188 200 150 c 4
300 150 m 4
 300 177.614257812 322.385742188 200 350 200 c 4
 377.614257812 200 400 177.614257812 400 150 c 4
 400 122.385742188 377.614257812 100 350 100 c 4
 322.385742188 100 300 122.385742188 300 150 c 4
400 150 m 4
 400 177.614257812 422.385742188 200 450 200 c 4
 477.614257812 200 500 177.614257812 500 150 c 4
 500 122.385742188 477.614257812 100 450 100 c 4
 422.385742188 100 400 122.385742188 400 150 c 4
400 50 m 4
 400 77.6142578125 422.385742188 100 450 100 c 4
 477.614257812 100 500 77.6142578125 500 50 c 4
 500 22.3857421875 477.614257812 0 450 0 c 4
 422.385742188 0 400 22.3857421875 400 50 c 4
200 50 m 4
 200 77.6142578125 222.385742188 100 250 100 c 4
 277.614257812 100 300 77.6142578125 300 50 c 4
 300 22.3857421875 277.614257812 0 250 0 c 4
 222.385742188 0 200 22.3857421875 200 50 c 4
300 50 m 4
 300 77.6142578125 322.385742188 100 350 100 c 4
 377.614257812 100 400 77.6142578125 400 50 c 4
 400 22.3857421875 377.614257812 0 350 0 c 4
 322.385742188 0 300 22.3857421875 300 50 c 4
100 50 m 4
 100 77.6142578125 122.385742188 100 150 100 c 4
 177.614257812 100 200 77.6142578125 200 50 c 4
 200 22.3857421875 177.614257812 0 150 0 c 4
 122.385742188 0 100 22.3857421875 100 50 c 4
400 250 m 4
 400 277.614257812 422.385742188 300 450 300 c 4
 477.614257812 300 500 277.614257812 500 250 c 4
 500 222.385742188 477.614257812 200 450 200 c 4
 422.385742188 200 400 222.385742188 400 250 c 4
500 150 m 4
 500 177.614257812 522.385742188 200 550 200 c 4
 577.614257812 200 600 177.614257812 600 150 c 4
 600 122.385742188 577.614257812 100 550 100 c 4
 522.385742188 100 500 122.385742188 500 150 c 4
500 250 m 4
 500 277.614257812 522.385742188 300 550 300 c 4
 577.614257812 300 600 277.614257812 600 250 c 4
 600 222.385742188 577.614257812 200 550 200 c 4
 522.385742188 200 500 222.385742188 500 250 c 4
400 350 m 4
 400 377.614257812 422.385742188 400 450 400 c 4
 477.614257812 400 500 377.614257812 500 350 c 4
 500 322.385742188 477.614257812 300 450 300 c 4
 422.385742188 300 400 322.385742188 400 350 c 4
300 350 m 4
 300 377.614257812 322.385742188 400 350 400 c 4
 377.614257812 400 400 377.614257812 400 350 c 4
 400 322.385742188 377.614257812 300 350 300 c 4
 322.385742188 300 300 322.385742188 300 350 c 4
300 450 m 4
 300 477.614257812 322.385742188 500 350 500 c 4
 377.614257812 500 400 477.614257812 400 450 c 4
 400 422.385742188 377.614257812 400 350 400 c 4
 322.385742188 400 300 422.385742188 300 450 c 4
200 450 m 4
 200 477.614257812 222.385742188 500 250 500 c 4
 277.614257812 500 300 477.614257812 300 450 c 4
 300 422.385742188 277.614257812 400 250 400 c 4
 222.385742188 400 200 422.385742188 200 450 c 4
100 450 m 4
 100 477.614257812 122.385742188 500 150 500 c 4
 177.614257812 500 200 477.614257812 200 450 c 4
 200 422.385742188 177.614257812 400 150 400 c 4
 122.385742188 400 100 422.385742188 100 450 c 4
100 550 m 4
 100 577.614257812 122.385742188 600 150 600 c 4
 177.614257812 600 200 577.614257812 200 550 c 4
 200 522.385742188 177.614257812 500 150 500 c 4
 122.385742188 500 100 522.385742188 100 550 c 4
0 550 m 4
 0 577.614257812 22.3857421875 600 50 600 c 4
 77.6142578125 600 100 577.614257812 100 550 c 4
 100 522.385742188 77.6142578125 500 50 500 c 4
 22.3857421875 500 0 522.385742188 0 550 c 4
0 650 m 4
 0 677.614257812 22.3857421875 700 50 700 c 4
 77.6142578125 700 100 677.614257812 100 650 c 4
 100 622.385742188 77.6142578125 600 50 600 c 4
 22.3857421875 600 0 622.385742188 0 650 c 4
100 650 m 4
 100 677.614257812 122.385742188 700 150 700 c 4
 177.614257812 700 200 677.614257812 200 650 c 4
 200 622.385742188 177.614257812 600 150 600 c 4
 122.385742188 600 100 622.385742188 100 650 c 4
200 650 m 4
 200 677.614257812 222.385742188 700 250 700 c 4
 277.614257812 700 300 677.614257812 300 650 c 4
 300 622.385742188 277.614257812 600 250 600 c 4
 222.385742188 600 200 622.385742188 200 650 c 4
300 650 m 4
 300 677.614257812 322.385742188 700 350 700 c 4
 377.614257812 700 400 677.614257812 400 650 c 4
 400 622.385742188 377.614257812 600 350 600 c 4
 322.385742188 600 300 622.385742188 300 650 c 4
400 650 m 4
 400 677.614257812 422.385742188 700 450 700 c 4
 477.614257812 700 500 677.614257812 500 650 c 4
 500 622.385742188 477.614257812 600 450 600 c 4
 422.385742188 600 400 622.385742188 400 650 c 4
500 650 m 4
 500 677.614257812 522.385742188 700 550 700 c 4
 577.614257812 700 600 677.614257812 600 650 c 4
 600 622.385742188 577.614257812 600 550 600 c 4
 522.385742188 600 500 622.385742188 500 650 c 4
400 750 m 4
 400 777.614257812 422.385742188 800 450 800 c 4
 477.614257812 800 500 777.614257812 500 750 c 4
 500 722.385742188 477.614257812 700 450 700 c 4
 422.385742188 700 400 722.385742188 400 750 c 4
300 750 m 4
 300 777.614257812 322.385742188 800 350 800 c 4
 377.614257812 800 400 777.614257812 400 750 c 4
 400 722.385742188 377.614257812 700 350 700 c 4
 322.385742188 700 300 722.385742188 300 750 c 4
200 750 m 4
 200 777.614257812 222.385742188 800 250 800 c 4
 277.614257812 800 300 777.614257812 300 750 c 4
 300 722.385742188 277.614257812 700 250 700 c 4
 222.385742188 700 200 722.385742188 200 750 c 4
100 750 m 4
 100 777.614257812 122.385742188 800 150 800 c 4
 177.614257812 800 200 777.614257812 200 750 c 4
 200 722.385742188 177.614257812 700 150 700 c 4
 122.385742188 700 100 722.385742188 100 750 c 4
EndSplineSet
Validated: 524293
EndChar

StartChar: t
Encoding: 116 116 25
Width: 500
VWidth: 0
Flags: HW
LayerCount: 2
Fore
SplineSet
100 950 m 4
 100 977.614257812 122.385742188 1000 150 1000 c 4
 177.614257812 1000 200 977.614257812 200 950 c 4
 200 922.385742188 177.614257812 900 150 900 c 4
 122.385742188 900 100 922.385742188 100 950 c 4
200 950 m 4
 200 977.614257812 222.385742188 1000 250 1000 c 4
 277.614257812 1000 300 977.614257812 300 950 c 4
 300 922.385742188 277.614257812 900 250 900 c 4
 222.385742188 900 200 922.385742188 200 950 c 4
200 850 m 4
 200 877.614257812 222.385742188 900 250 900 c 4
 277.614257812 900 300 877.614257812 300 850 c 4
 300 822.385742188 277.614257812 800 250 800 c 4
 222.385742188 800 200 822.385742188 200 850 c 4
100 850 m 4
 100 877.614257812 122.385742188 900 150 900 c 4
 177.614257812 900 200 877.614257812 200 850 c 4
 200 822.385742188 177.614257812 800 150 800 c 4
 122.385742188 800 100 822.385742188 100 850 c 4
100 750 m 4
 100 777.614257812 122.385742188 800 150 800 c 4
 177.614257812 800 200 777.614257812 200 750 c 4
 200 722.385742188 177.614257812 700 150 700 c 4
 122.385742188 700 100 722.385742188 100 750 c 4
0 750 m 4
 0 777.614257812 22.3857421875 800 50 800 c 4
 77.6142578125 800 100 777.614257812 100 750 c 4
 100 722.385742188 77.6142578125 700 50 700 c 4
 22.3857421875 700 0 722.385742188 0 750 c 4
0 650 m 4
 0 677.614257812 22.3857421875 700 50 700 c 4
 77.6142578125 700 100 677.614257812 100 650 c 4
 100 622.385742188 77.6142578125 600 50 600 c 4
 22.3857421875 600 0 622.385742188 0 650 c 4
100 650 m 4
 100 677.614257812 122.385742188 700 150 700 c 4
 177.614257812 700 200 677.614257812 200 650 c 4
 200 622.385742188 177.614257812 600 150 600 c 4
 122.385742188 600 100 622.385742188 100 650 c 4
200 650 m 4
 200 677.614257812 222.385742188 700 250 700 c 4
 277.614257812 700 300 677.614257812 300 650 c 4
 300 622.385742188 277.614257812 600 250 600 c 4
 222.385742188 600 200 622.385742188 200 650 c 4
200 750 m 4
 200 777.614257812 222.385742188 800 250 800 c 4
 277.614257812 800 300 777.614257812 300 750 c 4
 300 722.385742188 277.614257812 700 250 700 c 4
 222.385742188 700 200 722.385742188 200 750 c 4
300 750 m 4
 300 777.614257812 322.385742188 800 350 800 c 4
 377.614257812 800 400 777.614257812 400 750 c 4
 400 722.385742188 377.614257812 700 350 700 c 4
 322.385742188 700 300 722.385742188 300 750 c 4
300 650 m 4
 300 677.614257812 322.385742188 700 350 700 c 4
 377.614257812 700 400 677.614257812 400 650 c 4
 400 622.385742188 377.614257812 600 350 600 c 4
 322.385742188 600 300 622.385742188 300 650 c 4
200 550 m 4
 200 577.614257812 222.385742188 600 250 600 c 4
 277.614257812 600 300 577.614257812 300 550 c 4
 300 522.385742188 277.614257812 500 250 500 c 4
 222.385742188 500 200 522.385742188 200 550 c 4
200 450 m 4
 200 477.614257812 222.385742188 500 250 500 c 4
 277.614257812 500 300 477.614257812 300 450 c 4
 300 422.385742188 277.614257812 400 250 400 c 4
 222.385742188 400 200 422.385742188 200 450 c 4
100 450 m 4
 100 477.614257812 122.385742188 500 150 500 c 4
 177.614257812 500 200 477.614257812 200 450 c 4
 200 422.385742188 177.614257812 400 150 400 c 4
 122.385742188 400 100 422.385742188 100 450 c 4
100 550 m 4
 100 577.614257812 122.385742188 600 150 600 c 4
 177.614257812 600 200 577.614257812 200 550 c 4
 200 522.385742188 177.614257812 500 150 500 c 4
 122.385742188 500 100 522.385742188 100 550 c 4
100 350 m 4
 100 377.614257812 122.385742188 400 150 400 c 4
 177.614257812 400 200 377.614257812 200 350 c 4
 200 322.385742188 177.614257812 300 150 300 c 4
 122.385742188 300 100 322.385742188 100 350 c 4
100 250 m 4
 100 277.614257812 122.385742188 300 150 300 c 4
 177.614257812 300 200 277.614257812 200 250 c 4
 200 222.385742188 177.614257812 200 150 200 c 4
 122.385742188 200 100 222.385742188 100 250 c 4
200 250 m 4
 200 277.614257812 222.385742188 300 250 300 c 4
 277.614257812 300 300 277.614257812 300 250 c 4
 300 222.385742188 277.614257812 200 250 200 c 4
 222.385742188 200 200 222.385742188 200 250 c 4
200 350 m 4
 200 377.614257812 222.385742188 400 250 400 c 4
 277.614257812 400 300 377.614257812 300 350 c 4
 300 322.385742188 277.614257812 300 250 300 c 4
 222.385742188 300 200 322.385742188 200 350 c 4
100 150 m 4
 100 177.614257812 122.385742188 200 150 200 c 4
 177.614257812 200 200 177.614257812 200 150 c 4
 200 122.385742188 177.614257812 100 150 100 c 4
 122.385742188 100 100 122.385742188 100 150 c 4
200 150 m 4
 200 177.614257812 222.385742188 200 250 200 c 4
 277.614257812 200 300 177.614257812 300 150 c 4
 300 122.385742188 277.614257812 100 250 100 c 4
 222.385742188 100 200 122.385742188 200 150 c 4
300 150 m 4
 300 177.614257812 322.385742188 200 350 200 c 4
 377.614257812 200 400 177.614257812 400 150 c 4
 400 122.385742188 377.614257812 100 350 100 c 4
 322.385742188 100 300 122.385742188 300 150 c 4
300 50 m 4
 300 77.6142578125 322.385742188 100 350 100 c 4
 377.614257812 100 400 77.6142578125 400 50 c 4
 400 22.3857421875 377.614257812 0 350 0 c 4
 322.385742188 0 300 22.3857421875 300 50 c 4
200 50 m 4
 200 77.6142578125 222.385742188 100 250 100 c 4
 277.614257812 100 300 77.6142578125 300 50 c 4
 300 22.3857421875 277.614257812 0 250 0 c 4
 222.385742188 0 200 22.3857421875 200 50 c 4
EndSplineSet
Validated: 524293
EndChar

StartChar: zero
Encoding: 48 48 26
Width: 700
VWidth: 0
Flags: HW
LayerCount: 2
Fore
SplineSet
0 750 m 0
 0 777.614257812 22.3857421875 800 50 800 c 0
 77.6142578125 800 100 777.614257812 100 750 c 0
 100 722.385742188 77.6142578125 700 50 700 c 0
 22.3857421875 700 0 722.385742188 0 750 c 0
100 750 m 0
 100 777.614257812 122.385742188 800 150 800 c 0
 177.614257812 800 200 777.614257812 200 750 c 0
 200 722.385742188 177.614257812 700 150 700 c 0
 122.385742188 700 100 722.385742188 100 750 c 0
400 750 m 0
 400 777.614257812 422.385742188 800 450 800 c 0
 477.614257812 800 500 777.614257812 500 750 c 0
 500 722.385742188 477.614257812 700 450 700 c 0
 422.385742188 700 400 722.385742188 400 750 c 0
500 750 m 0
 500 777.614257812 522.385742188 800 550 800 c 0
 577.614257812 800 600 777.614257812 600 750 c 4
 600 722.385742188 577.614257812 700 550 700 c 0
 522.385742188 700 500 722.385742188 500 750 c 0
400 850 m 0
 400 877.614257812 422.385742188 900 450 900 c 0
 477.614257812 900 500 877.614257812 500 850 c 0
 500 822.385742188 477.614257812 800 450 800 c 0
 422.385742188 800 400 822.385742188 400 850 c 0
300 850 m 0
 300 877.614257812 322.385742188 900 350 900 c 0
 377.614257812 900 400 877.614257812 400 850 c 0
 400 822.385742188 377.614257812 800 350 800 c 0
 322.385742188 800 300 822.385742188 300 850 c 0
200 850 m 0
 200 877.614257812 222.385742188 900 250 900 c 0
 277.614257812 900 300 877.614257812 300 850 c 0
 300 822.385742188 277.614257812 800 250 800 c 0
 222.385742188 800 200 822.385742188 200 850 c 0
100 850 m 0
 100 877.614257812 122.385742188 900 150 900 c 0
 177.614257812 900 200 877.614257812 200 850 c 0
 200 822.385742188 177.614257812 800 150 800 c 0
 122.385742188 800 100 822.385742188 100 850 c 0
200 950 m 0
 200 977.614257812 222.385742188 1000 250 1000 c 0
 277.614257812 1000 300 977.614257812 300 950 c 0
 300 922.385742188 277.614257812 900 250 900 c 0
 222.385742188 900 200 922.385742188 200 950 c 0
300 950 m 0
 300 977.614257812 322.385742188 1000 350 1000 c 0
 377.614257812 1000 400 977.614257812 400 950 c 0
 400 922.385742188 377.614257812 900 350 900 c 0
 322.385742188 900 300 922.385742188 300 950 c 0
300 50 m 0
 300 77.6142578125 322.385742188 100 350 100 c 0
 377.614257812 100 400 77.6142578125 400 50 c 0
 400 22.3857421875 377.614257812 0 350 0 c 0
 322.385742188 0 300 22.3857421875 300 50 c 0
200 50 m 0
 200 77.6142578125 222.385742188 100 250 100 c 0
 277.614257812 100 300 77.6142578125 300 50 c 0
 300 22.3857421875 277.614257812 0 250 0 c 0
 222.385742188 0 200 22.3857421875 200 50 c 0
100 150 m 0
 100 177.614257812 122.385742188 200 150 200 c 0
 177.614257812 200 200 177.614257812 200 150 c 0
 200 122.385742188 177.614257812 100 150 100 c 0
 122.385742188 100 100 122.385742188 100 150 c 0
200 150 m 0
 200 177.614257812 222.385742188 200 250 200 c 0
 277.614257812 200 300 177.614257812 300 150 c 0
 300 122.385742188 277.614257812 100 250 100 c 0
 222.385742188 100 200 122.385742188 200 150 c 0
300 150 m 0
 300 177.614257812 322.385742188 200 350 200 c 0
 377.614257812 200 400 177.614257812 400 150 c 0
 400 122.385742188 377.614257812 100 350 100 c 0
 322.385742188 100 300 122.385742188 300 150 c 0
400 150 m 0
 400 177.614257812 422.385742188 200 450 200 c 0
 477.614257812 200 500 177.614257812 500 150 c 0
 500 122.385742188 477.614257812 100 450 100 c 0
 422.385742188 100 400 122.385742188 400 150 c 0
500 250 m 0
 500 277.614257812 522.385742188 300 550 300 c 0
 577.614257812 300 600 277.614257812 600 250 c 0
 600 222.385742188 577.614257812 200 550 200 c 0
 522.385742188 200 500 222.385742188 500 250 c 0
400 250 m 0
 400 277.614257812 422.385742188 300 450 300 c 0
 477.614257812 300 500 277.614257812 500 250 c 0
 500 222.385742188 477.614257812 200 450 200 c 0
 422.385742188 200 400 222.385742188 400 250 c 0
100 250 m 0
 100 277.614257812 122.385742188 300 150 300 c 0
 177.614257812 300 200 277.614257812 200 250 c 0
 200 222.385742188 177.614257812 200 150 200 c 0
 122.385742188 200 100 222.385742188 100 250 c 0
0 250 m 0
 0 277.614257812 22.3857421875 300 50 300 c 0
 77.6142578125 300 100 277.614257812 100 250 c 0
 100 222.385742188 77.6142578125 200 50 200 c 0
 22.3857421875 200 0 222.385742188 0 250 c 0
0 350 m 0
 0 377.614257812 22.3857421875 400 50 400 c 0
 77.6142578125 400 100 377.614257812 100 350 c 0
 100 322.385742188 77.6142578125 300 50 300 c 0
 22.3857421875 300 0 322.385742188 0 350 c 0
100 350 m 0
 100 377.614257812 122.385742188 400 150 400 c 0
 177.614257812 400 200 377.614257812 200 350 c 0
 200 322.385742188 177.614257812 300 150 300 c 0
 122.385742188 300 100 322.385742188 100 350 c 0
100 450 m 0
 100 477.614257812 122.385742188 500 150 500 c 0
 177.614257812 500 200 477.614257812 200 450 c 0
 200 422.385742188 177.614257812 400 150 400 c 0
 122.385742188 400 100 422.385742188 100 450 c 0
0 450 m 0
 0 477.614257812 22.3857421875 500 50 500 c 0
 77.6142578125 500 100 477.614257812 100 450 c 0
 100 422.385742188 77.6142578125 400 50 400 c 0
 22.3857421875 400 0 422.385742188 0 450 c 0
0 550 m 0
 0 577.614257812 22.3857421875 600 50 600 c 0
 77.6142578125 600 100 577.614257812 100 550 c 0
 100 522.385742188 77.6142578125 500 50 500 c 0
 22.3857421875 500 0 522.385742188 0 550 c 0
100 550 m 0
 100 577.614257812 122.385742188 600 150 600 c 0
 177.614257812 600 200 577.614257812 200 550 c 0
 200 522.385742188 177.614257812 500 150 500 c 0
 122.385742188 500 100 522.385742188 100 550 c 0
100 650 m 0
 100 677.614257812 122.385742188 700 150 700 c 0
 177.614257812 700 200 677.614257812 200 650 c 0
 200 622.385742188 177.614257812 600 150 600 c 0
 122.385742188 600 100 622.385742188 100 650 c 0
0 650 m 0
 0 677.614257812 22.3857421875 700 50 700 c 0
 77.6142578125 700 100 677.614257812 100 650 c 0
 100 622.385742188 77.6142578125 600 50 600 c 0
 22.3857421875 600 0 622.385742188 0 650 c 0
400 650 m 0
 400 677.614257812 422.385742188 700 450 700 c 0
 477.614257812 700 500 677.614257812 500 650 c 0
 500 622.385742188 477.614257812 600 450 600 c 0
 422.385742188 600 400 622.385742188 400 650 c 0
500 650 m 0
 500 677.614257812 522.385742188 700 550 700 c 0
 577.614257812 700 600 677.614257812 600 650 c 0
 600 622.385742188 577.614257812 600 550 600 c 0
 522.385742188 600 500 622.385742188 500 650 c 0
500 550 m 0
 500 577.614257812 522.385742188 600 550 600 c 0
 577.614257812 600 600 577.614257812 600 550 c 0
 600 522.385742188 577.614257812 500 550 500 c 0
 522.385742188 500 500 522.385742188 500 550 c 0
400 550 m 0
 400 577.614257812 422.385742188 600 450 600 c 0
 477.614257812 600 500 577.614257812 500 550 c 0
 500 522.385742188 477.614257812 500 450 500 c 0
 422.385742188 500 400 522.385742188 400 550 c 0
400 450 m 0
 400 477.614257812 422.385742188 500 450 500 c 0
 477.614257812 500 500 477.614257812 500 450 c 0
 500 422.385742188 477.614257812 400 450 400 c 0
 422.385742188 400 400 422.385742188 400 450 c 0
500 450 m 0
 500 477.614257812 522.385742188 500 550 500 c 0
 577.614257812 500 600 477.614257812 600 450 c 0
 600 422.385742188 577.614257812 400 550 400 c 0
 522.385742188 400 500 422.385742188 500 450 c 0
500 350 m 0
 500 377.614257812 522.385742188 400 550 400 c 0
 577.614257812 400 600 377.614257812 600 350 c 0
 600 322.385742188 577.614257812 300 550 300 c 0
 522.385742188 300 500 322.385742188 500 350 c 0
400 350 m 0
 400 377.614257812 422.385742188 400 450 400 c 0
 477.614257812 400 500 377.614257812 500 350 c 0
 500 322.385742188 477.614257812 300 450 300 c 0
 422.385742188 300 400 322.385742188 400 350 c 0
EndSplineSet
Validated: 524293
EndChar

